<svg width="172" height="172" viewBox="0 0 172 172" fill="none" xmlns="http://www.w3.org/2000/svg">
<path d="M120.595 0.464844H52.1815C23.884 0.464844 0.871338 23.4775 0.871338 51.775V162.947C0.871338 167.676 4.69395 171.499 9.42304 171.499H120.595C148.893 171.499 171.905 148.486 171.905 120.189V51.775C171.905 23.4775 148.893 0.464844 120.595 0.464844ZM154.802 120.189C154.802 139.054 139.46 154.395 120.595 154.395H17.9747V51.775C17.9747 32.91 33.3165 17.5682 52.1815 17.5682H120.595C139.46 17.5682 154.802 32.91 154.802 51.775V120.189Z" fill="#FFD770"/>
<path d="M43.6296 68.8798C43.6296 64.1569 47.4584 60.3281 52.1813 60.3281H120.595C125.318 60.3281 129.147 64.1569 129.147 68.8798C129.147 73.6028 125.318 77.4315 120.595 77.4315H52.1813C47.4584 77.4315 43.6296 73.6028 43.6296 68.8798ZM43.6296 103.087C43.6296 98.3637 47.4584 94.5349 52.1813 94.5349H94.9398C99.6628 94.5349 103.492 98.3637 103.492 103.087C103.492 107.81 99.6628 111.638 94.9398 111.638H73.5606H52.1813C47.4584 111.638 43.6296 107.81 43.6296 103.087Z" fill="#EDA41D"/>
</svg>
