<svg width="172" height="172" viewBox="0 0 172 172" fill="none" xmlns="http://www.w3.org/2000/svg">
<path d="M168.431 77.8074C166.348 76.2296 163.656 75.6894 161.11 76.3325C158.658 76.967 156.635 77.2586 154.732 77.2586C140.553 77.2586 129.014 65.7168 128.988 52.0741C129.031 51.7826 129.125 50.9079 129.134 50.6164C129.245 47.8981 128.054 45.2914 125.936 43.5935C123.81 41.8871 121.007 41.2697 118.384 41.99C115.872 42.6503 113.806 42.959 111.869 42.959C97.6895 42.959 86.1508 31.4172 86.1508 17.2343C86.1508 15.3735 86.4165 13.427 86.9995 11.0947C87.6681 8.39356 86.9823 5.53812 85.1649 3.42869C83.3561 1.32784 80.7243 0.264556 77.8525 0.496079C33.7121 4.74923 0.424683 41.4327 0.424683 85.8335C0.424683 133.115 38.8814 171.582 86.1508 171.582C133.42 171.582 171.877 133.115 171.877 85.8335C171.877 85.4133 171.851 85.0017 171.817 84.4615C171.757 81.8462 170.514 79.3937 168.431 77.8074ZM86.1508 154.433C48.337 154.433 17.5699 123.657 17.5699 85.8335C17.5699 53.9091 39.0786 26.9754 69.057 19.378C70.18 42.0329 88.954 60.1088 111.869 60.1088C112.151 60.1088 112.434 60.1088 112.734 60.1002C116.678 79.4795 133.729 94.1511 154.2 94.3998C149.965 128.202 121.067 154.433 86.1508 154.433Z" fill="#FFD770"/>
<path d="M88.3252 96.6446C94.6533 96.6446 99.7832 91.5146 99.7832 85.1865C99.7832 78.8584 94.6533 73.7285 88.3252 73.7285C81.9971 73.7285 76.8672 78.8584 76.8672 85.1865C76.8672 91.5146 81.9971 96.6446 88.3252 96.6446Z" fill="#EDA41D"/>
<path d="M57.2129 70.3841C63.541 70.3841 68.6709 65.2167 68.6709 58.8424C68.6709 52.4682 63.541 47.3008 57.2129 47.3008C50.8848 47.3008 45.7549 52.4682 45.7549 58.8424C45.7549 65.2167 50.8848 70.3841 57.2129 70.3841Z" fill="#EDA41D"/>
<path d="M48.1802 104.339C54.5083 104.339 59.6382 99.1718 59.6382 92.7975C59.6382 86.4232 54.5083 81.2559 48.1802 81.2559C41.8521 81.2559 36.7222 86.4232 36.7222 92.7975C36.7222 99.1718 41.8521 104.339 48.1802 104.339Z" fill="#EDA41D"/>
<path d="M113.165 127.254C119.539 127.254 124.706 122.124 124.706 115.796C124.706 109.468 119.539 104.338 113.165 104.338C106.791 104.338 101.623 109.468 101.623 115.796C101.623 122.124 106.791 127.254 113.165 127.254Z" fill="#EDA41D"/>
<path d="M73.1035 136.454C79.4316 136.454 84.5616 131.287 84.5616 124.913C84.5616 118.538 79.4316 113.371 73.1035 113.371C66.7754 113.371 61.6455 118.538 61.6455 124.913C61.6455 131.287 66.7754 136.454 73.1035 136.454Z" fill="#EDA41D"/>
</svg>
