<svg width="48" height="48" viewBox="0 0 48 48" fill="none" xmlns="http://www.w3.org/2000/svg">
<path fill-rule="evenodd" clip-rule="evenodd" d="M6.00007 10C6.00007 7.79086 7.79093 6 10.0001 6H38.0001C40.2092 6 42.0001 7.79086 42.0001 10V38C42.0001 40.2091 40.2092 42 38.0001 42H10.0001C7.79093 42 6.00007 40.2091 6.00007 38V10ZM38.0001 10H10.0001V38H38.0001V10Z" fill="#ECB21B"/>
<path fill-rule="evenodd" clip-rule="evenodd" d="M16.7507 20.4383C17.4811 19.8539 18.519 19.8539 19.2495 20.4383L27.8516 27.32L30.5859 24.5858C31.3669 23.8047 32.6332 23.8047 33.4143 24.5858L41.4143 32.5858C42.1953 33.3668 42.1953 34.6332 41.4143 35.4142C40.6332 36.1953 39.3669 36.1953 38.5859 35.4142L32.0001 28.8284L29.4143 31.4142C28.6937 32.1348 27.5465 32.1984 26.7507 31.5617L18.0001 24.5612L9.24946 31.5617C8.38694 32.2518 7.12836 32.1119 6.43834 31.2494C5.74832 30.3869 5.88816 29.1283 6.75068 28.4383L16.7507 20.4383Z" fill="#ECB21B"/>
<path d="M34.0001 17C34.0001 18.6569 32.6569 20 31.0001 20C29.3432 20 28.0001 18.6569 28.0001 17C28.0001 15.3431 29.3432 14 31.0001 14C32.6569 14 34.0001 15.3431 34.0001 17Z" fill="#ECB21B"/>
</svg>
