<svg width="79" height="79" viewBox="0 0 79 79" fill="none" xmlns="http://www.w3.org/2000/svg">
<rect width="78.6946" height="78.6946" rx="39.3473" fill="#1B2124"/>
<path d="M23.4656 31.8C23.4656 36.816 27.3061 40.6 32.3969 40.6C37.4878 40.6 41.3282 36.816 41.3282 31.8C41.3282 26.784 37.4878 23 32.3969 23C27.3061 23 23.4656 26.784 23.4656 31.8ZM36.8626 31.8C36.8626 34.3916 35.0272 36.2 32.3969 36.2C29.7667 36.2 27.9313 34.3916 27.9313 31.8C27.9313 29.2084 29.7667 27.4 32.3969 27.4C35.0272 27.4 36.8626 29.2084 36.8626 31.8ZM23.4656 53.8C23.4656 50.1612 26.471 47.2 30.1641 47.2H34.6298C38.3228 47.2 41.3282 50.1612 41.3282 53.8C41.3282 55.015 42.3132 56 43.5282 56H45.7939V53.8C45.7939 47.7346 40.7857 42.8 34.6298 42.8H30.1641C24.0082 42.8 19 47.7346 19 53.8V56H21.2656C22.4807 56 23.4656 55.015 23.4656 53.8Z" fill="white"/>
<mask id="mask0" mask-type="alpha" maskUnits="userSpaceOnUse" x="19" y="23" width="43" height="33">
<path d="M59.8473 32.4424L50.2461 41.8848L47.3613 39.0424C45.6254 40.7528 45.626 43.5531 47.3625 45.2628L50.2461 48.102L59.8401 38.6656C61.5779 36.9563 61.5811 34.1556 59.8473 32.4424ZM23.4656 31.8C23.4656 36.816 27.3061 40.6 32.3969 40.6C37.4878 40.6 41.3282 36.816 41.3282 31.8C41.3282 26.784 37.4878 23 32.3969 23C27.3061 23 23.4656 26.784 23.4656 31.8ZM36.8626 31.8C36.8626 34.3916 35.0272 36.2 32.3969 36.2C29.7667 36.2 27.9313 34.3916 27.9313 31.8C27.9313 29.2084 29.7667 27.4 32.3969 27.4C35.0272 27.4 36.8626 29.2084 36.8626 31.8ZM23.4656 53.8C23.4656 50.1612 26.471 47.2 30.1641 47.2H34.6298C38.3228 47.2 41.3282 50.1612 41.3282 53.8C41.3282 55.015 42.3132 56 43.5282 56H45.7939V53.8C45.7939 47.7346 40.7857 42.8 34.6298 42.8H30.1641C24.0082 42.8 19 47.7346 19 53.8V56H21.2656C22.4807 56 23.4656 55.015 23.4656 53.8Z" fill="black"/>
</mask>
<g mask="url(#mask0)">
<path d="M40 40.5L47.5 33.5L63 27L68.5 40L53.5 53.5L46.5 48L40 40.5Z" fill="#F6C138"/>
</g>
</svg>
