<svg width="307" height="225" viewBox="0 0 307 225" fill="none" xmlns="http://www.w3.org/2000/svg">
<path fill-rule="evenodd" clip-rule="evenodd" d="M194.418 10.2789L228.062 1.46468C259.764 -6.8408 288.773 21.5229 280.278 52.5198L271.167 85.7677C278.361 102.685 282.341 121.298 282.341 140.841C282.341 140.894 282.341 140.947 282.341 141H228.172C228.172 140.947 228.172 140.894 228.172 140.841C228.172 92.9735 189.368 54.1695 141.501 54.1695C93.6336 54.1695 54.8296 92.9735 54.8296 140.841C54.8296 140.894 54.8297 140.947 54.8298 141H0.660245C0.660186 140.947 0.660156 140.894 0.660156 140.841C0.660156 63.0565 63.7167 0 141.501 0C160.217 0 178.08 3.65072 194.418 10.2789Z" fill="#98B5C3"/>
<path d="M148.264 186.18C146.608 186.18 145.324 185.754 144.412 184.902C143.512 184.05 143.032 182.85 142.972 181.302C142.96 180.978 142.954 180.45 142.954 179.718C142.954 178.974 142.96 178.434 142.972 178.098C143.032 176.562 143.518 175.368 144.43 174.516C145.354 173.652 146.632 173.22 148.264 173.22C149.332 173.22 150.262 173.406 151.054 173.778C151.846 174.138 152.458 174.636 152.89 175.272C153.322 175.896 153.55 176.604 153.574 177.396V177.432C153.574 177.528 153.532 177.612 153.448 177.684C153.376 177.744 153.292 177.774 153.196 177.774H151.486C151.342 177.774 151.234 177.744 151.162 177.684C151.09 177.624 151.03 177.51 150.982 177.342C150.79 176.586 150.472 176.058 150.028 175.758C149.584 175.446 148.99 175.29 148.246 175.29C146.518 175.29 145.618 176.256 145.546 178.188C145.534 178.512 145.528 179.01 145.528 179.682C145.528 180.354 145.534 180.864 145.546 181.212C145.618 183.144 146.518 184.11 148.246 184.11C148.99 184.11 149.584 183.954 150.028 183.642C150.484 183.33 150.802 182.802 150.982 182.058C151.018 181.89 151.072 181.776 151.144 181.716C151.228 181.656 151.342 181.626 151.486 181.626H153.196C153.304 181.626 153.394 181.662 153.466 181.734C153.55 181.806 153.586 181.896 153.574 182.004C153.55 182.796 153.322 183.51 152.89 184.146C152.458 184.77 151.846 185.268 151.054 185.64C150.262 186 149.332 186.18 148.264 186.18ZM156.159 186C156.027 186 155.919 185.964 155.835 185.892C155.751 185.808 155.709 185.7 155.709 185.568V173.85C155.709 173.718 155.751 173.61 155.835 173.526C155.919 173.442 156.027 173.4 156.159 173.4H157.581C157.833 173.4 158.013 173.514 158.121 173.742L161.595 180.222L165.105 173.742C165.225 173.514 165.405 173.4 165.645 173.4H167.049C167.181 173.4 167.289 173.442 167.373 173.526C167.457 173.61 167.499 173.718 167.499 173.85V185.568C167.499 185.7 167.457 185.808 167.373 185.892C167.289 185.964 167.181 186 167.049 186H165.537C165.417 186 165.315 185.958 165.231 185.874C165.147 185.79 165.105 185.688 165.105 185.568V177.774L162.585 182.58C162.429 182.844 162.225 182.976 161.973 182.976H161.235C160.983 182.976 160.779 182.844 160.623 182.58L158.103 177.774V185.568C158.103 185.688 158.061 185.79 157.977 185.874C157.905 185.958 157.803 186 157.671 186H156.159ZM174.043 186C173.923 186 173.821 185.958 173.737 185.874C173.653 185.79 173.611 185.688 173.611 185.568V181.5L169.363 173.976C169.327 173.916 169.309 173.85 169.309 173.778C169.309 173.67 169.345 173.58 169.417 173.508C169.489 173.436 169.573 173.4 169.669 173.4H171.271C171.403 173.4 171.511 173.436 171.595 173.508C171.691 173.58 171.763 173.658 171.811 173.742L174.871 178.98L177.913 173.742C178.057 173.514 178.243 173.4 178.471 173.4H180.055C180.163 173.4 180.253 173.436 180.325 173.508C180.397 173.58 180.433 173.67 180.433 173.778C180.433 173.85 180.415 173.916 180.379 173.976L176.131 181.5V185.568C176.131 185.688 176.089 185.79 176.005 185.874C175.921 185.958 175.813 186 175.681 186H174.043ZM182.684 186C182.564 186 182.462 185.958 182.378 185.874C182.294 185.79 182.252 185.688 182.252 185.568V173.85C182.252 173.718 182.288 173.61 182.36 173.526C182.444 173.442 182.552 173.4 182.684 173.4H184.268C184.4 173.4 184.508 173.442 184.592 173.526C184.676 173.61 184.718 173.718 184.718 173.85V178.062L188.786 173.724C188.942 173.508 189.176 173.4 189.488 173.4H191.27C191.366 173.4 191.45 173.436 191.522 173.508C191.606 173.58 191.648 173.67 191.648 173.778C191.648 173.862 191.624 173.934 191.576 173.994L186.626 179.43L191.918 185.388C191.978 185.46 192.008 185.538 192.008 185.622C192.008 185.73 191.966 185.82 191.882 185.892C191.81 185.964 191.726 186 191.63 186H189.776C189.476 186 189.242 185.892 189.074 185.676L184.718 180.906V185.568C184.718 185.7 184.676 185.808 184.592 185.892C184.508 185.964 184.4 186 184.268 186H182.684ZM143.836 204C143.716 204 143.614 203.958 143.53 203.874C143.446 203.79 143.404 203.688 143.404 203.568V191.85C143.404 191.718 143.44 191.61 143.512 191.526C143.596 191.442 143.704 191.4 143.836 191.4H148.498C149.962 191.4 151.108 191.742 151.936 192.426C152.776 193.11 153.196 194.082 153.196 195.342C153.196 196.218 152.98 196.956 152.548 197.556C152.128 198.144 151.54 198.57 150.784 198.834L153.412 203.424C153.448 203.496 153.466 203.562 153.466 203.622C153.466 203.73 153.424 203.82 153.34 203.892C153.268 203.964 153.184 204 153.088 204H151.45C151.258 204 151.108 203.958 151 203.874C150.904 203.79 150.814 203.67 150.73 203.514L148.408 199.248H145.906V203.568C145.906 203.688 145.864 203.79 145.78 203.874C145.708 203.958 145.606 204 145.474 204H143.836ZM148.444 197.214C149.164 197.214 149.704 197.052 150.064 196.728C150.436 196.404 150.622 195.936 150.622 195.324C150.622 194.712 150.436 194.238 150.064 193.902C149.704 193.566 149.164 193.398 148.444 193.398H145.906V197.214H148.444ZM160.376 204.18C158.732 204.18 157.448 203.754 156.524 202.902C155.612 202.05 155.126 200.862 155.066 199.338C155.054 198.99 155.048 198.432 155.048 197.664C155.048 196.896 155.054 196.338 155.066 195.99C155.126 194.502 155.618 193.338 156.542 192.498C157.478 191.646 158.756 191.22 160.376 191.22C161.48 191.22 162.428 191.406 163.22 191.778C164.012 192.15 164.612 192.618 165.02 193.182C165.428 193.734 165.644 194.28 165.668 194.82V194.856C165.668 194.952 165.632 195.036 165.56 195.108C165.488 195.168 165.398 195.198 165.29 195.198H163.436C163.316 195.198 163.226 195.18 163.166 195.144C163.106 195.096 163.052 195.018 163.004 194.91C162.836 194.466 162.542 194.088 162.122 193.776C161.702 193.452 161.12 193.29 160.376 193.29C159.536 193.29 158.876 193.518 158.396 193.974C157.928 194.43 157.676 195.132 157.64 196.08C157.628 196.428 157.622 196.956 157.622 197.664C157.622 198.36 157.628 198.888 157.64 199.248C157.712 201.156 158.636 202.11 160.412 202.11C161.264 202.11 161.948 201.882 162.464 201.426C162.98 200.958 163.238 200.268 163.238 199.356V198.798H161.042C160.91 198.798 160.802 198.756 160.718 198.672C160.646 198.588 160.61 198.48 160.61 198.348V197.394C160.61 197.262 160.646 197.154 160.718 197.07C160.802 196.986 160.91 196.944 161.042 196.944H165.344C165.476 196.944 165.578 196.986 165.65 197.07C165.734 197.154 165.776 197.262 165.776 197.394V199.284C165.776 200.28 165.554 201.15 165.11 201.894C164.678 202.626 164.054 203.19 163.238 203.586C162.422 203.982 161.468 204.18 160.376 204.18ZM168.516 204C168.396 204 168.294 203.958 168.21 203.874C168.126 203.79 168.084 203.688 168.084 203.568V191.85C168.084 191.718 168.12 191.61 168.192 191.526C168.276 191.442 168.384 191.4 168.516 191.4H173.736C175.14 191.4 176.184 191.712 176.868 192.336C177.564 192.948 177.912 193.788 177.912 194.856C177.912 195.48 177.756 196.014 177.444 196.458C177.144 196.89 176.79 197.202 176.382 197.394C176.886 197.622 177.306 197.994 177.642 198.51C177.99 199.026 178.164 199.614 178.164 200.274C178.164 201.39 177.786 202.29 177.03 202.974C176.286 203.658 175.236 204 173.88 204H168.516ZM173.412 196.566C174.036 196.566 174.51 196.416 174.834 196.116C175.158 195.816 175.32 195.414 175.32 194.91C175.32 194.394 175.158 193.998 174.834 193.722C174.51 193.434 174.036 193.29 173.412 193.29H170.586V196.566H173.412ZM173.592 202.092C174.216 202.092 174.702 201.924 175.05 201.588C175.398 201.24 175.572 200.802 175.572 200.274C175.572 199.734 175.398 199.296 175.05 198.96C174.702 198.612 174.216 198.438 173.592 198.438H170.586V202.092H173.592ZM143.836 222C143.716 222 143.614 221.958 143.53 221.874C143.446 221.79 143.404 221.688 143.404 221.568V209.85C143.404 209.718 143.44 209.61 143.512 209.526C143.596 209.442 143.704 209.4 143.836 209.4H145.474C145.606 209.4 145.708 209.442 145.78 209.526C145.864 209.61 145.906 209.718 145.906 209.85V214.494H151.216V209.85C151.216 209.718 151.252 209.61 151.324 209.526C151.408 209.442 151.516 209.4 151.648 209.4H153.268C153.4 209.4 153.508 209.442 153.592 209.526C153.676 209.61 153.718 209.718 153.718 209.85V221.568C153.718 221.7 153.676 221.808 153.592 221.892C153.508 221.964 153.4 222 153.268 222H151.648C151.528 222 151.426 221.958 151.342 221.874C151.258 221.79 151.216 221.688 151.216 221.568V216.744H145.906V221.568C145.906 221.688 145.864 221.79 145.78 221.874C145.708 221.958 145.606 222 145.474 222H143.836ZM156.949 222C156.829 222 156.727 221.958 156.643 221.874C156.559 221.79 156.517 221.688 156.517 221.568V209.85C156.517 209.718 156.553 209.61 156.625 209.526C156.709 209.442 156.817 209.4 156.949 209.4H164.869C165.001 209.4 165.109 209.442 165.193 209.526C165.277 209.61 165.319 209.718 165.319 209.85V211.038C165.319 211.17 165.277 211.278 165.193 211.362C165.109 211.434 165.001 211.47 164.869 211.47H158.947V214.656H164.473C164.605 214.656 164.713 214.698 164.797 214.782C164.881 214.854 164.923 214.956 164.923 215.088V216.204C164.923 216.336 164.881 216.444 164.797 216.528C164.713 216.6 164.605 216.636 164.473 216.636H158.947V219.93H165.013C165.145 219.93 165.253 219.972 165.337 220.056C165.421 220.14 165.463 220.248 165.463 220.38V221.568C165.463 221.7 165.421 221.808 165.337 221.892C165.253 221.964 165.145 222 165.013 222H156.949ZM167.013 222C166.905 222 166.815 221.964 166.743 221.892C166.671 221.82 166.635 221.73 166.635 221.622C166.635 221.55 166.653 221.478 166.689 221.406L170.721 215.574L166.941 209.994C166.905 209.934 166.887 209.862 166.887 209.778C166.887 209.67 166.923 209.58 166.995 209.508C167.067 209.436 167.157 209.4 167.265 209.4H169.101C169.317 209.4 169.503 209.514 169.659 209.742L172.305 213.63L174.969 209.742C175.125 209.514 175.311 209.4 175.527 209.4H177.273C177.381 209.4 177.471 209.436 177.543 209.508C177.615 209.58 177.651 209.67 177.651 209.778C177.651 209.862 177.627 209.934 177.579 209.994L173.817 215.574L177.849 221.406C177.897 221.502 177.921 221.574 177.921 221.622C177.921 221.73 177.879 221.82 177.795 221.892C177.723 221.964 177.639 222 177.543 222H175.635C175.407 222 175.227 221.892 175.095 221.676L172.215 217.608L169.389 221.676C169.233 221.892 169.047 222 168.831 222H167.013Z" fill="#98B5C3"/>
<path d="M216.242 186C216.122 186 216.02 185.958 215.936 185.874C215.852 185.79 215.81 185.688 215.81 185.568V184.65C215.81 184.326 215.96 184.044 216.26 183.804L219.104 180.978C220.34 180.006 221.198 179.25 221.678 178.71C222.17 178.158 222.416 177.618 222.416 177.09C222.416 176.526 222.26 176.082 221.948 175.758C221.648 175.434 221.192 175.272 220.58 175.272C219.98 175.272 219.506 175.452 219.158 175.812C218.81 176.16 218.594 176.616 218.51 177.18C218.474 177.324 218.408 177.432 218.312 177.504C218.216 177.564 218.108 177.594 217.988 177.594H216.386C216.278 177.594 216.188 177.558 216.116 177.486C216.044 177.414 216.008 177.33 216.008 177.234C216.032 176.526 216.224 175.866 216.584 175.254C216.944 174.63 217.466 174.132 218.15 173.76C218.834 173.376 219.638 173.184 220.562 173.184C221.522 173.184 222.332 173.352 222.992 173.688C223.664 174.012 224.168 174.462 224.504 175.038C224.84 175.614 225.008 176.268 225.008 177C225.008 177.804 224.78 178.53 224.324 179.178C223.88 179.826 223.196 180.522 222.272 181.266L219.716 183.858H224.846C224.978 183.858 225.08 183.9 225.152 183.984C225.236 184.056 225.278 184.158 225.278 184.29V185.568C225.278 185.688 225.236 185.79 225.152 185.874C225.08 185.958 224.978 186 224.846 186H216.242ZM227.387 186C227.267 186 227.165 185.958 227.081 185.874C226.997 185.79 226.955 185.688 226.955 185.568V184.65C226.955 184.326 227.105 184.044 227.405 183.804L230.249 180.978C231.485 180.006 232.343 179.25 232.823 178.71C233.315 178.158 233.561 177.618 233.561 177.09C233.561 176.526 233.405 176.082 233.093 175.758C232.793 175.434 232.337 175.272 231.725 175.272C231.125 175.272 230.651 175.452 230.303 175.812C229.955 176.16 229.739 176.616 229.655 177.18C229.619 177.324 229.553 177.432 229.457 177.504C229.361 177.564 229.253 177.594 229.133 177.594H227.531C227.423 177.594 227.333 177.558 227.261 177.486C227.189 177.414 227.153 177.33 227.153 177.234C227.177 176.526 227.369 175.866 227.729 175.254C228.089 174.63 228.611 174.132 229.295 173.76C229.979 173.376 230.783 173.184 231.707 173.184C232.667 173.184 233.477 173.352 234.137 173.688C234.809 174.012 235.313 174.462 235.649 175.038C235.985 175.614 236.153 176.268 236.153 177C236.153 177.804 235.925 178.53 235.469 179.178C235.025 179.826 234.341 180.522 233.417 181.266L230.861 183.858H235.991C236.123 183.858 236.225 183.9 236.297 183.984C236.381 184.056 236.423 184.158 236.423 184.29V185.568C236.423 185.688 236.381 185.79 236.297 185.874C236.225 185.958 236.123 186 235.991 186H227.387ZM238.369 187.35C238.261 187.35 238.177 187.314 238.117 187.242C238.057 187.17 238.033 187.08 238.045 186.972L238.531 183.912C238.555 183.744 238.615 183.606 238.711 183.498C238.807 183.39 238.939 183.336 239.107 183.336H240.763C240.847 183.336 240.919 183.372 240.979 183.444C241.051 183.504 241.087 183.582 241.087 183.678C241.087 183.738 241.069 183.816 241.033 183.912L239.881 186.9C239.821 187.044 239.743 187.152 239.647 187.224C239.563 187.308 239.443 187.35 239.287 187.35H238.369ZM248.758 186C248.65 186 248.56 185.964 248.488 185.892C248.416 185.808 248.38 185.712 248.38 185.604C248.38 185.568 248.392 185.514 248.416 185.442L252.754 175.542H247.102C246.982 175.542 246.88 175.5 246.796 175.416C246.712 175.332 246.67 175.23 246.67 175.11V173.85C246.67 173.718 246.706 173.61 246.778 173.526C246.862 173.442 246.97 173.4 247.102 173.4H255.004C255.136 173.4 255.238 173.442 255.31 173.526C255.394 173.61 255.436 173.718 255.436 173.85V174.966C255.436 175.206 255.382 175.464 255.274 175.74L250.972 185.568C250.84 185.856 250.648 186 250.396 186H248.758ZM255.912 187.35C255.804 187.35 255.72 187.314 255.66 187.242C255.6 187.17 255.576 187.08 255.588 186.972L256.074 183.912C256.098 183.744 256.158 183.606 256.254 183.498C256.35 183.39 256.482 183.336 256.65 183.336H258.306C258.39 183.336 258.462 183.372 258.522 183.444C258.594 183.504 258.63 183.582 258.63 183.678C258.63 183.738 258.612 183.816 258.576 183.912L257.424 186.9C257.364 187.044 257.286 187.152 257.19 187.224C257.106 187.308 256.986 187.35 256.83 187.35H255.912ZM269.595 186.18C267.999 186.18 266.805 185.736 266.013 184.848C265.233 183.96 264.807 182.796 264.735 181.356C264.723 181.032 264.717 180.48 264.717 179.7C264.717 178.908 264.723 178.344 264.735 178.008C264.795 176.592 265.227 175.44 266.031 174.552C266.835 173.664 268.023 173.22 269.595 173.22C271.179 173.22 272.373 173.664 273.177 174.552C273.981 175.44 274.407 176.592 274.455 178.008C274.479 178.344 274.491 178.908 274.491 179.7C274.491 180.48 274.479 181.032 274.455 181.356C274.395 182.796 273.969 183.96 273.177 184.848C272.397 185.736 271.203 186.18 269.595 186.18ZM269.595 184.11C270.351 184.11 270.915 183.864 271.287 183.372C271.659 182.868 271.857 182.166 271.881 181.266C271.905 180.57 271.917 180.042 271.917 179.682C271.917 179.286 271.905 178.764 271.881 178.116C271.857 177.228 271.659 176.532 271.287 176.028C270.915 175.524 270.351 175.272 269.595 175.272C268.851 175.272 268.287 175.524 267.903 176.028C267.531 176.532 267.333 177.228 267.309 178.116C267.297 178.44 267.291 178.962 267.291 179.682C267.291 180.39 267.297 180.918 267.309 181.266C267.333 182.166 267.531 182.868 267.903 183.372C268.287 183.864 268.851 184.11 269.595 184.11ZM276.408 187.35C276.3 187.35 276.216 187.314 276.156 187.242C276.096 187.17 276.072 187.08 276.084 186.972L276.57 183.912C276.594 183.744 276.654 183.606 276.75 183.498C276.846 183.39 276.978 183.336 277.146 183.336H278.802C278.886 183.336 278.958 183.372 279.018 183.444C279.09 183.504 279.126 183.582 279.126 183.678C279.126 183.738 279.108 183.816 279.072 183.912L277.92 186.9C277.86 187.044 277.782 187.152 277.686 187.224C277.602 187.308 277.482 187.35 277.326 187.35H276.408ZM285.43 186C285.31 186 285.208 185.958 285.124 185.874C285.04 185.79 284.998 185.688 284.998 185.568V184.65C284.998 184.326 285.148 184.044 285.448 183.804L288.292 180.978C289.528 180.006 290.386 179.25 290.866 178.71C291.358 178.158 291.604 177.618 291.604 177.09C291.604 176.526 291.448 176.082 291.136 175.758C290.836 175.434 290.38 175.272 289.768 175.272C289.168 175.272 288.694 175.452 288.346 175.812C287.998 176.16 287.782 176.616 287.698 177.18C287.662 177.324 287.596 177.432 287.5 177.504C287.404 177.564 287.296 177.594 287.176 177.594H285.574C285.466 177.594 285.376 177.558 285.304 177.486C285.232 177.414 285.196 177.33 285.196 177.234C285.22 176.526 285.412 175.866 285.772 175.254C286.132 174.63 286.654 174.132 287.338 173.76C288.022 173.376 288.826 173.184 289.75 173.184C290.71 173.184 291.52 173.352 292.18 173.688C292.852 174.012 293.355 174.462 293.691 175.038C294.028 175.614 294.196 176.268 294.196 177C294.196 177.804 293.968 178.53 293.512 179.178C293.068 179.826 292.384 180.522 291.46 181.266L288.904 183.858H294.034C294.166 183.858 294.268 183.9 294.34 183.984C294.424 184.056 294.466 184.158 294.466 184.29V185.568C294.466 185.688 294.424 185.79 294.34 185.874C294.268 185.958 294.166 186 294.034 186H285.43ZM302.319 186C302.199 186 302.097 185.958 302.013 185.874C301.929 185.79 301.887 185.688 301.887 185.568V183.264H296.181C296.061 183.264 295.959 183.222 295.875 183.138C295.791 183.054 295.749 182.952 295.749 182.832V181.608C295.749 181.416 295.815 181.236 295.947 181.068L301.257 173.706C301.317 173.61 301.407 173.538 301.527 173.49C301.647 173.43 301.779 173.4 301.923 173.4H303.885C304.017 173.4 304.119 173.442 304.191 173.526C304.275 173.598 304.317 173.7 304.317 173.832V181.14H305.919C306.051 181.14 306.159 181.182 306.243 181.266C306.327 181.338 306.369 181.44 306.369 181.572V182.832C306.369 182.952 306.327 183.054 306.243 183.138C306.159 183.222 306.057 183.264 305.937 183.264H304.317V185.568C304.317 185.688 304.275 185.79 304.191 185.874C304.119 185.958 304.017 186 303.885 186H302.319ZM301.941 181.212V176.01L298.251 181.212H301.941ZM220.742 204.18C219.734 204.18 218.852 203.988 218.096 203.604C217.34 203.22 216.758 202.698 216.35 202.038C215.942 201.366 215.738 200.61 215.738 199.77C215.738 198.702 216.2 197.538 217.124 196.278L220.418 191.76C220.49 191.652 220.568 191.568 220.652 191.508C220.748 191.436 220.874 191.4 221.03 191.4H222.704C222.812 191.4 222.902 191.442 222.974 191.526C223.046 191.598 223.082 191.688 223.082 191.796C223.082 191.856 223.052 191.934 222.992 192.03L220.472 195.522C220.712 195.462 220.97 195.432 221.246 195.432C222.05 195.456 222.788 195.66 223.46 196.044C224.144 196.416 224.684 196.926 225.08 197.574C225.488 198.222 225.692 198.942 225.692 199.734C225.692 200.538 225.488 201.282 225.08 201.966C224.684 202.638 224.108 203.178 223.352 203.586C222.608 203.982 221.738 204.18 220.742 204.18ZM220.724 202.11C221.408 202.11 221.984 201.906 222.452 201.498C222.92 201.078 223.154 200.496 223.154 199.752C223.154 199.02 222.92 198.45 222.452 198.042C221.984 197.622 221.408 197.412 220.724 197.412C220.04 197.412 219.464 197.622 218.996 198.042C218.528 198.45 218.294 199.02 218.294 199.752C218.294 200.496 218.528 201.078 218.996 201.498C219.464 201.906 220.04 202.11 220.724 202.11ZM232.189 204.18C230.593 204.18 229.399 203.736 228.607 202.848C227.827 201.96 227.401 200.796 227.329 199.356C227.317 199.032 227.311 198.48 227.311 197.7C227.311 196.908 227.317 196.344 227.329 196.008C227.389 194.592 227.821 193.44 228.625 192.552C229.429 191.664 230.617 191.22 232.189 191.22C233.773 191.22 234.967 191.664 235.771 192.552C236.575 193.44 237.001 194.592 237.049 196.008C237.073 196.344 237.085 196.908 237.085 197.7C237.085 198.48 237.073 199.032 237.049 199.356C236.989 200.796 236.563 201.96 235.771 202.848C234.991 203.736 233.797 204.18 232.189 204.18ZM232.189 202.11C232.945 202.11 233.509 201.864 233.881 201.372C234.253 200.868 234.451 200.166 234.475 199.266C234.499 198.57 234.511 198.042 234.511 197.682C234.511 197.286 234.499 196.764 234.475 196.116C234.451 195.228 234.253 194.532 233.881 194.028C233.509 193.524 232.945 193.272 232.189 193.272C231.445 193.272 230.881 193.524 230.497 194.028C230.125 194.532 229.927 195.228 229.903 196.116C229.891 196.44 229.885 196.962 229.885 197.682C229.885 198.39 229.891 198.918 229.903 199.266C229.927 200.166 230.125 200.868 230.497 201.372C230.881 201.864 231.445 202.11 232.189 202.11ZM239.002 205.35C238.894 205.35 238.81 205.314 238.75 205.242C238.69 205.17 238.666 205.08 238.678 204.972L239.164 201.912C239.188 201.744 239.248 201.606 239.344 201.498C239.44 201.39 239.572 201.336 239.74 201.336H241.396C241.48 201.336 241.552 201.372 241.612 201.444C241.684 201.504 241.72 201.582 241.72 201.678C241.72 201.738 241.702 201.816 241.666 201.912L240.514 204.9C240.454 205.044 240.376 205.152 240.28 205.224C240.196 205.308 240.076 205.35 239.92 205.35H239.002ZM249.391 204C249.283 204 249.193 203.964 249.121 203.892C249.049 203.808 249.013 203.712 249.013 203.604C249.013 203.568 249.025 203.514 249.049 203.442L253.387 193.542H247.735C247.615 193.542 247.513 193.5 247.429 193.416C247.345 193.332 247.303 193.23 247.303 193.11V191.85C247.303 191.718 247.339 191.61 247.411 191.526C247.495 191.442 247.603 191.4 247.735 191.4H255.637C255.769 191.4 255.871 191.442 255.943 191.526C256.027 191.61 256.069 191.718 256.069 191.85V192.966C256.069 193.206 256.015 193.464 255.907 193.74L251.605 203.568C251.473 203.856 251.281 204 251.029 204H249.391ZM261.541 204C261.421 204 261.319 203.958 261.235 203.874C261.151 203.79 261.109 203.688 261.109 203.568V194.244L258.373 196.35C258.301 196.41 258.217 196.44 258.121 196.44C257.977 196.44 257.857 196.374 257.761 196.242L257.005 195.27C256.945 195.174 256.915 195.084 256.915 195C256.915 194.856 256.981 194.736 257.113 194.64L261.145 191.526C261.253 191.442 261.403 191.4 261.595 191.4H263.179C263.311 191.4 263.413 191.442 263.485 191.526C263.569 191.598 263.611 191.7 263.611 191.832V203.568C263.611 203.688 263.569 203.79 263.485 203.874C263.413 203.958 263.311 204 263.179 204H261.541ZM265.967 205.35C265.859 205.35 265.775 205.314 265.715 205.242C265.655 205.17 265.631 205.08 265.643 204.972L266.129 201.912C266.153 201.744 266.213 201.606 266.309 201.498C266.405 201.39 266.537 201.336 266.705 201.336H268.361C268.445 201.336 268.517 201.372 268.577 201.444C268.649 201.504 268.685 201.582 268.685 201.678C268.685 201.738 268.667 201.816 268.631 201.912L267.479 204.9C267.419 205.044 267.341 205.152 267.245 205.224C267.161 205.308 267.041 205.35 266.885 205.35H265.967ZM276.356 204C276.248 204 276.158 203.964 276.086 203.892C276.014 203.808 275.978 203.712 275.978 203.604C275.978 203.568 275.99 203.514 276.014 203.442L280.352 193.542H274.7C274.58 193.542 274.478 193.5 274.394 193.416C274.31 193.332 274.268 193.23 274.268 193.11V191.85C274.268 191.718 274.304 191.61 274.376 191.526C274.46 191.442 274.568 191.4 274.7 191.4H282.602C282.734 191.4 282.836 191.442 282.908 191.526C282.992 191.61 283.034 191.718 283.034 191.85V192.966C283.034 193.206 282.98 193.464 282.872 193.74L278.57 203.568C278.438 203.856 278.246 204 277.994 204H276.356ZM288.734 204.18C287.726 204.18 286.844 203.988 286.088 203.604C285.332 203.22 284.75 202.698 284.342 202.038C283.934 201.366 283.73 200.61 283.73 199.77C283.73 198.702 284.192 197.538 285.116 196.278L288.41 191.76C288.482 191.652 288.56 191.568 288.644 191.508C288.74 191.436 288.866 191.4 289.022 191.4H290.696C290.804 191.4 290.894 191.442 290.966 191.526C291.038 191.598 291.074 191.688 291.074 191.796C291.074 191.856 291.044 191.934 290.984 192.03L288.464 195.522C288.704 195.462 288.962 195.432 289.238 195.432C290.042 195.456 290.78 195.66 291.452 196.044C292.136 196.416 292.676 196.926 293.072 197.574C293.48 198.222 293.684 198.942 293.684 199.734C293.684 200.538 293.48 201.282 293.072 201.966C292.676 202.638 292.1 203.178 291.344 203.586C290.6 203.982 289.73 204.18 288.734 204.18ZM288.716 202.11C289.4 202.11 289.976 201.906 290.444 201.498C290.912 201.078 291.146 200.496 291.146 199.752C291.146 199.02 290.912 198.45 290.444 198.042C289.976 197.622 289.4 197.412 288.716 197.412C288.032 197.412 287.456 197.622 286.988 198.042C286.52 198.45 286.286 199.02 286.286 199.752C286.286 200.496 286.52 201.078 286.988 201.498C287.456 201.906 288.032 202.11 288.716 202.11ZM218.312 222C218.204 222 218.114 221.964 218.042 221.892C217.97 221.808 217.934 221.712 217.934 221.604C217.934 221.52 217.958 221.442 218.006 221.37L220.652 217.716C220.388 217.776 220.142 217.8 219.914 217.788C219.11 217.764 218.378 217.566 217.718 217.194C217.058 216.822 216.536 216.318 216.152 215.682C215.78 215.046 215.594 214.35 215.594 213.594C215.594 212.838 215.78 212.13 216.152 211.47C216.524 210.798 217.076 210.258 217.808 209.85C218.54 209.43 219.422 209.22 220.454 209.22C221.486 209.22 222.374 209.418 223.118 209.814C223.862 210.198 224.42 210.72 224.792 211.38C225.176 212.028 225.368 212.742 225.368 213.522C225.368 214.002 225.29 214.458 225.134 214.89C224.978 215.322 224.798 215.7 224.594 216.024C224.402 216.336 224.126 216.744 223.766 217.248L220.598 221.64C220.526 221.748 220.442 221.838 220.346 221.91C220.262 221.97 220.142 222 219.986 222H218.312ZM220.472 215.88C221.132 215.88 221.684 215.676 222.128 215.268C222.584 214.848 222.812 214.29 222.812 213.594C222.812 212.898 222.584 212.34 222.128 211.92C221.684 211.5 221.132 211.29 220.472 211.29C219.812 211.29 219.254 211.5 218.798 211.92C218.354 212.34 218.132 212.898 218.132 213.594C218.132 214.29 218.354 214.848 218.798 215.268C219.242 215.676 219.8 215.88 220.472 215.88ZM232.013 222.18C230.969 222.18 230.069 222.018 229.313 221.694C228.569 221.358 227.999 220.896 227.603 220.308C227.207 219.72 227.009 219.048 227.009 218.292C227.009 217.62 227.177 217.026 227.513 216.51C227.849 215.982 228.299 215.58 228.863 215.304C228.419 215.028 228.071 214.674 227.819 214.242C227.579 213.798 227.459 213.294 227.459 212.73C227.459 211.674 227.855 210.828 228.647 210.192C229.451 209.544 230.573 209.22 232.013 209.22C233.441 209.22 234.551 209.538 235.343 210.174C236.135 210.81 236.531 211.656 236.531 212.712C236.531 213.276 236.411 213.78 236.171 214.224C235.943 214.656 235.607 215.016 235.163 215.304C235.739 215.58 236.189 215.982 236.513 216.51C236.849 217.026 237.017 217.626 237.017 218.31C237.017 219.066 236.819 219.738 236.423 220.326C236.027 220.914 235.451 221.37 234.695 221.694C233.939 222.018 233.045 222.18 232.013 222.18ZM232.013 214.53C232.637 214.518 233.153 214.356 233.561 214.044C233.981 213.732 234.191 213.324 234.191 212.82C234.191 212.292 233.987 211.872 233.579 211.56C233.171 211.248 232.649 211.092 232.013 211.092C231.377 211.092 230.855 211.248 230.447 211.56C230.039 211.872 229.835 212.292 229.835 212.82C229.835 213.336 230.039 213.75 230.447 214.062C230.855 214.374 231.377 214.53 232.013 214.53ZM232.013 220.308C232.721 220.308 233.315 220.128 233.795 219.768C234.275 219.396 234.515 218.91 234.515 218.31C234.515 217.71 234.275 217.23 233.795 216.87C233.315 216.498 232.721 216.312 232.013 216.312C231.293 216.312 230.693 216.492 230.213 216.852C229.745 217.212 229.511 217.698 229.511 218.31C229.511 218.922 229.745 219.408 230.213 219.768C230.693 220.128 231.293 220.308 232.013 220.308ZM244.294 222.18C243.058 222.18 242.098 221.754 241.414 220.902V221.568C241.414 221.688 241.372 221.79 241.288 221.874C241.216 221.958 241.114 222 240.982 222H239.56C239.44 222 239.338 221.958 239.254 221.874C239.17 221.79 239.128 221.688 239.128 221.568V209.652C239.128 209.52 239.17 209.418 239.254 209.346C239.338 209.262 239.44 209.22 239.56 209.22H241.09C241.222 209.22 241.324 209.262 241.396 209.346C241.48 209.418 241.522 209.52 241.522 209.652V213.648C242.206 212.856 243.13 212.46 244.294 212.46C245.506 212.46 246.436 212.856 247.084 213.648C247.732 214.44 248.08 215.466 248.128 216.726C248.14 216.87 248.146 217.062 248.146 217.302C248.146 217.554 248.14 217.752 248.128 217.896C248.08 219.192 247.732 220.23 247.084 221.01C246.436 221.79 245.506 222.18 244.294 222.18ZM243.628 220.254C244.924 220.254 245.614 219.456 245.698 217.86C245.71 217.74 245.716 217.56 245.716 217.32C245.716 217.08 245.71 216.9 245.698 216.78C245.614 215.184 244.924 214.386 243.628 214.386C242.956 214.386 242.44 214.602 242.08 215.034C241.732 215.454 241.546 215.964 241.522 216.564L241.504 217.248L241.522 217.95C241.558 218.598 241.744 219.144 242.08 219.588C242.416 220.032 242.932 220.254 243.628 220.254ZM254.469 222.198C253.473 222.198 252.615 222.03 251.895 221.694C251.187 221.358 250.641 220.914 250.257 220.362C249.885 219.81 249.687 219.216 249.663 218.58V218.544C249.663 218.448 249.699 218.37 249.771 218.31C249.843 218.25 249.933 218.22 250.041 218.22H251.715C251.991 218.22 252.171 218.34 252.255 218.58C252.423 219.108 252.699 219.498 253.083 219.75C253.479 220.002 253.941 220.128 254.469 220.128C255.141 220.128 255.699 219.924 256.143 219.516C256.599 219.108 256.827 218.538 256.827 217.806C256.827 217.158 256.599 216.63 256.143 216.222C255.699 215.814 255.141 215.61 254.469 215.61C254.109 215.61 253.815 215.658 253.587 215.754C253.359 215.85 253.137 215.982 252.921 216.15C252.777 216.258 252.663 216.336 252.579 216.384C252.507 216.42 252.417 216.438 252.309 216.438H250.653C250.545 216.438 250.449 216.402 250.365 216.33C250.293 216.246 250.257 216.15 250.257 216.042L250.887 209.886C250.899 209.742 250.947 209.628 251.031 209.544C251.127 209.448 251.247 209.4 251.391 209.4H258.159C258.279 209.4 258.381 209.442 258.465 209.526C258.549 209.61 258.591 209.712 258.591 209.832V211.038C258.591 211.158 258.549 211.26 258.465 211.344C258.381 211.428 258.279 211.47 258.159 211.47H252.957L252.669 214.404C253.257 213.996 254.043 213.792 255.027 213.792C255.807 213.792 256.527 213.96 257.187 214.296C257.859 214.62 258.393 215.094 258.789 215.718C259.185 216.33 259.383 217.044 259.383 217.86C259.383 218.736 259.179 219.504 258.771 220.164C258.363 220.812 257.787 221.316 257.043 221.676C256.311 222.024 255.453 222.198 254.469 222.198ZM265.361 222.18C264.041 222.18 262.985 221.814 262.193 221.082C261.413 220.35 260.999 219.336 260.951 218.04L260.933 217.32L260.951 216.6C260.999 215.304 261.413 214.29 262.193 213.558C262.985 212.826 264.041 212.46 265.361 212.46C266.297 212.46 267.089 212.628 267.737 212.964C268.397 213.3 268.883 213.714 269.195 214.206C269.519 214.686 269.693 215.142 269.717 215.574C269.729 215.694 269.687 215.796 269.591 215.88C269.507 215.964 269.405 216.006 269.285 216.006H267.701C267.581 216.006 267.485 215.982 267.413 215.934C267.353 215.874 267.293 215.778 267.233 215.646C267.053 215.178 266.813 214.842 266.513 214.638C266.225 214.434 265.853 214.332 265.397 214.332C264.785 214.332 264.305 214.53 263.957 214.926C263.609 215.31 263.423 215.898 263.399 216.69L263.381 217.356L263.399 217.95C263.447 219.522 264.113 220.308 265.397 220.308C265.865 220.308 266.243 220.206 266.531 220.002C266.819 219.798 267.053 219.462 267.233 218.994C267.293 218.862 267.353 218.772 267.413 218.724C267.485 218.664 267.581 218.634 267.701 218.634H269.285C269.405 218.634 269.507 218.676 269.591 218.76C269.687 218.844 269.729 218.946 269.717 219.066C269.693 219.486 269.525 219.936 269.213 220.416C268.901 220.896 268.421 221.31 267.773 221.658C267.125 222.006 266.321 222.18 265.361 222.18ZM276.004 222.18C274.948 222.18 274.048 222.012 273.304 221.676C272.572 221.34 272.02 220.92 271.648 220.416C271.288 219.9 271.096 219.372 271.072 218.832C271.072 218.724 271.108 218.64 271.18 218.58C271.264 218.508 271.36 218.472 271.468 218.472H273.088C273.352 218.472 273.526 218.592 273.61 218.832C273.874 219.696 274.678 220.128 276.022 220.128C276.754 220.128 277.33 219.96 277.75 219.624C278.17 219.276 278.38 218.784 278.38 218.148C278.38 216.948 277.63 216.348 276.13 216.348H274.276C274.144 216.348 274.036 216.306 273.952 216.222C273.868 216.138 273.826 216.036 273.826 215.916V215.16C273.826 214.968 273.91 214.788 274.078 214.62L277.3 211.47H272.152C272.032 211.47 271.93 211.428 271.846 211.344C271.762 211.26 271.72 211.158 271.72 211.038V209.85C271.72 209.718 271.756 209.61 271.828 209.526C271.912 209.442 272.02 209.4 272.152 209.4H279.874C280.006 209.4 280.114 209.442 280.198 209.526C280.282 209.61 280.324 209.718 280.324 209.85V210.93C280.324 211.11 280.246 211.278 280.09 211.434L276.976 214.638L277.192 214.656C278.344 214.752 279.256 215.1 279.928 215.7C280.612 216.3 280.954 217.158 280.954 218.274C280.954 219.066 280.738 219.756 280.306 220.344C279.886 220.932 279.298 221.388 278.542 221.712C277.798 222.024 276.952 222.18 276.004 222.18Z" fill="#98B5C3"/>
</svg>
