<svg width="755" height="755" viewBox="0 0 755 755" fill="none" xmlns="http://www.w3.org/2000/svg">
<path d="M624.888 266.294C627.688 256.448 629.167 246.224 629.167 235.937C629.167 178.777 585.377 131.652 529.57 126.336C516.735 89.4668 481.627 62.916 440.417 62.916C416.162 62.916 394.236 72.385 377.5 87.4535C360.764 72.385 338.838 62.916 314.583 62.916C273.656 62.916 238.769 89.0579 225.714 126.305C169.749 131.495 125.833 178.683 125.833 235.937C125.833 246.224 127.312 256.448 130.112 266.294C90.0023 287.623 62.9166 330.155 62.9166 377.499C62.9166 411.317 76.3808 443.121 99.7858 466.589C96.231 478.418 94.375 490.844 94.375 503.333C94.375 564.897 138.794 616.268 198.376 627.09C215.804 665.815 254.938 692.083 298.854 692.083C329.652 692.083 357.492 679.279 377.5 658.768C397.507 679.279 425.348 692.083 456.146 692.083C499.999 692.083 539.039 665.941 556.498 627.279C615.577 616.96 660.625 565.306 660.625 503.333C660.625 490.844 658.769 478.418 655.214 466.589C678.619 443.121 692.083 411.317 692.083 377.499C692.083 330.155 664.998 287.623 624.888 266.294ZM298.854 629.166C276.487 629.166 257.015 613.311 252.61 591.479L245.941 566.249H220.208C185.51 566.249 157.292 538.031 157.292 503.333C157.292 492.259 159.966 481.878 165.251 472.472L179.596 446.802L154.932 430.758C136.718 418.867 125.833 398.985 125.833 377.499C125.833 346.765 148.578 320.119 178.746 315.464L232.005 307.284L198.691 264.941C192.273 256.762 188.75 246.475 188.75 235.937C188.75 209.921 209.921 188.749 235.937 188.749C239.272 188.749 242.67 189.19 245.815 189.756L283.125 195.261V157.291C283.125 139.926 297.218 125.833 314.583 125.833C331.948 125.833 346.042 139.926 346.042 157.291V581.979C346.042 607.995 324.87 629.166 298.854 629.166ZM600.068 430.727L575.404 446.771L589.749 472.441C595.034 481.878 597.708 492.259 597.708 503.333C597.708 538.031 569.49 566.249 533.219 566.249H507.486L502.39 591.479C497.985 613.311 478.513 629.166 456.146 629.166C430.13 629.166 408.958 607.995 408.958 581.979V157.291C408.958 139.926 423.052 125.833 440.417 125.833C457.782 125.833 471.875 139.926 471.875 158.864V196.834L509.185 189.756C512.33 189.19 515.728 188.749 519.062 188.749C545.079 188.749 566.25 209.921 566.25 235.937C566.25 246.475 562.727 256.762 556.309 264.941L522.995 307.316L576.254 315.495C606.422 320.119 629.167 346.765 629.167 377.499C629.167 398.985 618.282 418.867 600.068 430.727Z" fill="black"/>
</svg>
