<svg width="755" height="755" viewBox="0 0 755 755" fill="none" xmlns="http://www.w3.org/2000/svg">
<path d="M660.625 125.833C660.625 91.1341 632.407 62.916 597.708 62.916H157.292C122.593 62.916 94.375 91.1341 94.375 125.833V629.166C94.375 663.865 122.593 692.083 157.292 692.083H597.708C632.407 692.083 660.625 663.865 660.625 629.166V125.833ZM157.292 125.833H597.708V346.041H157.292V125.833ZM157.292 629.166V408.958H597.74V629.166H157.292Z" fill="black"/>
<path d="M440.417 220.208H314.583V188.75H251.667V283.125H503.333V188.75H440.417V220.208ZM440.417 471.875V503.333H314.583V471.875H251.667V566.25H503.333V471.875H440.417Z" fill="black"/>
</svg>
