<svg width="755" height="755" viewBox="0 0 755 755" fill="none" xmlns="http://www.w3.org/2000/svg">
<path d="M597.708 125.833H534.792V62.916H471.875V125.833H283.125V62.916H220.208V125.833H157.292C122.593 125.833 94.375 154.051 94.375 188.749V251.666V629.166C94.375 663.865 122.593 692.083 157.292 692.083H597.708C632.407 692.083 660.625 663.865 660.625 629.166V251.666V188.749C660.625 154.051 632.407 125.833 597.708 125.833ZM597.771 629.166H157.292V251.666H597.708L597.771 629.166Z" fill="black"/>
<path d="M346.041 547.814L525.574 368.281L481.092 323.799L346.041 458.849L273.907 386.716L229.425 431.198L346.041 547.814Z" fill="black"/>
</svg>
