<svg width="755" height="755" viewBox="0 0 755 755" fill="none" xmlns="http://www.w3.org/2000/svg">
<path d="M314.583 94.375H125.833C108.437 94.375 94.375 108.437 94.375 125.833V314.583C94.375 331.98 108.437 346.042 125.833 346.042H314.583C331.98 346.042 346.042 331.98 346.042 314.583V125.833C346.042 108.437 331.98 94.375 314.583 94.375ZM283.125 283.125H157.292V157.292H283.125V283.125ZM629.167 408.958H440.417C423.02 408.958 408.958 423.02 408.958 440.417V629.167C408.958 646.563 423.02 660.625 440.417 660.625H629.167C646.563 660.625 660.625 646.563 660.625 629.167V440.417C660.625 423.02 646.563 408.958 629.167 408.958ZM597.708 597.708H471.875V471.875H597.708V597.708ZM534.792 94.375C465.395 94.375 408.958 150.811 408.958 220.208C408.958 289.605 465.395 346.042 534.792 346.042C604.189 346.042 660.625 289.605 660.625 220.208C660.625 150.811 604.189 94.375 534.792 94.375ZM534.792 283.125C500.093 283.125 471.875 254.907 471.875 220.208C471.875 185.51 500.093 157.292 534.792 157.292C569.49 157.292 597.708 185.51 597.708 220.208C597.708 254.907 569.49 283.125 534.792 283.125ZM220.208 408.958C150.811 408.958 94.375 465.395 94.375 534.792C94.375 604.189 150.811 660.625 220.208 660.625C289.605 660.625 346.042 604.189 346.042 534.792C346.042 465.395 289.605 408.958 220.208 408.958ZM220.208 597.708C185.51 597.708 157.292 569.49 157.292 534.792C157.292 500.093 185.51 471.875 220.208 471.875C254.907 471.875 283.125 500.093 283.125 534.792C283.125 569.49 254.907 597.708 220.208 597.708Z" fill="black"/>
</svg>
