<svg width="755" height="755" viewBox="0 0 755 755" fill="none" xmlns="http://www.w3.org/2000/svg">
<path d="M125.931 660.643C128.479 660.643 131.027 660.329 133.544 659.7L259.377 628.241C264.914 626.857 269.978 623.995 274.005 619.968L660.722 233.251C672.614 221.359 679.157 205.567 679.157 188.769C679.157 171.97 672.614 156.178 660.722 144.286L610.829 94.3935C587.047 70.611 545.648 70.611 521.865 94.3935L135.148 481.111C131.121 485.138 128.259 490.202 126.874 495.707L95.4161 621.541C92.7107 632.268 95.888 643.593 103.69 651.426C109.635 657.403 117.689 660.643 125.931 660.643ZM566.347 138.876L616.24 188.769L566.347 238.661L516.454 188.769L566.347 138.876ZM185.796 519.427L471.972 233.251L521.865 283.144L235.657 569.32L169.154 585.93L185.796 519.427Z" fill="black"/>
</svg>
