<svg width="755" height="755" viewBox="0 0 755 755" fill="none" xmlns="http://www.w3.org/2000/svg">
<path d="M629.167 62.916H251.667C216.968 62.916 188.75 91.1341 188.75 125.833V503.333C188.75 538.031 216.968 566.249 251.667 566.249H629.167C663.865 566.249 692.083 538.031 692.083 503.333V125.833C692.083 91.1341 663.865 62.916 629.167 62.916ZM251.667 503.333V125.833H629.167L629.23 503.333H251.667Z" fill="black"/>
<path d="M125.833 251.678H62.9167V629.178C62.9167 663.876 91.1349 692.095 125.833 692.095H503.333V629.178H125.833V251.678ZM406.851 362.38L352.554 308.083L308.072 352.565L411.066 455.559L590.441 240.384L542.059 200.055L406.851 362.38Z" fill="black"/>
</svg>
