<svg width="310" height="225" viewBox="0 0 310 225" fill="none" xmlns="http://www.w3.org/2000/svg">
<path fill-rule="evenodd" clip-rule="evenodd" d="M193.758 10.2789L227.401 1.46468C259.103 -6.8408 288.113 21.5229 279.618 52.5198L270.507 85.7677C277.701 102.685 281.681 121.298 281.681 140.841C281.681 140.894 281.681 140.947 281.681 141H227.512C227.512 140.947 227.512 140.894 227.512 140.841C227.512 92.9735 188.708 54.1695 140.841 54.1695C92.9735 54.1695 54.1695 92.9735 54.1695 140.841C54.1695 140.894 54.1695 140.947 54.1696 141H8.82511e-05C2.94222e-05 140.947 0 140.894 0 140.841C0 63.0565 63.0565 1.68838e-08 140.841 1.68838e-08C159.557 1.68838e-08 177.42 3.65072 193.758 10.2789Z" fill="#1B2124"/>
<path d="M215.242 186C215.122 186 215.02 185.958 214.936 185.874C214.852 185.79 214.81 185.688 214.81 185.568V184.65C214.81 184.326 214.96 184.044 215.26 183.804L218.104 180.978C219.34 180.006 220.198 179.25 220.678 178.71C221.17 178.158 221.416 177.618 221.416 177.09C221.416 176.526 221.26 176.082 220.948 175.758C220.648 175.434 220.192 175.272 219.58 175.272C218.98 175.272 218.506 175.452 218.158 175.812C217.81 176.16 217.594 176.616 217.51 177.18C217.474 177.324 217.408 177.432 217.312 177.504C217.216 177.564 217.108 177.594 216.988 177.594H215.386C215.278 177.594 215.188 177.558 215.116 177.486C215.044 177.414 215.008 177.33 215.008 177.234C215.032 176.526 215.224 175.866 215.584 175.254C215.944 174.63 216.466 174.132 217.15 173.76C217.834 173.376 218.638 173.184 219.562 173.184C220.522 173.184 221.332 173.352 221.992 173.688C222.664 174.012 223.168 174.462 223.504 175.038C223.84 175.614 224.008 176.268 224.008 177C224.008 177.804 223.78 178.53 223.324 179.178C222.88 179.826 222.196 180.522 221.272 181.266L218.716 183.858H223.846C223.978 183.858 224.08 183.9 224.152 183.984C224.236 184.056 224.278 184.158 224.278 184.29V185.568C224.278 185.688 224.236 185.79 224.152 185.874C224.08 185.958 223.978 186 223.846 186H215.242ZM230.653 186.198C229.657 186.198 228.799 186.03 228.079 185.694C227.371 185.358 226.825 184.914 226.441 184.362C226.069 183.81 225.871 183.216 225.847 182.58V182.544C225.847 182.448 225.883 182.37 225.955 182.31C226.027 182.25 226.117 182.22 226.225 182.22H227.899C228.175 182.22 228.355 182.34 228.439 182.58C228.607 183.108 228.883 183.498 229.267 183.75C229.663 184.002 230.125 184.128 230.653 184.128C231.325 184.128 231.883 183.924 232.327 183.516C232.783 183.108 233.011 182.538 233.011 181.806C233.011 181.158 232.783 180.63 232.327 180.222C231.883 179.814 231.325 179.61 230.653 179.61C230.293 179.61 229.999 179.658 229.771 179.754C229.543 179.85 229.321 179.982 229.105 180.15C228.961 180.258 228.847 180.336 228.763 180.384C228.691 180.42 228.601 180.438 228.493 180.438H226.837C226.729 180.438 226.633 180.402 226.549 180.33C226.477 180.246 226.441 180.15 226.441 180.042L227.071 173.886C227.083 173.742 227.131 173.628 227.215 173.544C227.311 173.448 227.431 173.4 227.575 173.4H234.343C234.463 173.4 234.565 173.442 234.649 173.526C234.733 173.61 234.775 173.712 234.775 173.832V175.038C234.775 175.158 234.733 175.26 234.649 175.344C234.565 175.428 234.463 175.47 234.343 175.47H229.141L228.853 178.404C229.441 177.996 230.227 177.792 231.211 177.792C231.991 177.792 232.711 177.96 233.371 178.296C234.043 178.62 234.577 179.094 234.973 179.718C235.369 180.33 235.567 181.044 235.567 181.86C235.567 182.736 235.363 183.504 234.955 184.164C234.547 184.812 233.971 185.316 233.227 185.676C232.495 186.024 231.637 186.198 230.653 186.198ZM237.264 187.35C237.156 187.35 237.072 187.314 237.012 187.242C236.952 187.17 236.928 187.08 236.94 186.972L237.426 183.912C237.45 183.744 237.51 183.606 237.606 183.498C237.702 183.39 237.834 183.336 238.002 183.336H239.658C239.742 183.336 239.814 183.372 239.874 183.444C239.946 183.504 239.982 183.582 239.982 183.678C239.982 183.738 239.964 183.816 239.928 183.912L238.776 186.9C238.716 187.044 238.638 187.152 238.542 187.224C238.458 187.308 238.338 187.35 238.182 187.35H237.264ZM250.947 186.18C249.903 186.18 249.003 186.018 248.247 185.694C247.503 185.358 246.933 184.896 246.537 184.308C246.141 183.72 245.943 183.048 245.943 182.292C245.943 181.62 246.111 181.026 246.447 180.51C246.783 179.982 247.233 179.58 247.797 179.304C247.353 179.028 247.005 178.674 246.753 178.242C246.513 177.798 246.393 177.294 246.393 176.73C246.393 175.674 246.789 174.828 247.581 174.192C248.385 173.544 249.507 173.22 250.947 173.22C252.375 173.22 253.485 173.538 254.277 174.174C255.069 174.81 255.465 175.656 255.465 176.712C255.465 177.276 255.345 177.78 255.105 178.224C254.877 178.656 254.541 179.016 254.097 179.304C254.673 179.58 255.123 179.982 255.447 180.51C255.783 181.026 255.951 181.626 255.951 182.31C255.951 183.066 255.753 183.738 255.357 184.326C254.961 184.914 254.385 185.37 253.629 185.694C252.873 186.018 251.979 186.18 250.947 186.18ZM250.947 178.53C251.571 178.518 252.087 178.356 252.495 178.044C252.915 177.732 253.125 177.324 253.125 176.82C253.125 176.292 252.921 175.872 252.513 175.56C252.105 175.248 251.583 175.092 250.947 175.092C250.311 175.092 249.789 175.248 249.381 175.56C248.973 175.872 248.769 176.292 248.769 176.82C248.769 177.336 248.973 177.75 249.381 178.062C249.789 178.374 250.311 178.53 250.947 178.53ZM250.947 184.308C251.655 184.308 252.249 184.128 252.729 183.768C253.209 183.396 253.449 182.91 253.449 182.31C253.449 181.71 253.209 181.23 252.729 180.87C252.249 180.498 251.655 180.312 250.947 180.312C250.227 180.312 249.627 180.492 249.147 180.852C248.679 181.212 248.445 181.698 248.445 182.31C248.445 182.922 248.679 183.408 249.147 183.768C249.627 184.128 250.227 184.308 250.947 184.308ZM257.812 187.35C257.704 187.35 257.62 187.314 257.56 187.242C257.5 187.17 257.476 187.08 257.488 186.972L257.974 183.912C257.998 183.744 258.058 183.606 258.154 183.498C258.25 183.39 258.382 183.336 258.55 183.336H260.206C260.29 183.336 260.362 183.372 260.422 183.444C260.494 183.504 260.53 183.582 260.53 183.678C260.53 183.738 260.512 183.816 260.476 183.912L259.324 186.9C259.264 187.044 259.186 187.152 259.09 187.224C259.006 187.308 258.886 187.35 258.73 187.35H257.812ZM271.496 186.18C269.9 186.18 268.706 185.736 267.914 184.848C267.134 183.96 266.708 182.796 266.636 181.356C266.624 181.032 266.618 180.48 266.618 179.7C266.618 178.908 266.624 178.344 266.636 178.008C266.696 176.592 267.128 175.44 267.932 174.552C268.736 173.664 269.924 173.22 271.496 173.22C273.08 173.22 274.274 173.664 275.078 174.552C275.882 175.44 276.308 176.592 276.356 178.008C276.38 178.344 276.392 178.908 276.392 179.7C276.392 180.48 276.38 181.032 276.356 181.356C276.296 182.796 275.87 183.96 275.078 184.848C274.298 185.736 273.104 186.18 271.496 186.18ZM271.496 184.11C272.252 184.11 272.816 183.864 273.188 183.372C273.56 182.868 273.758 182.166 273.782 181.266C273.806 180.57 273.818 180.042 273.818 179.682C273.818 179.286 273.806 178.764 273.782 178.116C273.758 177.228 273.56 176.532 273.188 176.028C272.816 175.524 272.252 175.272 271.496 175.272C270.752 175.272 270.188 175.524 269.804 176.028C269.432 176.532 269.234 177.228 269.21 178.116C269.198 178.44 269.192 178.962 269.192 179.682C269.192 180.39 269.198 180.918 269.21 181.266C269.234 182.166 269.432 182.868 269.804 183.372C270.188 183.864 270.752 184.11 271.496 184.11ZM278.309 187.35C278.201 187.35 278.117 187.314 278.057 187.242C277.997 187.17 277.973 187.08 277.985 186.972L278.471 183.912C278.495 183.744 278.555 183.606 278.651 183.498C278.747 183.39 278.879 183.336 279.047 183.336H280.703C280.787 183.336 280.859 183.372 280.919 183.444C280.991 183.504 281.027 183.582 281.027 183.678C281.027 183.738 281.009 183.816 280.973 183.912L279.821 186.9C279.761 187.044 279.683 187.152 279.587 187.224C279.503 187.308 279.383 187.35 279.227 187.35H278.309ZM291.992 186.18C290.948 186.18 290.048 186.018 289.292 185.694C288.548 185.358 287.978 184.896 287.582 184.308C287.186 183.72 286.988 183.048 286.988 182.292C286.988 181.62 287.156 181.026 287.492 180.51C287.828 179.982 288.278 179.58 288.842 179.304C288.398 179.028 288.05 178.674 287.798 178.242C287.558 177.798 287.438 177.294 287.438 176.73C287.438 175.674 287.834 174.828 288.626 174.192C289.43 173.544 290.552 173.22 291.992 173.22C293.42 173.22 294.53 173.538 295.322 174.174C296.114 174.81 296.51 175.656 296.51 176.712C296.51 177.276 296.39 177.78 296.15 178.224C295.922 178.656 295.586 179.016 295.142 179.304C295.718 179.58 296.168 179.982 296.492 180.51C296.828 181.026 296.996 181.626 296.996 182.31C296.996 183.066 296.798 183.738 296.402 184.326C296.006 184.914 295.43 185.37 294.674 185.694C293.918 186.018 293.024 186.18 291.992 186.18ZM291.992 178.53C292.616 178.518 293.132 178.356 293.54 178.044C293.96 177.732 294.17 177.324 294.17 176.82C294.17 176.292 293.966 175.872 293.558 175.56C293.15 175.248 292.628 175.092 291.992 175.092C291.356 175.092 290.834 175.248 290.426 175.56C290.018 175.872 289.814 176.292 289.814 176.82C289.814 177.336 290.018 177.75 290.426 178.062C290.834 178.374 291.356 178.53 291.992 178.53ZM291.992 184.308C292.7 184.308 293.294 184.128 293.774 183.768C294.254 183.396 294.494 182.91 294.494 182.31C294.494 181.71 294.254 181.23 293.774 180.87C293.294 180.498 292.7 180.312 291.992 180.312C291.272 180.312 290.672 180.492 290.192 180.852C289.724 181.212 289.49 181.698 289.49 182.31C289.49 182.922 289.724 183.408 290.192 183.768C290.672 184.128 291.272 184.308 291.992 184.308ZM303.642 186.18C302.634 186.18 301.752 185.988 300.996 185.604C300.24 185.22 299.658 184.698 299.25 184.038C298.842 183.366 298.638 182.61 298.638 181.77C298.638 180.702 299.1 179.538 300.024 178.278L303.318 173.76C303.39 173.652 303.468 173.568 303.552 173.508C303.648 173.436 303.774 173.4 303.93 173.4H305.604C305.712 173.4 305.802 173.442 305.874 173.526C305.946 173.598 305.982 173.688 305.982 173.796C305.982 173.856 305.952 173.934 305.892 174.03L303.372 177.522C303.612 177.462 303.87 177.432 304.146 177.432C304.95 177.456 305.688 177.66 306.36 178.044C307.044 178.416 307.584 178.926 307.98 179.574C308.388 180.222 308.592 180.942 308.592 181.734C308.592 182.538 308.388 183.282 307.98 183.966C307.584 184.638 307.008 185.178 306.252 185.586C305.508 185.982 304.638 186.18 303.642 186.18ZM303.624 184.11C304.308 184.11 304.884 183.906 305.352 183.498C305.82 183.078 306.054 182.496 306.054 181.752C306.054 181.02 305.82 180.45 305.352 180.042C304.884 179.622 304.308 179.412 303.624 179.412C302.94 179.412 302.364 179.622 301.896 180.042C301.428 180.45 301.194 181.02 301.194 181.752C301.194 182.496 301.428 183.078 301.896 183.498C302.364 183.906 302.94 184.11 303.624 184.11ZM215.242 204C215.122 204 215.02 203.958 214.936 203.874C214.852 203.79 214.81 203.688 214.81 203.568V202.65C214.81 202.326 214.96 202.044 215.26 201.804L218.104 198.978C219.34 198.006 220.198 197.25 220.678 196.71C221.17 196.158 221.416 195.618 221.416 195.09C221.416 194.526 221.26 194.082 220.948 193.758C220.648 193.434 220.192 193.272 219.58 193.272C218.98 193.272 218.506 193.452 218.158 193.812C217.81 194.16 217.594 194.616 217.51 195.18C217.474 195.324 217.408 195.432 217.312 195.504C217.216 195.564 217.108 195.594 216.988 195.594H215.386C215.278 195.594 215.188 195.558 215.116 195.486C215.044 195.414 215.008 195.33 215.008 195.234C215.032 194.526 215.224 193.866 215.584 193.254C215.944 192.63 216.466 192.132 217.15 191.76C217.834 191.376 218.638 191.184 219.562 191.184C220.522 191.184 221.332 191.352 221.992 191.688C222.664 192.012 223.168 192.462 223.504 193.038C223.84 193.614 224.008 194.268 224.008 195C224.008 195.804 223.78 196.53 223.324 197.178C222.88 197.826 222.196 198.522 221.272 199.266L218.716 201.858H223.846C223.978 201.858 224.08 201.9 224.152 201.984C224.236 202.056 224.278 202.158 224.278 202.29V203.568C224.278 203.688 224.236 203.79 224.152 203.874C224.08 203.958 223.978 204 223.846 204H215.242ZM227.755 204C227.647 204 227.557 203.964 227.485 203.892C227.413 203.808 227.377 203.712 227.377 203.604C227.377 203.568 227.389 203.514 227.413 203.442L231.751 193.542H226.099C225.979 193.542 225.877 193.5 225.793 193.416C225.709 193.332 225.667 193.23 225.667 193.11V191.85C225.667 191.718 225.703 191.61 225.775 191.526C225.859 191.442 225.967 191.4 226.099 191.4H234.001C234.133 191.4 234.235 191.442 234.307 191.526C234.391 191.61 234.433 191.718 234.433 191.85V192.966C234.433 193.206 234.379 193.464 234.271 193.74L229.969 203.568C229.837 203.856 229.645 204 229.393 204H227.755ZM234.908 205.35C234.8 205.35 234.716 205.314 234.656 205.242C234.596 205.17 234.572 205.08 234.584 204.972L235.07 201.912C235.094 201.744 235.154 201.606 235.25 201.498C235.346 201.39 235.478 201.336 235.646 201.336H237.302C237.386 201.336 237.458 201.372 237.518 201.444C237.59 201.504 237.626 201.582 237.626 201.678C237.626 201.738 237.608 201.816 237.572 201.912L236.42 204.9C236.36 205.044 236.282 205.152 236.186 205.224C236.102 205.308 235.982 205.35 235.826 205.35H234.908ZM248.286 204.18C247.23 204.18 246.33 204.012 245.586 203.676C244.854 203.34 244.302 202.92 243.93 202.416C243.57 201.9 243.378 201.372 243.354 200.832C243.354 200.724 243.39 200.64 243.462 200.58C243.546 200.508 243.642 200.472 243.75 200.472H245.37C245.634 200.472 245.808 200.592 245.892 200.832C246.156 201.696 246.96 202.128 248.304 202.128C249.036 202.128 249.612 201.96 250.032 201.624C250.452 201.276 250.662 200.784 250.662 200.148C250.662 198.948 249.912 198.348 248.412 198.348H246.558C246.426 198.348 246.318 198.306 246.234 198.222C246.15 198.138 246.108 198.036 246.108 197.916V197.16C246.108 196.968 246.192 196.788 246.36 196.62L249.582 193.47H244.434C244.314 193.47 244.212 193.428 244.128 193.344C244.044 193.26 244.002 193.158 244.002 193.038V191.85C244.002 191.718 244.038 191.61 244.11 191.526C244.194 191.442 244.302 191.4 244.434 191.4H252.156C252.288 191.4 252.396 191.442 252.48 191.526C252.564 191.61 252.605 191.718 252.605 191.85V192.93C252.605 193.11 252.528 193.278 252.372 193.434L249.258 196.638L249.474 196.656C250.626 196.752 251.538 197.1 252.21 197.7C252.894 198.3 253.236 199.158 253.236 200.274C253.236 201.066 253.02 201.756 252.588 202.344C252.168 202.932 251.58 203.388 250.824 203.712C250.08 204.024 249.234 204.18 248.286 204.18ZM259.623 204.18C258.567 204.18 257.667 204.012 256.923 203.676C256.191 203.34 255.639 202.92 255.267 202.416C254.907 201.9 254.715 201.372 254.691 200.832C254.691 200.724 254.727 200.64 254.799 200.58C254.883 200.508 254.979 200.472 255.087 200.472H256.707C256.971 200.472 257.145 200.592 257.229 200.832C257.493 201.696 258.297 202.128 259.641 202.128C260.373 202.128 260.949 201.96 261.369 201.624C261.789 201.276 261.999 200.784 261.999 200.148C261.999 198.948 261.249 198.348 259.749 198.348H257.895C257.763 198.348 257.655 198.306 257.571 198.222C257.487 198.138 257.445 198.036 257.445 197.916V197.16C257.445 196.968 257.529 196.788 257.697 196.62L260.919 193.47H255.771C255.651 193.47 255.549 193.428 255.465 193.344C255.381 193.26 255.339 193.158 255.339 193.038V191.85C255.339 191.718 255.375 191.61 255.447 191.526C255.531 191.442 255.639 191.4 255.771 191.4H263.493C263.625 191.4 263.733 191.442 263.817 191.526C263.901 191.61 263.943 191.718 263.943 191.85V192.93C263.943 193.11 263.865 193.278 263.709 193.434L260.595 196.638L260.811 196.656C261.963 196.752 262.875 197.1 263.547 197.7C264.231 198.3 264.573 199.158 264.573 200.274C264.573 201.066 264.357 201.756 263.925 202.344C263.505 202.932 262.917 203.388 262.161 203.712C261.417 204.024 260.571 204.18 259.623 204.18ZM266.443 205.35C266.335 205.35 266.251 205.314 266.191 205.242C266.131 205.17 266.107 205.08 266.119 204.972L266.605 201.912C266.629 201.744 266.689 201.606 266.785 201.498C266.881 201.39 267.013 201.336 267.181 201.336H268.837C268.921 201.336 268.993 201.372 269.053 201.444C269.125 201.504 269.161 201.582 269.161 201.678C269.161 201.738 269.143 201.816 269.107 201.912L267.955 204.9C267.895 205.044 267.817 205.152 267.721 205.224C267.637 205.308 267.517 205.35 267.361 205.35H266.443ZM279.821 204.18C278.765 204.18 277.865 204.012 277.121 203.676C276.389 203.34 275.837 202.92 275.465 202.416C275.105 201.9 274.913 201.372 274.889 200.832C274.889 200.724 274.925 200.64 274.997 200.58C275.081 200.508 275.177 200.472 275.285 200.472H276.905C277.169 200.472 277.343 200.592 277.427 200.832C277.691 201.696 278.495 202.128 279.839 202.128C280.571 202.128 281.147 201.96 281.567 201.624C281.987 201.276 282.197 200.784 282.197 200.148C282.197 198.948 281.447 198.348 279.947 198.348H278.093C277.961 198.348 277.853 198.306 277.769 198.222C277.685 198.138 277.643 198.036 277.643 197.916V197.16C277.643 196.968 277.727 196.788 277.895 196.62L281.117 193.47H275.969C275.849 193.47 275.747 193.428 275.663 193.344C275.579 193.26 275.537 193.158 275.537 193.038V191.85C275.537 191.718 275.573 191.61 275.645 191.526C275.729 191.442 275.837 191.4 275.969 191.4H283.691C283.823 191.4 283.931 191.442 284.015 191.526C284.099 191.61 284.141 191.718 284.141 191.85V192.93C284.141 193.11 284.063 193.278 283.907 193.434L280.793 196.638L281.009 196.656C282.161 196.752 283.073 197.1 283.745 197.7C284.429 198.3 284.771 199.158 284.771 200.274C284.771 201.066 284.555 201.756 284.123 202.344C283.703 202.932 283.115 203.388 282.359 203.712C281.615 204.024 280.769 204.18 279.821 204.18ZM291.303 204.18C290.295 204.18 289.413 203.988 288.657 203.604C287.901 203.22 287.319 202.698 286.911 202.038C286.503 201.366 286.299 200.61 286.299 199.77C286.299 198.702 286.761 197.538 287.685 196.278L290.979 191.76C291.051 191.652 291.129 191.568 291.213 191.508C291.309 191.436 291.435 191.4 291.591 191.4H293.265C293.373 191.4 293.463 191.442 293.535 191.526C293.607 191.598 293.643 191.688 293.643 191.796C293.643 191.856 293.613 191.934 293.553 192.03L291.033 195.522C291.273 195.462 291.531 195.432 291.807 195.432C292.611 195.456 293.349 195.66 294.021 196.044C294.705 196.416 295.245 196.926 295.641 197.574C296.049 198.222 296.253 198.942 296.253 199.734C296.253 200.538 296.049 201.282 295.641 201.966C295.245 202.638 294.669 203.178 293.913 203.586C293.169 203.982 292.299 204.18 291.303 204.18ZM291.285 202.11C291.969 202.11 292.545 201.906 293.013 201.498C293.481 201.078 293.715 200.496 293.715 199.752C293.715 199.02 293.481 198.45 293.013 198.042C292.545 197.622 291.969 197.412 291.285 197.412C290.601 197.412 290.025 197.622 289.557 198.042C289.089 198.45 288.855 199.02 288.855 199.752C288.855 200.496 289.089 201.078 289.557 201.498C290.025 201.906 290.601 202.11 291.285 202.11ZM218.986 222C218.866 222 218.764 221.958 218.68 221.874C218.596 221.79 218.554 221.688 218.554 221.568V212.244L215.818 214.35C215.746 214.41 215.662 214.44 215.566 214.44C215.422 214.44 215.302 214.374 215.206 214.242L214.45 213.27C214.39 213.174 214.36 213.084 214.36 213C214.36 212.856 214.426 212.736 214.558 212.64L218.59 209.526C218.698 209.442 218.848 209.4 219.04 209.4H220.624C220.756 209.4 220.858 209.442 220.93 209.526C221.014 209.598 221.056 209.7 221.056 209.832V221.568C221.056 221.688 221.014 221.79 220.93 221.874C220.858 221.958 220.756 222 220.624 222H218.986ZM228.704 222.18C227.468 222.18 226.508 221.754 225.824 220.902V221.568C225.824 221.688 225.782 221.79 225.698 221.874C225.626 221.958 225.524 222 225.392 222H223.97C223.85 222 223.748 221.958 223.664 221.874C223.58 221.79 223.538 221.688 223.538 221.568V209.652C223.538 209.52 223.58 209.418 223.664 209.346C223.748 209.262 223.85 209.22 223.97 209.22H225.5C225.632 209.22 225.734 209.262 225.806 209.346C225.89 209.418 225.932 209.52 225.932 209.652V213.648C226.616 212.856 227.54 212.46 228.704 212.46C229.916 212.46 230.846 212.856 231.494 213.648C232.142 214.44 232.49 215.466 232.538 216.726C232.55 216.87 232.556 217.062 232.556 217.302C232.556 217.554 232.55 217.752 232.538 217.896C232.49 219.192 232.142 220.23 231.494 221.01C230.846 221.79 229.916 222.18 228.704 222.18ZM228.038 220.254C229.334 220.254 230.024 219.456 230.108 217.86C230.12 217.74 230.126 217.56 230.126 217.32C230.126 217.08 230.12 216.9 230.108 216.78C230.024 215.184 229.334 214.386 228.038 214.386C227.366 214.386 226.85 214.602 226.49 215.034C226.142 215.454 225.956 215.964 225.932 216.564L225.914 217.248L225.932 217.95C225.968 218.598 226.154 219.144 226.49 219.588C226.826 220.032 227.342 220.254 228.038 220.254ZM234.613 222C234.493 222 234.391 221.958 234.307 221.874C234.223 221.79 234.181 221.688 234.181 221.568V220.65C234.181 220.326 234.331 220.044 234.631 219.804L237.475 216.978C238.711 216.006 239.569 215.25 240.049 214.71C240.541 214.158 240.787 213.618 240.787 213.09C240.787 212.526 240.631 212.082 240.319 211.758C240.019 211.434 239.563 211.272 238.951 211.272C238.351 211.272 237.877 211.452 237.529 211.812C237.181 212.16 236.965 212.616 236.881 213.18C236.845 213.324 236.779 213.432 236.683 213.504C236.587 213.564 236.479 213.594 236.359 213.594H234.757C234.649 213.594 234.559 213.558 234.487 213.486C234.415 213.414 234.379 213.33 234.379 213.234C234.403 212.526 234.595 211.866 234.955 211.254C235.315 210.63 235.837 210.132 236.521 209.76C237.205 209.376 238.009 209.184 238.933 209.184C239.893 209.184 240.703 209.352 241.363 209.688C242.035 210.012 242.539 210.462 242.875 211.038C243.211 211.614 243.379 212.268 243.379 213C243.379 213.804 243.151 214.53 242.695 215.178C242.251 215.826 241.567 216.522 240.643 217.266L238.087 219.858H243.217C243.349 219.858 243.451 219.9 243.523 219.984C243.607 220.056 243.649 220.158 243.649 220.29V221.568C243.649 221.688 243.607 221.79 243.523 221.874C243.451 221.958 243.349 222 243.217 222H234.613ZM249.502 222C249.382 222 249.28 221.958 249.196 221.874C249.112 221.79 249.07 221.688 249.07 221.568V212.244L246.334 214.35C246.262 214.41 246.178 214.44 246.082 214.44C245.938 214.44 245.818 214.374 245.722 214.242L244.966 213.27C244.906 213.174 244.876 213.084 244.876 213C244.876 212.856 244.942 212.736 245.074 212.64L249.106 209.526C249.214 209.442 249.364 209.4 249.556 209.4H251.14C251.272 209.4 251.374 209.442 251.446 209.526C251.53 209.598 251.572 209.7 251.572 209.832V221.568C251.572 221.688 251.53 221.79 251.446 221.874C251.374 221.958 251.272 222 251.14 222H249.502ZM254.09 222C253.97 222 253.868 221.958 253.784 221.874C253.7 221.79 253.658 221.688 253.658 221.568V220.65C253.658 220.326 253.808 220.044 254.108 219.804L256.952 216.978C258.188 216.006 259.046 215.25 259.526 214.71C260.018 214.158 260.264 213.618 260.264 213.09C260.264 212.526 260.108 212.082 259.796 211.758C259.496 211.434 259.04 211.272 258.428 211.272C257.828 211.272 257.354 211.452 257.006 211.812C256.658 212.16 256.442 212.616 256.358 213.18C256.322 213.324 256.256 213.432 256.16 213.504C256.064 213.564 255.956 213.594 255.836 213.594H254.234C254.126 213.594 254.036 213.558 253.964 213.486C253.892 213.414 253.856 213.33 253.856 213.234C253.88 212.526 254.072 211.866 254.432 211.254C254.792 210.63 255.314 210.132 255.998 209.76C256.682 209.376 257.486 209.184 258.41 209.184C259.37 209.184 260.18 209.352 260.84 209.688C261.512 210.012 262.016 210.462 262.352 211.038C262.688 211.614 262.856 212.268 262.856 213C262.856 213.804 262.628 214.53 262.172 215.178C261.728 215.826 261.044 216.522 260.12 217.266L257.564 219.858H262.694C262.826 219.858 262.928 219.9 263 219.984C263.084 220.056 263.126 220.158 263.126 220.29V221.568C263.126 221.688 263.084 221.79 263 221.874C262.928 221.958 262.826 222 262.694 222H254.09ZM270.979 222C270.859 222 270.757 221.958 270.673 221.874C270.589 221.79 270.547 221.688 270.547 221.568V219.264H264.841C264.721 219.264 264.619 219.222 264.535 219.138C264.451 219.054 264.409 218.952 264.409 218.832V217.608C264.409 217.416 264.475 217.236 264.607 217.068L269.917 209.706C269.977 209.61 270.067 209.538 270.187 209.49C270.307 209.43 270.439 209.4 270.583 209.4H272.545C272.677 209.4 272.779 209.442 272.851 209.526C272.935 209.598 272.977 209.7 272.977 209.832V217.14H274.579C274.711 217.14 274.819 217.182 274.903 217.266C274.987 217.338 275.029 217.44 275.029 217.572V218.832C275.029 218.952 274.987 219.054 274.903 219.138C274.819 219.222 274.717 219.264 274.597 219.264H272.977V221.568C272.977 221.688 272.935 221.79 272.851 221.874C272.779 221.958 272.677 222 272.545 222H270.979ZM270.601 217.212V212.01L266.911 217.212H270.601Z" fill="#1B2124"/>
<path d="M147.264 186.18C145.608 186.18 144.324 185.754 143.412 184.902C142.512 184.05 142.032 182.85 141.972 181.302C141.96 180.978 141.954 180.45 141.954 179.718C141.954 178.974 141.96 178.434 141.972 178.098C142.032 176.562 142.518 175.368 143.43 174.516C144.354 173.652 145.632 173.22 147.264 173.22C148.332 173.22 149.262 173.406 150.054 173.778C150.846 174.138 151.458 174.636 151.89 175.272C152.322 175.896 152.55 176.604 152.574 177.396V177.432C152.574 177.528 152.532 177.612 152.448 177.684C152.376 177.744 152.292 177.774 152.196 177.774H150.486C150.342 177.774 150.234 177.744 150.162 177.684C150.09 177.624 150.03 177.51 149.982 177.342C149.79 176.586 149.472 176.058 149.028 175.758C148.584 175.446 147.99 175.29 147.246 175.29C145.518 175.29 144.618 176.256 144.546 178.188C144.534 178.512 144.528 179.01 144.528 179.682C144.528 180.354 144.534 180.864 144.546 181.212C144.618 183.144 145.518 184.11 147.246 184.11C147.99 184.11 148.584 183.954 149.028 183.642C149.484 183.33 149.802 182.802 149.982 182.058C150.018 181.89 150.072 181.776 150.144 181.716C150.228 181.656 150.342 181.626 150.486 181.626H152.196C152.304 181.626 152.394 181.662 152.466 181.734C152.55 181.806 152.586 181.896 152.574 182.004C152.55 182.796 152.322 183.51 151.89 184.146C151.458 184.77 150.846 185.268 150.054 185.64C149.262 186 148.332 186.18 147.264 186.18ZM155.159 186C155.027 186 154.919 185.964 154.835 185.892C154.751 185.808 154.709 185.7 154.709 185.568V173.85C154.709 173.718 154.751 173.61 154.835 173.526C154.919 173.442 155.027 173.4 155.159 173.4H156.581C156.833 173.4 157.013 173.514 157.121 173.742L160.595 180.222L164.105 173.742C164.225 173.514 164.405 173.4 164.645 173.4H166.049C166.181 173.4 166.289 173.442 166.373 173.526C166.457 173.61 166.499 173.718 166.499 173.85V185.568C166.499 185.7 166.457 185.808 166.373 185.892C166.289 185.964 166.181 186 166.049 186H164.537C164.417 186 164.315 185.958 164.231 185.874C164.147 185.79 164.105 185.688 164.105 185.568V177.774L161.585 182.58C161.429 182.844 161.225 182.976 160.973 182.976H160.235C159.983 182.976 159.779 182.844 159.623 182.58L157.103 177.774V185.568C157.103 185.688 157.061 185.79 156.977 185.874C156.905 185.958 156.803 186 156.671 186H155.159ZM173.043 186C172.923 186 172.821 185.958 172.737 185.874C172.653 185.79 172.611 185.688 172.611 185.568V181.5L168.363 173.976C168.327 173.916 168.309 173.85 168.309 173.778C168.309 173.67 168.345 173.58 168.417 173.508C168.489 173.436 168.573 173.4 168.669 173.4H170.271C170.403 173.4 170.511 173.436 170.595 173.508C170.691 173.58 170.763 173.658 170.811 173.742L173.871 178.98L176.913 173.742C177.057 173.514 177.243 173.4 177.471 173.4H179.055C179.163 173.4 179.253 173.436 179.325 173.508C179.397 173.58 179.433 173.67 179.433 173.778C179.433 173.85 179.415 173.916 179.379 173.976L175.131 181.5V185.568C175.131 185.688 175.089 185.79 175.005 185.874C174.921 185.958 174.813 186 174.681 186H173.043ZM181.684 186C181.564 186 181.462 185.958 181.378 185.874C181.294 185.79 181.252 185.688 181.252 185.568V173.85C181.252 173.718 181.288 173.61 181.36 173.526C181.444 173.442 181.552 173.4 181.684 173.4H183.268C183.4 173.4 183.508 173.442 183.592 173.526C183.676 173.61 183.718 173.718 183.718 173.85V178.062L187.786 173.724C187.942 173.508 188.176 173.4 188.488 173.4H190.27C190.366 173.4 190.45 173.436 190.522 173.508C190.606 173.58 190.648 173.67 190.648 173.778C190.648 173.862 190.624 173.934 190.576 173.994L185.626 179.43L190.918 185.388C190.978 185.46 191.008 185.538 191.008 185.622C191.008 185.73 190.966 185.82 190.882 185.892C190.81 185.964 190.726 186 190.63 186H188.776C188.476 186 188.242 185.892 188.074 185.676L183.718 180.906V185.568C183.718 185.7 183.676 185.808 183.592 185.892C183.508 185.964 183.4 186 183.268 186H181.684ZM142.836 204C142.716 204 142.614 203.958 142.53 203.874C142.446 203.79 142.404 203.688 142.404 203.568V191.85C142.404 191.718 142.44 191.61 142.512 191.526C142.596 191.442 142.704 191.4 142.836 191.4H147.498C148.962 191.4 150.108 191.742 150.936 192.426C151.776 193.11 152.196 194.082 152.196 195.342C152.196 196.218 151.98 196.956 151.548 197.556C151.128 198.144 150.54 198.57 149.784 198.834L152.412 203.424C152.448 203.496 152.466 203.562 152.466 203.622C152.466 203.73 152.424 203.82 152.34 203.892C152.268 203.964 152.184 204 152.088 204H150.45C150.258 204 150.108 203.958 150 203.874C149.904 203.79 149.814 203.67 149.73 203.514L147.408 199.248H144.906V203.568C144.906 203.688 144.864 203.79 144.78 203.874C144.708 203.958 144.606 204 144.474 204H142.836ZM147.444 197.214C148.164 197.214 148.704 197.052 149.064 196.728C149.436 196.404 149.622 195.936 149.622 195.324C149.622 194.712 149.436 194.238 149.064 193.902C148.704 193.566 148.164 193.398 147.444 193.398H144.906V197.214H147.444ZM159.376 204.18C157.732 204.18 156.448 203.754 155.524 202.902C154.612 202.05 154.126 200.862 154.066 199.338C154.054 198.99 154.048 198.432 154.048 197.664C154.048 196.896 154.054 196.338 154.066 195.99C154.126 194.502 154.618 193.338 155.542 192.498C156.478 191.646 157.756 191.22 159.376 191.22C160.48 191.22 161.428 191.406 162.22 191.778C163.012 192.15 163.612 192.618 164.02 193.182C164.428 193.734 164.644 194.28 164.668 194.82V194.856C164.668 194.952 164.632 195.036 164.56 195.108C164.488 195.168 164.398 195.198 164.29 195.198H162.436C162.316 195.198 162.226 195.18 162.166 195.144C162.106 195.096 162.052 195.018 162.004 194.91C161.836 194.466 161.542 194.088 161.122 193.776C160.702 193.452 160.12 193.29 159.376 193.29C158.536 193.29 157.876 193.518 157.396 193.974C156.928 194.43 156.676 195.132 156.64 196.08C156.628 196.428 156.622 196.956 156.622 197.664C156.622 198.36 156.628 198.888 156.64 199.248C156.712 201.156 157.636 202.11 159.412 202.11C160.264 202.11 160.948 201.882 161.464 201.426C161.98 200.958 162.238 200.268 162.238 199.356V198.798H160.042C159.91 198.798 159.802 198.756 159.718 198.672C159.646 198.588 159.61 198.48 159.61 198.348V197.394C159.61 197.262 159.646 197.154 159.718 197.07C159.802 196.986 159.91 196.944 160.042 196.944H164.344C164.476 196.944 164.578 196.986 164.65 197.07C164.734 197.154 164.776 197.262 164.776 197.394V199.284C164.776 200.28 164.554 201.15 164.11 201.894C163.678 202.626 163.054 203.19 162.238 203.586C161.422 203.982 160.468 204.18 159.376 204.18ZM167.516 204C167.396 204 167.294 203.958 167.21 203.874C167.126 203.79 167.084 203.688 167.084 203.568V191.85C167.084 191.718 167.12 191.61 167.192 191.526C167.276 191.442 167.384 191.4 167.516 191.4H172.736C174.14 191.4 175.184 191.712 175.868 192.336C176.564 192.948 176.912 193.788 176.912 194.856C176.912 195.48 176.756 196.014 176.444 196.458C176.144 196.89 175.79 197.202 175.382 197.394C175.886 197.622 176.306 197.994 176.642 198.51C176.99 199.026 177.164 199.614 177.164 200.274C177.164 201.39 176.786 202.29 176.03 202.974C175.286 203.658 174.236 204 172.88 204H167.516ZM172.412 196.566C173.036 196.566 173.51 196.416 173.834 196.116C174.158 195.816 174.32 195.414 174.32 194.91C174.32 194.394 174.158 193.998 173.834 193.722C173.51 193.434 173.036 193.29 172.412 193.29H169.586V196.566H172.412ZM172.592 202.092C173.216 202.092 173.702 201.924 174.05 201.588C174.398 201.24 174.572 200.802 174.572 200.274C174.572 199.734 174.398 199.296 174.05 198.96C173.702 198.612 173.216 198.438 172.592 198.438H169.586V202.092H172.592ZM142.836 222C142.716 222 142.614 221.958 142.53 221.874C142.446 221.79 142.404 221.688 142.404 221.568V209.85C142.404 209.718 142.44 209.61 142.512 209.526C142.596 209.442 142.704 209.4 142.836 209.4H144.474C144.606 209.4 144.708 209.442 144.78 209.526C144.864 209.61 144.906 209.718 144.906 209.85V214.494H150.216V209.85C150.216 209.718 150.252 209.61 150.324 209.526C150.408 209.442 150.516 209.4 150.648 209.4H152.268C152.4 209.4 152.508 209.442 152.592 209.526C152.676 209.61 152.718 209.718 152.718 209.85V221.568C152.718 221.7 152.676 221.808 152.592 221.892C152.508 221.964 152.4 222 152.268 222H150.648C150.528 222 150.426 221.958 150.342 221.874C150.258 221.79 150.216 221.688 150.216 221.568V216.744H144.906V221.568C144.906 221.688 144.864 221.79 144.78 221.874C144.708 221.958 144.606 222 144.474 222H142.836ZM155.949 222C155.829 222 155.727 221.958 155.643 221.874C155.559 221.79 155.517 221.688 155.517 221.568V209.85C155.517 209.718 155.553 209.61 155.625 209.526C155.709 209.442 155.817 209.4 155.949 209.4H163.869C164.001 209.4 164.109 209.442 164.193 209.526C164.277 209.61 164.319 209.718 164.319 209.85V211.038C164.319 211.17 164.277 211.278 164.193 211.362C164.109 211.434 164.001 211.47 163.869 211.47H157.947V214.656H163.473C163.605 214.656 163.713 214.698 163.797 214.782C163.881 214.854 163.923 214.956 163.923 215.088V216.204C163.923 216.336 163.881 216.444 163.797 216.528C163.713 216.6 163.605 216.636 163.473 216.636H157.947V219.93H164.013C164.145 219.93 164.253 219.972 164.337 220.056C164.421 220.14 164.463 220.248 164.463 220.38V221.568C164.463 221.7 164.421 221.808 164.337 221.892C164.253 221.964 164.145 222 164.013 222H155.949ZM166.013 222C165.905 222 165.815 221.964 165.743 221.892C165.671 221.82 165.635 221.73 165.635 221.622C165.635 221.55 165.653 221.478 165.689 221.406L169.721 215.574L165.941 209.994C165.905 209.934 165.887 209.862 165.887 209.778C165.887 209.67 165.923 209.58 165.995 209.508C166.067 209.436 166.157 209.4 166.265 209.4H168.101C168.317 209.4 168.503 209.514 168.659 209.742L171.305 213.63L173.969 209.742C174.125 209.514 174.311 209.4 174.527 209.4H176.273C176.381 209.4 176.471 209.436 176.543 209.508C176.615 209.58 176.651 209.67 176.651 209.778C176.651 209.862 176.627 209.934 176.579 209.994L172.817 215.574L176.849 221.406C176.897 221.502 176.921 221.574 176.921 221.622C176.921 221.73 176.879 221.82 176.795 221.892C176.723 221.964 176.639 222 176.543 222H174.635C174.407 222 174.227 221.892 174.095 221.676L171.215 217.608L168.389 221.676C168.233 221.892 168.047 222 167.831 222H166.013Z" fill="#1B2124"/>
</svg>
