<svg width="48" height="48" viewBox="0 0 48 48" fill="none" xmlns="http://www.w3.org/2000/svg">
<path fill-rule="evenodd" clip-rule="evenodd" d="M38.9256 11.1515C37.551 9.65194 35.0688 9.55953 33.4141 11.2142L17.2141 27.4142C16.7952 27.8332 16.7952 28.3668 17.2141 28.7858C17.6331 29.2048 18.1667 29.2048 18.5857 28.7858L31.9857 15.3858C32.7667 14.6048 34.0331 14.6048 34.8141 15.3858C35.5952 16.1668 35.5952 17.4332 34.8141 18.2142L21.4141 31.6142C19.4331 33.5953 16.3667 33.5953 14.3857 31.6142C12.4046 29.6332 12.4046 26.5668 14.3857 24.5858L30.5857 8.3858C33.7208 5.25074 38.8155 5.14872 41.8446 8.41642C44.9491 11.5532 45.0405 16.6231 41.7857 19.6427L22.8141 38.6142C18.4331 42.9953 11.5667 42.9953 7.18569 38.6142C2.80464 34.2332 2.80464 27.3668 7.18569 22.9858L23.3857 6.7858C24.1667 6.00475 25.4331 6.00475 26.2141 6.7858C26.9952 7.56685 26.9952 8.83318 26.2141 9.61423L10.0141 25.8142C7.19516 28.6332 7.19516 32.9668 10.0141 35.7858C12.8331 38.6048 17.1667 38.6048 19.9857 35.7858L38.9857 16.7858C39.0062 16.7653 39.0271 16.7453 39.0485 16.7257C40.548 15.3511 40.6404 12.8689 38.9857 11.2142C38.9652 11.1937 38.9452 11.1728 38.9256 11.1515Z" fill="#ADBBC2"/>
</svg>
