<svg width="79" height="79" viewBox="0 0 79 79" fill="none" xmlns="http://www.w3.org/2000/svg">
<rect width="78.6946" height="78.6946" rx="39.3473" fill="#1B2124"/>
<path d="M52.2485 27.2176L46.4966 21.4765C45.8652 20.8444 44.8418 20.8412 44.2056 21.4668L30.1016 35.3327C29.8819 35.5505 29.7273 35.8251 29.6574 36.1257L27.9912 43.3358L26.3614 45.3759C25.8383 46.0308 26.3045 47.0001 27.1427 47.0001H29.6655L31.5237 45.1655L37.3618 43.82C37.6547 43.7518 37.9232 43.6039 38.138 43.3943L52.2404 29.5251C52.5495 29.2212 52.7236 28.8068 52.7252 28.373C52.7269 27.9391 52.556 27.5247 52.2485 27.2176ZM37.0039 39.9461L33.5527 36.5011L45.3381 24.9134L48.7876 28.3583L37.0039 39.9461Z" fill="white"/>
<path d="M25 51.9287C25 50.8635 25.8635 50 26.9287 50H53V50.1378C53 51.187 52.1891 52.0579 51.1425 52.1327L27.0661 53.8524C25.9496 53.9322 25 53.0479 25 51.9287Z" fill="#F6C138"/>
</svg>
