<svg width="48" height="48" viewBox="0 0 48 48" fill="none" xmlns="http://www.w3.org/2000/svg">
<path fill-rule="evenodd" clip-rule="evenodd" d="M16 16C11.5046 16 8 19.5046 8 24C8 28.4954 11.5046 32 16 32H20C21.1046 32 22 32.8954 22 34C22 35.1046 21.1046 36 20 36H16C9.29543 36 4 30.7046 4 24C4 17.2954 9.29543 12 16 12H20C21.1046 12 22 12.8954 22 14C22 15.1046 21.1046 16 20 16H16ZM26 14C26 12.8954 26.8954 12 28 12H32C38.7046 12 44 17.2954 44 24C44 30.7046 38.7046 36 32 36H28C26.8954 36 26 35.1046 26 34C26 32.8954 26.8954 32 28 32H32C36.4954 32 40 28.4954 40 24C40 19.5046 36.4954 16 32 16H28C26.8954 16 26 15.1046 26 14ZM14 24C14 22.8954 14.8954 22 16 22H32C33.1046 22 34 22.8954 34 24C34 25.1046 33.1046 26 32 26H16C14.8954 26 14 25.1046 14 24Z" fill="#ADBBC2"/>
</svg>
