<svg width="48" height="48" viewBox="0 0 48 48" fill="none" xmlns="http://www.w3.org/2000/svg">
<path fill-rule="evenodd" clip-rule="evenodd" d="M6 10C6 7.79086 7.79086 6 10 6H38C40.2091 6 42 7.79086 42 10V38C42 40.2091 40.2091 42 38 42H10C7.79086 42 6 40.2091 6 38V10ZM38 10H10V38H38V10ZM24 14C25.1046 14 26 14.8954 26 16V32C26 33.1046 25.1046 34 24 34C22.8954 34 22 33.1046 22 32V16C22 14.8954 22.8954 14 24 14ZM32 18C33.1046 18 34 18.8954 34 20V32C34 33.1046 33.1046 34 32 34C30.8954 34 30 33.1046 30 32V20C30 18.8954 30.8954 18 32 18ZM16 22C17.1046 22 18 22.8954 18 24V32C18 33.1046 17.1046 34 16 34C14.8954 34 14 33.1046 14 32V24C14 22.8954 14.8954 22 16 22Z" fill="#ADBBC2"/>
</svg>
