<svg width="79" height="79" viewBox="0 0 79 79" fill="none" xmlns="http://www.w3.org/2000/svg">
<rect width="78.6946" height="78.6946" rx="39.3473" fill="#1B2124"/>
<path d="M44.6667 41.3333C44.6667 44.3733 46.96 46.6667 50 46.6667C53.04 46.6667 55.3333 44.3733 55.3333 41.3333C55.3333 38.2933 53.04 36 50 36C46.96 36 44.6667 38.2933 44.6667 41.3333ZM52.6667 41.3333C52.6667 42.904 51.5707 44 50 44C48.4293 44 47.3333 42.904 47.3333 41.3333C47.3333 39.7627 48.4293 38.6667 50 38.6667C51.5707 38.6667 52.6667 39.7627 52.6667 41.3333ZM44.6667 54.6667C44.6667 52.4613 46.4613 50.6667 48.6667 50.6667H51.3333C53.5387 50.6667 55.3333 52.4613 55.3333 54.6667C55.3333 55.403 55.9303 56 56.6667 56H58V54.6667C58 50.9907 55.0093 48 51.3333 48H48.6667C44.9907 48 42 50.9907 42 54.6667C42.3195 55.1992 42.8418 55.5789 43.4469 55.7185L44.6667 56V54.6667Z" fill="#F6C138"/>
<path d="M24.3 31.8C24.3 36.816 27.998 40.6 32.9 40.6C37.802 40.6 41.5 36.816 41.5 31.8C41.5 26.784 37.802 23 32.9 23C27.998 23 24.3 26.784 24.3 31.8ZM37.2 31.8C37.2 34.3916 35.4327 36.2 32.9 36.2C30.3673 36.2 28.6 34.3916 28.6 31.8C28.6 29.2084 30.3673 27.4 32.9 27.4C35.4327 27.4 37.2 29.2084 37.2 31.8ZM24.3 53.8C24.3 50.1612 27.1939 47.2 30.75 47.2H35.05C38.6061 47.2 41.5 50.1612 41.5 53.8C41.5 55.015 42.485 56 43.7 56H45.8V53.8C45.8 47.7346 40.9776 42.8 35.05 42.8H30.75C24.8225 42.8 20 47.7346 20 53.8V56H22.1C23.315 56 24.3 55.015 24.3 53.8Z" fill="white"/>
</svg>
