<svg width="79" height="79" viewBox="0 0 79 79" fill="none" xmlns="http://www.w3.org/2000/svg">
<rect width="78.6946" height="78.6946" rx="39.3473" fill="#1B2124"/>
<mask id="mask0" mask-type="alpha" maskUnits="userSpaceOnUse" x="17" y="19" width="46" height="41">
<path d="M56.6205 19L53.4263 22.1942C59.6001 28.368 59.6001 38.8046 53.4263 44.9784L56.6205 48.1726C64.527 40.2662 64.527 26.9065 56.6205 19ZM46.6493 28.9712C47.9279 30.2498 48.6349 31.8898 48.6349 33.5863C48.6349 35.2828 47.9279 36.9229 46.6493 38.2014L49.8435 41.3957C51.976 39.2654 53.1529 36.4891 53.1529 33.5863C53.1529 30.6835 51.976 27.9072 49.8435 25.777L46.6493 28.9712ZM26.1241 22.1942L22.9299 19C15.0234 26.9065 15.0234 40.2662 22.9299 48.1726L26.1241 44.9784C19.9502 38.8046 19.9502 28.368 26.1241 22.1942Z" fill="black"/>
<path d="M28.5775 25.7773C26.445 27.9076 25.2681 30.6839 25.2681 33.5867C25.2681 36.4895 26.445 39.2658 28.5775 41.396L31.7717 38.2018C30.4931 36.9232 29.7861 35.2832 29.7861 33.5867C29.7861 31.8902 30.4931 30.2502 31.7717 28.9716L28.5775 25.7773ZM43.7286 33.0219C43.7286 30.528 41.7045 28.5039 39.2106 28.5039C36.7166 28.5039 34.6926 30.528 34.6926 33.0219C34.6903 34.5919 35.4945 35.9767 36.7144 36.7854L34.6971 59.0004H43.724L41.7068 36.7832C42.9266 35.9744 43.7286 34.5919 43.7286 33.0219Z" fill="black"/>
</mask>
<g mask="url(#mask0)">
<rect x="15" y="14" width="51" height="37" fill="#F6C138"/>
<path d="M16 16L29 19.5L23 32.5L29 49H16V16Z" fill="white"/>
<path d="M64 16L51 19.5L57 32.5L51 49H64V16Z" fill="white"/>
</g>
<mask id="mask1" mask-type="alpha" maskUnits="userSpaceOnUse" x="17" y="19" width="46" height="41">
<path d="M56.6205 19L53.4263 22.1942C59.6001 28.368 59.6001 38.8046 53.4263 44.9784L56.6205 48.1726C64.527 40.2662 64.527 26.9065 56.6205 19ZM46.6493 28.9712C47.9279 30.2498 48.6349 31.8898 48.6349 33.5863C48.6349 35.2828 47.9279 36.9229 46.6493 38.2014L49.8435 41.3957C51.976 39.2654 53.1529 36.4891 53.1529 33.5863C53.1529 30.6835 51.976 27.9072 49.8435 25.777L46.6493 28.9712ZM26.1241 22.1942L22.9299 19C15.0234 26.9065 15.0234 40.2662 22.9299 48.1726L26.1241 44.9784C19.9502 38.8046 19.9502 28.368 26.1241 22.1942Z" fill="black"/>
<path d="M28.5775 25.7773C26.445 27.9076 25.2681 30.6839 25.2681 33.5867C25.2681 36.4895 26.445 39.2658 28.5775 41.396L31.7717 38.2018C30.4931 36.9232 29.7861 35.2832 29.7861 33.5867C29.7861 31.8902 30.4931 30.2502 31.7717 28.9716L28.5775 25.7773ZM43.7286 33.0219C43.7286 30.528 41.7045 28.5039 39.2106 28.5039C36.7166 28.5039 34.6926 30.528 34.6926 33.0219C34.6903 34.5919 35.4945 35.9767 36.7144 36.7854L34.6971 59.0004H43.724L41.7068 36.7832C42.9266 35.9744 43.7286 34.5919 43.7286 33.0219Z" fill="black"/>
</mask>
<g mask="url(#mask1)">
<rect x="33" y="26" width="13" height="35" fill="white"/>
</g>
</svg>
