<svg width="79" height="79" viewBox="0 0 79 79" fill="none" xmlns="http://www.w3.org/2000/svg">
<rect width="78.6946" height="78.6946" rx="39.3473" fill="#1B2124"/>
<path d="M43.8795 39.1678C41.3469 39.1678 39.2537 37.0774 39.2537 34.5481C39.2537 33.7304 39.4919 32.9705 39.8735 32.3006C39.6654 32.2845 39.4665 32.2383 39.2537 32.2383C35.4559 32.2383 32.3149 35.3774 32.3149 39.1678C32.3149 42.9606 35.4559 46.0974 39.2537 46.0974C43.0492 46.0974 46.1924 42.9606 46.1924 39.1678C46.1924 38.9553 46.1462 38.7567 46.13 38.5488C45.4592 38.9299 44.6983 39.1678 43.8795 39.1678Z" fill="#F6C138"/>
<path d="M39.254 23C21.5996 23 16.2937 38.2843 16.2452 38.439L16 39.1689L16.2429 39.8989C16.2937 40.0536 21.5996 55.3379 39.254 55.3379C56.9085 55.3379 62.2143 40.0536 62.2629 39.8989L62.508 39.1689L62.2652 38.439C62.2143 38.2843 56.9085 23 39.254 23ZM39.254 50.7182C26.8776 50.7182 22.083 41.8345 20.9219 39.1689C22.0876 36.4941 26.8846 27.6197 39.254 27.6197C51.6304 27.6197 56.4251 36.5034 57.5862 39.1689C56.4205 41.8438 51.6235 50.7182 39.254 50.7182Z" fill="white"/>
</svg>
