<svg width="63" height="60" viewBox="0 0 63 60" fill="none" xmlns="http://www.w3.org/2000/svg">
<path fill-rule="evenodd" clip-rule="evenodd" d="M58.3075 18.4337C55.1316 11.0833 49.0149 5.21631 41.3789 2.20696L48.859 0.311986C55.8423 -1.45714 62.2325 4.58453 60.3613 11.1871L58.3075 18.4337Z" fill="#ECB21B"/>
<path fill-rule="evenodd" clip-rule="evenodd" d="M31.0244 60C48.1586 60 62.0487 46.5685 62.0487 30C62.0487 13.4315 48.1586 0 31.0244 0C13.8901 0 0 13.4315 0 30C0 46.5685 13.8901 60 31.0244 60ZM31.0244 48.4615C41.5685 48.4615 50.1163 40.196 50.1163 30C50.1163 19.804 41.5685 11.5385 31.0244 11.5385C20.4802 11.5385 11.9324 19.804 11.9324 30C11.9324 40.196 20.4802 48.4615 31.0244 48.4615Z" fill="#F5F6F6"/>
<path fill-rule="evenodd" clip-rule="evenodd" d="M58.3075 41.5661C55.1316 48.8685 49.0149 54.6972 41.3789 57.6869L48.859 59.5694C55.8423 61.327 62.2325 55.3248 60.3613 48.7654L58.3075 41.5661Z" fill="#F5F6F6"/>
</svg>
