<svg width="142" height="50" viewBox="0 0 142 50" fill="none" xmlns="http://www.w3.org/2000/svg">
<path fill-rule="evenodd" clip-rule="evenodd" d="M47.3233 15.3614C44.7456 9.23608 39.7812 4.34692 33.5837 1.83913L39.6547 0.259988C45.3225 -1.21428 50.5088 3.82044 48.9901 9.32256L47.3233 15.3614Z" fill="#ECB21B"/>
<path fill-rule="evenodd" clip-rule="evenodd" d="M25.1799 50C39.0863 50 50.3597 38.8071 50.3597 25C50.3597 11.1929 39.0863 0 25.1799 0C11.2734 0 0 11.1929 0 25C0 38.8071 11.2734 50 25.1799 50ZM25.1799 40.3846C33.7377 40.3846 40.6752 33.4967 40.6752 25C40.6752 16.5033 33.7377 9.61539 25.1799 9.61539C16.622 9.61539 9.68456 16.5033 9.68456 25C9.68456 33.4967 16.622 40.3846 25.1799 40.3846Z" fill="#1B2124"/>
<path fill-rule="evenodd" clip-rule="evenodd" d="M47.3233 34.6384C44.7456 40.7238 39.7812 45.581 33.5837 48.0724L39.6547 49.6412C45.3225 51.1058 50.5088 46.104 48.9901 40.6379L47.3233 34.6384Z" fill="#1B2124"/>
<path d="M68.0078 37.5161C66.891 37.5161 65.8418 37.3094 64.8604 36.8961C63.8789 36.4717 63.0159 35.8964 62.2714 35.1704C61.5381 34.4331 60.9571 33.5786 60.5284 32.6068C60.111 31.635 59.9023 30.5962 59.9023 29.4904V24.1623H57.6517V19.605H59.9023V12.4338H64.505V19.605H71.5106V24.1623H64.505V29.4904C64.505 29.9707 64.5953 30.4231 64.7758 30.8476C64.9563 31.2609 65.2045 31.6239 65.5203 31.9366C65.8362 32.2494 66.2085 32.5007 66.6372 32.6906C67.0658 32.8693 67.5227 32.9587 68.0078 32.9587H71.5106V37.5161H68.0078Z" fill="#1B2124"/>
<path d="M78.6856 37.5379H74.0659V19.5933H78.6845V21.0947C78.8423 20.8859 79.012 20.7056 79.1577 20.5727C79.7887 20.0507 80.262 19.6853 82.1884 19.6269H86.2665V24.1842H82.1884C81.7033 24.1842 81.2464 24.2736 80.8177 24.4523C80.389 24.631 80.0167 24.8768 79.7009 25.1895C79.385 25.5023 79.1368 25.8709 78.9563 26.2953C78.7758 26.7198 78.6856 27.1722 78.6856 27.6525V37.5379Z" fill="#1B2124"/>
<path d="M93.915 14.6957C93.915 15.1202 93.8303 15.5167 93.6611 15.8853C93.5032 16.254 93.2832 16.5779 93.0012 16.8571C92.7192 17.1252 92.3864 17.343 92.0028 17.5106C91.6305 17.667 91.23 17.7452 90.8014 17.7452C90.3727 17.7452 89.9666 17.667 89.583 17.5106C89.2107 17.343 88.8836 17.1252 88.6015 16.8571C88.3308 16.5779 88.1108 16.254 87.9416 15.8853C87.7837 15.5167 87.7047 15.1202 87.7047 14.6957C87.7047 14.2825 87.7837 13.8915 87.9416 13.5229C88.1108 13.1431 88.3308 12.8192 88.6015 12.5511C88.8836 12.2719 89.2107 12.054 89.583 11.8977C89.9666 11.7301 90.3727 11.6463 90.8014 11.6463C91.23 11.6463 91.6305 11.7301 92.0028 11.8977C92.3864 12.054 92.7192 12.2719 93.0012 12.5511C93.2832 12.8192 93.5032 13.1431 93.6611 13.5229C93.8303 13.8915 93.915 14.2825 93.915 14.6957ZM93.1196 37.5161H88.4662V19.5714H93.1196V37.5161Z" fill="#1B2124"/>
<path d="M101.31 37.5161H96.6563V13.2101L101.31 12.4338V37.5161Z" fill="#1B2124"/>
<path d="M109.466 37.5161H104.846V13.2101L109.466 12.4338V20.3589C110.019 19.9456 110.588 19.6552 111.175 19.4877C111.762 19.309 112.36 19.2196 112.969 19.2196C114.086 19.2196 115.135 19.4318 116.116 19.8563C117.098 20.2696 117.949 20.8448 118.671 21.582C119.405 22.3081 119.98 23.1626 120.397 24.1456C120.826 25.1174 121.04 26.1562 121.04 27.262V37.5161H116.421V27.262C116.421 26.7929 116.331 26.3516 116.15 25.9383C115.97 25.5139 115.721 25.1453 115.406 24.8325C115.09 24.5198 114.723 24.274 114.306 24.0953C113.888 23.9166 113.443 23.8272 112.969 23.8272C112.484 23.8272 112.027 23.9166 111.598 24.0953C111.169 24.274 110.797 24.5198 110.481 24.8325C110.165 25.1453 109.917 25.5139 109.737 25.9383C109.556 26.3516 109.466 26.7929 109.466 27.262V37.5161Z" fill="#1B2124"/>
<path d="M141.888 37.5161H137.261V36.3667C136.869 36.6177 136.46 36.8444 136.033 37.0469C135.492 37.2927 134.933 37.4881 134.358 37.6333C133.794 37.7786 133.218 37.8512 132.632 37.8512C131.357 37.8512 130.156 37.6389 129.027 37.2145C127.911 36.79 126.929 36.1757 126.083 35.3714C125.248 34.556 124.588 33.5619 124.103 32.389C123.618 31.2162 123.376 29.8814 123.376 28.3846C123.376 26.9883 123.618 25.7094 124.103 24.5477C124.588 23.3748 125.248 22.3695 126.083 21.5318C126.929 20.694 127.911 20.0462 129.027 19.5882C130.156 19.1191 131.357 18.8845 132.632 18.8845C133.218 18.8845 133.799 18.9571 134.375 19.1023C134.95 19.2475 135.509 19.4486 136.05 19.7055C136.471 19.905 137.261 20.385 137.261 20.385V19.605H141.888V37.5161ZM137.235 28.3846C137.235 27.7591 137.11 27.1559 136.862 26.575C136.625 25.983 136.298 25.4636 135.881 25.0168C135.463 24.5589 134.973 24.1958 134.409 23.9277C133.856 23.6485 133.264 23.5089 132.632 23.5089C132 23.5089 131.402 23.615 130.838 23.8272C130.285 24.0394 129.8 24.3522 129.383 24.7655C128.977 25.1788 128.655 25.6926 128.418 26.307C128.181 26.9101 128.063 27.6027 128.063 28.3846C128.063 29.1665 128.181 29.8646 128.418 30.479C128.655 31.0821 128.977 31.5904 129.383 32.0037C129.8 32.4169 130.285 32.7297 130.838 32.9419C131.402 33.1542 132 33.2603 132.632 33.2603C133.264 33.2603 133.856 33.1262 134.409 32.8582C134.973 32.5789 135.463 32.2159 135.881 31.7691C136.298 31.3111 136.625 30.7917 136.862 30.2109C137.11 29.6189 137.235 29.0101 137.235 28.3846Z" fill="#1B2124"/>
<path fill-rule="evenodd" clip-rule="evenodd" d="M93.905 14.6962C93.905 15.1207 93.8204 15.5172 93.6511 15.8858C93.4932 16.2544 93.2732 16.5784 92.9912 16.8576C92.7092 17.1257 92.3764 17.3435 91.9928 17.5111C91.6205 17.6675 91.2201 17.7456 90.7914 17.7456C90.3627 17.7456 89.9566 17.6675 89.573 17.5111C89.2007 17.3435 88.8736 17.1257 88.5916 16.8576C88.3208 16.5784 88.1008 16.2544 87.9316 15.8858C87.7737 15.5172 87.6947 15.1207 87.6947 14.6962C87.6947 14.2829 87.7737 13.892 87.9316 13.5234C88.1008 13.1436 88.3208 12.8197 88.5916 12.5516C88.8736 12.2723 89.2007 12.0545 89.573 11.8981C89.9566 11.7306 90.3627 11.6468 90.7914 11.6468C91.2201 11.6468 91.6205 11.7306 91.9928 11.8981C92.3764 12.0545 92.7092 12.2723 92.9912 12.5516C93.2732 12.8197 93.4932 13.1436 93.6511 13.5234C93.8204 13.892 93.905 14.2829 93.905 14.6962Z" fill="#ECB21B"/>
</svg>
