<?xml version="1.0" encoding="utf-8"?>
<!-- Generator: Adobe Illustrator 23.0.1, SVG Export Plug-In . SVG Version: 6.00 Build 0)  -->
<svg version="1.1" id="Layer_1" xmlns="http://www.w3.org/2000/svg" xmlns:xlink="http://www.w3.org/1999/xlink" x="0px" y="0px"
	 viewBox="0 0 175 60" style="enable-background:new 0 0 175 60;" xml:space="preserve">
<style type="text/css">
	.st0{fill-rule:evenodd;clip-rule:evenodd;fill:#ECB21B;}
	.st1{fill-rule:evenodd;clip-rule:evenodd;fill:#1B2124;}
	.st2{fill:#1B2124;}
</style>
<path class="st0" d="M58.3,18.4C55.1,11.1,49,5.2,41.4,2.2l7.5-1.9c7-1.8,13.4,4.3,11.5,10.9L58.3,18.4z"/>
<path class="st1" d="M31,60c17.1,0,31-13.4,31-30S48.2,0,31,0C13.9,0,0,13.4,0,30S13.9,60,31,60z M31,48.5
	c10.5,0,19.1-8.3,19.1-18.5S41.6,11.5,31,11.5c-10.5,0-19.1,8.3-19.1,18.5S20.5,48.5,31,48.5z"/>
<path class="st1" d="M58.3,41.6c-3.2,7.3-9.3,13.1-16.9,16.1l7.5,1.9c7,1.8,13.4-4.2,11.5-10.8L58.3,41.6z"/>
<path class="st2" d="M83.8,45c-1.4,0-2.7-0.2-3.9-0.7c-1.2-0.5-2.3-1.2-3.2-2.1c-0.9-0.9-1.6-1.9-2.1-3.1c-0.5-1.2-0.8-2.4-0.8-3.7
	V29H71v-5.5h2.8v-8.6h5.7v8.6h8.6V29h-8.6v6.4c0,0.6,0.1,1.1,0.3,1.6c0.2,0.5,0.5,0.9,0.9,1.3c0.4,0.4,0.8,0.7,1.4,0.9
	c0.5,0.2,1.1,0.3,1.7,0.3h4.3V45H83.8z"/>
<path class="st2" d="M96.9,45h-5.7V23.5h5.7v1.8c0.2-0.3,0.4-0.5,0.6-0.6c0.8-0.6,1.4-1.1,3.7-1.1h5V29h-5c-0.6,0-1.2,0.1-1.7,0.3
	c-0.5,0.2-1,0.5-1.4,0.9c-0.4,0.4-0.7,0.8-0.9,1.3c-0.2,0.5-0.3,1.1-0.3,1.6V45z"/>
<path class="st2" d="M115.7,17.6c0,0.5-0.1,1-0.3,1.4c-0.2,0.4-0.5,0.8-0.8,1.2c-0.3,0.3-0.8,0.6-1.2,0.8c-0.5,0.2-1,0.3-1.5,0.3
	c-0.5,0-1-0.1-1.5-0.3c-0.5-0.2-0.9-0.5-1.2-0.8c-0.3-0.3-0.6-0.7-0.8-1.2c-0.2-0.4-0.3-0.9-0.3-1.4c0-0.5,0.1-1,0.3-1.4
	c0.2-0.5,0.5-0.8,0.8-1.2c0.3-0.3,0.8-0.6,1.2-0.8c0.5-0.2,1-0.3,1.5-0.3c0.5,0,1,0.1,1.5,0.3c0.5,0.2,0.9,0.4,1.2,0.8
	c0.3,0.3,0.6,0.7,0.8,1.2C115.6,16.7,115.7,17.1,115.7,17.6z M114.7,45H109V23.5h5.7V45z"/>
<path class="st2" d="M124.8,45h-5.7V15.9l5.7-0.9V45z"/>
<path class="st2" d="M134.9,45h-5.7V15.9l5.7-0.9v9.5c0.7-0.5,1.4-0.8,2.1-1c0.7-0.2,1.5-0.3,2.2-0.3c1.4,0,2.7,0.3,3.9,0.8
	c1.2,0.5,2.3,1.2,3.1,2.1c0.9,0.9,1.6,1.9,2.1,3.1c0.5,1.2,0.8,2.4,0.8,3.7V45h-5.7V32.7c0-0.6-0.1-1.1-0.3-1.6
	c-0.2-0.5-0.5-1-0.9-1.3c-0.4-0.4-0.8-0.7-1.4-0.9c-0.5-0.2-1.1-0.3-1.6-0.3c-0.6,0-1.2,0.1-1.7,0.3c-0.5,0.2-1,0.5-1.4,0.9
	c-0.4,0.4-0.7,0.8-0.9,1.3c-0.2,0.5-0.3,1-0.3,1.6V45z"/>
<path class="st2" d="M174.8,45h-5.7v-1.4c-0.5,0.3-1,0.6-1.5,0.8c-0.7,0.3-1.4,0.5-2.1,0.7c-0.7,0.2-1.4,0.3-2.1,0.3
	c-1.6,0-3.1-0.3-4.4-0.8c-1.4-0.5-2.6-1.2-3.6-2.2c-1-1-1.8-2.2-2.4-3.6c-0.6-1.4-0.9-3-0.9-4.8c0-1.7,0.3-3.2,0.9-4.6
	c0.6-1.4,1.4-2.6,2.4-3.6c1-1,2.3-1.8,3.6-2.3c1.4-0.6,2.9-0.8,4.4-0.8c0.7,0,1.4,0.1,2.1,0.3c0.7,0.2,1.4,0.4,2.1,0.7
	c0.5,0.2,1.5,0.8,1.5,0.8v-0.9h5.7V45z M169.1,34.1c0-0.8-0.2-1.5-0.5-2.2c-0.3-0.7-0.7-1.3-1.2-1.9c-0.5-0.5-1.1-1-1.8-1.3
	c-0.7-0.3-1.4-0.5-2.2-0.5c-0.8,0-1.5,0.1-2.2,0.4c-0.7,0.3-1.3,0.6-1.8,1.1c-0.5,0.5-0.9,1.1-1.2,1.8c-0.3,0.7-0.4,1.6-0.4,2.5
	s0.1,1.8,0.4,2.5c0.3,0.7,0.7,1.3,1.2,1.8c0.5,0.5,1.1,0.9,1.8,1.1c0.7,0.3,1.4,0.4,2.2,0.4c0.8,0,1.5-0.2,2.2-0.5
	c0.7-0.3,1.3-0.8,1.8-1.3c0.5-0.5,0.9-1.2,1.2-1.9C168.9,35.5,169.1,34.8,169.1,34.1z"/>
<path class="st0" d="M115.7,17.6c0,0.5-0.1,1-0.3,1.4c-0.2,0.4-0.5,0.8-0.8,1.2c-0.3,0.3-0.8,0.6-1.2,0.8c-0.5,0.2-1,0.3-1.5,0.3
	s-1-0.1-1.5-0.3c-0.5-0.2-0.9-0.5-1.2-0.8c-0.3-0.3-0.6-0.7-0.8-1.2c-0.2-0.4-0.3-0.9-0.3-1.4c0-0.5,0.1-1,0.3-1.4
	c0.2-0.5,0.5-0.8,0.8-1.2c0.3-0.3,0.8-0.6,1.2-0.8c0.5-0.2,1-0.3,1.5-0.3s1,0.1,1.5,0.3c0.5,0.2,0.9,0.4,1.2,0.8
	c0.3,0.3,0.6,0.7,0.8,1.2C115.6,16.7,115.7,17.1,115.7,17.6z"/>
</svg>
