<svg width="1051" height="298" viewBox="0 0 1051 298" fill="none" xmlns="http://www.w3.org/2000/svg">
<line x1="38.9566" y1="226.754" x2="1050.11" y2="48.6077" stroke="#8D9091" stroke-width="0.5" stroke-dasharray="5 5"/>
<line x1="38.9567" y1="219.754" x2="1049.96" y2="41.7538" stroke="#8D9091" stroke-width="0.5" stroke-dasharray="5 5"/>
<path d="M516.988 234.274C511.273 234.274 505.905 233.209 500.883 231.08C495.862 228.893 491.446 225.93 487.637 222.189C483.885 218.391 480.912 213.989 478.719 208.983C476.583 203.976 475.515 198.625 475.515 192.928V165.479H464V142.001H475.515V105.057H499.065V142.001H534.91V165.479H499.065V192.928C499.065 195.402 499.527 197.733 500.451 199.919C501.374 202.049 502.644 203.919 504.26 205.53C505.876 207.141 507.781 208.436 509.974 209.414C512.168 210.335 514.506 210.795 516.988 210.795H534.91V234.274H516.988Z" fill="white"/>
<path d="M571.621 234.386H547.984V141.941H571.615V149.675C572.423 148.6 573.291 147.671 574.037 146.986C577.265 144.297 579.687 142.414 589.543 142.113H610.409V165.592H589.543C587.061 165.592 584.723 166.052 582.53 166.973C580.337 167.893 578.432 169.159 576.816 170.771C575.2 172.382 573.93 174.281 573.006 176.468C572.083 178.654 571.621 180.985 571.621 183.459V234.386Z" fill="white"/>
<path d="M649.543 116.71C649.543 118.896 649.11 120.939 648.244 122.838C647.436 124.737 646.311 126.406 644.868 127.845C643.425 129.226 641.722 130.348 639.759 131.211C637.855 132.017 635.805 132.419 633.612 132.419C631.419 132.419 629.341 132.017 627.378 131.211C625.473 130.348 623.8 129.226 622.357 127.845C620.971 126.406 619.846 124.737 618.98 122.838C618.172 120.939 617.768 118.896 617.768 116.71C617.768 114.581 618.172 112.566 618.98 110.668C619.846 108.711 620.971 107.042 622.357 105.661C623.8 104.223 625.473 103.1 627.378 102.295C629.341 101.432 631.419 101 633.612 101C635.805 101 637.855 101.432 639.759 102.295C641.722 103.1 643.425 104.223 644.868 105.661C646.311 107.042 647.436 108.711 648.244 110.668C649.11 112.566 649.543 114.581 649.543 116.71ZM645.474 234.274H621.664V141.828H645.474V234.274Z" fill="white"/>
<path d="M687.379 234.274H663.569V109.056L687.379 105.057V234.274Z" fill="white"/>
<path d="M729.111 234.274H705.474V109.056L729.111 105.057V145.885C731.939 143.756 734.854 142.26 737.856 141.396C740.857 140.476 743.916 140.015 747.033 140.015C752.747 140.015 758.115 141.109 763.137 143.295C768.159 145.425 772.517 148.388 776.211 152.186C779.963 155.926 782.907 160.329 785.042 165.393C787.236 170.399 788.332 175.751 788.332 181.448V234.274H764.696V181.448C764.696 179.031 764.234 176.758 763.31 174.629C762.387 172.442 761.117 170.543 759.501 168.932C757.885 167.32 756.009 166.054 753.873 165.134C751.737 164.213 749.457 163.753 747.033 163.753C744.551 163.753 742.213 164.213 740.02 165.134C737.827 166.054 735.922 167.32 734.306 168.932C732.69 170.543 731.42 172.442 730.496 174.629C729.573 176.758 729.111 179.031 729.111 181.448V234.274Z" fill="white"/>
<path d="M895 234.274H871.325V228.352C869.32 229.646 867.226 230.814 865.043 231.857C862.272 233.123 859.415 234.13 856.471 234.878C853.585 235.626 850.642 236 847.64 236C841.118 236 834.97 234.907 829.198 232.72C823.484 230.533 818.462 227.368 814.133 223.225C809.862 219.024 806.485 213.903 804.003 207.861C801.521 201.818 800.28 194.942 800.28 187.231C800.28 180.038 801.521 173.449 804.003 167.464C806.485 161.422 809.862 156.243 814.133 151.927C818.462 147.611 823.484 144.274 829.198 141.914C834.97 139.497 841.118 138.289 847.64 138.289C850.642 138.289 853.614 138.663 856.558 139.411C859.502 140.159 862.359 141.195 865.13 142.519C867.282 143.547 871.325 146.019 871.325 146.019V142.001H895V234.274ZM871.19 187.231C871.19 184.008 870.555 180.901 869.285 177.909C868.073 174.859 866.399 172.183 864.264 169.881C862.128 167.522 859.617 165.652 856.731 164.27C853.903 162.832 850.873 162.113 847.64 162.113C844.408 162.113 841.349 162.659 838.463 163.753C835.634 164.846 833.152 166.457 831.017 168.586C828.939 170.715 827.294 173.363 826.082 176.527C824.869 179.635 824.263 183.203 824.263 187.231C824.263 191.259 824.869 194.855 826.082 198.02C827.294 201.128 828.939 203.746 831.017 205.875C833.152 208.004 835.634 209.616 838.463 210.709C841.349 211.802 844.408 212.349 847.64 212.349C850.873 212.349 853.903 211.659 856.731 210.277C859.617 208.839 862.128 206.969 864.264 204.667C866.399 202.308 868.073 199.632 869.285 196.639C870.555 193.59 871.19 190.453 871.19 187.231Z" fill="white"/>
<path fill-rule="evenodd" clip-rule="evenodd" d="M411.002 219C397.681 250.501 372.027 275.645 340 288.542L371.373 296.663C400.662 304.245 427.464 278.352 419.616 250.056L411.002 219Z" fill="white"/>
<path fill-rule="evenodd" clip-rule="evenodd" d="M461.313 40L464 40L464 42.58L463.482 42.58L463.482 40.516L461.313 40.516L461.313 40ZM464 52.9L464 47.74L463.482 47.74L463.482 52.9L464 52.9ZM464 58.06L463.482 58.06L463.482 63.22L464 63.22L464 58.06ZM464 68.38L463.482 68.38L463.482 73.54L464 73.54L464 68.38ZM464 78.7L463.482 78.7L463.482 83.86L464 83.86L464 78.7ZM464 89.02L463.482 89.02L463.482 94.18L464 94.18L464 89.02ZM464 99.34L463.482 99.34L463.482 104.5L464 104.5L464 99.34ZM464 109.66L463.482 109.66L463.482 114.82L464 114.82L464 109.66ZM464 119.98L463.482 119.98L463.482 125.14L464 125.14L464 119.98ZM464 130.3L463.482 130.3L463.482 135.46L464 135.46L464 130.3ZM464 140.62L463.482 140.62L463.482 145.78L464 145.78L464 140.62ZM464 150.94L463.482 150.94L463.482 156.1L464 156.1L464 150.94ZM464 161.26L463.482 161.26L463.482 166.42L464 166.42L464 161.26ZM464 171.58L463.482 171.58L463.482 176.74L464 176.74L464 171.58ZM464 181.9L463.482 181.9L463.482 187.06L464 187.06L464 181.9ZM464 192.22L463.482 192.22L463.482 197.38L464 197.38L464 192.22ZM464 202.54L463.482 202.54L463.482 207.7L464 207.7L464 202.54ZM464 212.86L463.482 212.86L463.482 218.02L464 218.02L464 212.86ZM464 223.18L463.482 223.18L463.482 228.34L464 228.34L464 223.18ZM464 233.5L463.482 233.5L463.482 238.66L464 238.66L464 233.5ZM464 243.82L463.482 243.82L463.482 248.98L464 248.98L464 243.82ZM464 254.14L463.482 254.14L463.482 259.3L464 259.3L464 254.14ZM464 264.46L463.482 264.46L463.482 269.62L464 269.62L464 264.46ZM464 274.78L463.482 274.78L463.482 279.94L464 279.94L464 274.78ZM464 285.1L463.482 285.1L463.482 290.26L464 290.26L464 285.1ZM464 295.42L463.482 295.42L463.482 297.484L461.312 297.484L461.312 298L464 298L464 295.42ZM455.937 298L455.937 297.484L450.562 297.484L450.562 298L455.937 298ZM445.187 298L445.187 297.484L439.812 297.484L439.812 298L445.187 298ZM434.437 298L434.437 297.484L429.062 297.484L429.062 298L434.437 298ZM423.688 298L423.688 297.484L421.518 297.484L421.518 295.42L421 295.42L421 298L423.688 298ZM421 290.26L421.518 290.26L421.518 285.1L421 285.1L421 290.26ZM421 279.94L421.518 279.94L421.518 274.78L421 274.78L421 279.94ZM421 269.62L421.518 269.62L421.518 264.46L421 264.46L421 269.62ZM421 259.3L421.518 259.3L421.518 254.14L421 254.14L421 259.3ZM421 248.98L421.518 248.98L421.518 243.82L421 243.82L421 248.98ZM421 238.66L421.518 238.66L421.518 233.5L421 233.5L421 238.66ZM421 228.34L421.518 228.34L421.518 223.18L421 223.18L421 228.34ZM421 218.02L421.518 218.02L421.518 212.86L421 212.86L421 218.02ZM421 207.7L421.518 207.7L421.518 202.54L421 202.54L421 207.7ZM421 197.38L421.518 197.38L421.518 192.22L421 192.22L421 197.38ZM421 187.06L421.518 187.06L421.518 181.9L421 181.9L421 187.06ZM421 176.74L421.518 176.74L421.518 171.58L421 171.58L421 176.74ZM421 166.42L421.518 166.42L421.518 161.26L421 161.26L421 166.42ZM421 156.1L421.518 156.1L421.518 150.94L421 150.94L421 156.1ZM421 145.78L421.518 145.78L421.518 140.62L421 140.62L421 145.78ZM421 135.46L421.518 135.46L421.518 130.3L421 130.3L421 135.46ZM421 125.14L421.518 125.14L421.518 119.98L421 119.98L421 125.14ZM421 114.82L421.518 114.82L421.518 109.66L421 109.66L421 114.82ZM421 104.5L421.518 104.5L421.518 99.34L421 99.34L421 104.5ZM421 94.18L421.518 94.18L421.518 89.02L421 89.02L421 94.18ZM421 83.86L421.518 83.86L421.518 78.7L421 78.7L421 83.86ZM421 73.54L421.518 73.54L421.518 68.38L421 68.38L421 73.54ZM421 63.22L421.518 63.22L421.518 58.06L421 58.06L421 63.22ZM421 52.9L421.518 52.9L421.518 47.74L421 47.74L421 52.9ZM421 42.58L421.518 42.58L421.518 40.516L423.688 40.516L423.688 40L421 40L421 42.58ZM429.063 40L429.063 40.516L434.438 40.516L434.438 40L429.063 40ZM439.813 40L439.813 40.516L445.188 40.516L445.188 40L439.813 40ZM450.563 40L450.563 40.516L455.938 40.516L455.938 40L450.563 40Z" fill="white" fill-opacity="0.5"/>
<path fill-rule="evenodd" clip-rule="evenodd" d="M110 107.688V105H112.582V105.516H110.517V107.688H110ZM122.912 105H117.747V105.516H122.912V105ZM128.077 105V105.516H133.242V105H128.077ZM138.406 105V105.516H143.571V105H138.406ZM148.736 105V105.516H153.901V105H148.736ZM159.066 105V105.516H164.231V105H159.066ZM169.396 105V105.516H174.56V105H169.396ZM179.725 105V105.516H184.89V105H179.725ZM190.055 105V105.516H195.22V105H190.055ZM200.385 105V105.516H205.549V105H200.385ZM210.714 105V105.516H215.879V105H210.714ZM221.044 105V105.516H226.209V105H221.044ZM231.374 105V105.516H236.538V105H231.374ZM241.703 105V105.516L246.868 105.516V105L241.703 105ZM252.033 105V105.516H257.198V105H252.033ZM262.363 105V105.516H267.527V105H262.363ZM272.692 105V105.516H277.857V105H272.692ZM283.022 105V105.516H288.187V105H283.022ZM293.352 105V105.516H298.516V105H293.352ZM303.681 105V105.516H308.846V105H303.681ZM314.011 105V105.516H319.176V105H314.011ZM324.341 105V105.516H329.505V105H324.341ZM334.67 105V105.516H339.835V105H334.67ZM345 105V105.516H350.165V105H345ZM355.33 105V105.516H360.494V105H355.33ZM365.659 105V105.516H370.824V105H365.659ZM375.989 105V105.516H381.154V105H375.989ZM386.319 105V105.516H391.483V105H386.319ZM396.648 105V105.516H401.813V105H396.648ZM406.978 105V105.516H412.143V105H406.978ZM417.308 105V105.516L422.473 105.516V105L417.308 105ZM427.637 105V105.516H432.802V105H427.637ZM437.967 105V105.516H443.132V105H437.967ZM448.297 105V105.516H453.461V105H448.297ZM458.626 105V105.516H463.791V105H458.626ZM468.956 105V105.516H474.121V105H468.956ZM479.286 105V105.516H484.451V105H479.286ZM489.615 105V105.516H494.78V105H489.615ZM499.945 105V105.516H505.11V105H499.945ZM510.275 105V105.516H515.44V105H510.275ZM520.604 105V105.516H525.769V105H520.604ZM530.934 105V105.516H536.099V105H530.934ZM541.264 105V105.516H546.429V105H541.264ZM551.593 105V105.516H556.758V105H551.593ZM561.923 105V105.516H567.088V105H561.923ZM572.253 105V105.516H577.418V105H572.253ZM582.582 105V105.516H587.747V105H582.582ZM592.912 105V105.516L598.077 105.516V105L592.912 105ZM603.242 105V105.516H608.407V105H603.242ZM613.571 105V105.516H618.736V105H613.571ZM623.901 105V105.516H629.066V105H623.901ZM634.231 105V105.516H639.396V105H634.231ZM644.56 105V105.516H649.725V105H644.56ZM654.89 105V105.516H660.055V105H654.89ZM665.22 105V105.516H670.385V105H665.22ZM675.549 105V105.516H680.714V105H675.549ZM685.879 105V105.516H691.044V105H685.879ZM696.209 105V105.516H701.374V105H696.209ZM706.538 105V105.516H711.703V105H706.538ZM716.868 105V105.516H722.033V105H716.868ZM727.198 105V105.516H732.363V105H727.198ZM737.527 105V105.516H742.692V105H737.527ZM747.857 105V105.516H753.022V105H747.857ZM758.187 105V105.516H763.352V105H758.187ZM768.516 105V105.516L773.681 105.516V105L768.516 105ZM778.846 105V105.516H784.011V105H778.846ZM789.176 105V105.516H794.341V105H789.176ZM799.505 105V105.516H804.67V105H799.505ZM809.835 105V105.516H815V105H809.835ZM820.165 105V105.516H825.33V105H820.165ZM830.495 105V105.516H835.659V105H830.495ZM840.824 105V105.516H845.989V105H840.824ZM851.154 105V105.516H856.319V105H851.154ZM861.484 105V105.516H866.648V105H861.484ZM871.813 105V105.516H876.978V105H871.813ZM882.143 105V105.516H887.308V105H882.143ZM892.473 105V105.516H897.637V105H892.473ZM902.802 105V105.516H907.967V105H902.802ZM913.132 105V105.516H918.297V105H913.132ZM923.462 105V105.516H928.626V105H923.462ZM933.791 105V105.516H938.956V105H933.791ZM944.121 105V105.516L949.286 105.516V105H944.121ZM954.451 105V105.516H959.615V105H954.451ZM964.78 105V105.516H969.945V105H964.78ZM975.11 105V105.516H980.275V105H975.11ZM985.44 105V105.516H990.604V105H985.44ZM995.769 105V105.516H1000.93V105H995.769ZM1006.1 105V105.516H1011.26V105H1006.1ZM1016.43 105V105.516H1021.59V105H1016.43ZM1026.76 105V105.516H1031.92V105H1026.76ZM1037.09 105V105.516L1042.25 105.516V105L1037.09 105ZM1047.42 105V105.516H1049.48V107.687H1050V105H1047.42ZM1050 113.062H1049.48V118.437H1050V113.062ZM1050 123.812H1049.48V129.187H1050V123.812ZM1050 134.562H1049.48V139.937H1050V134.562ZM1050 145.312H1049.48V150.687H1050V145.312ZM1050 156.062H1049.48V161.438H1050V156.062ZM1050 166.813H1049.48V172.188H1050V166.813ZM1050 177.563H1049.48V182.938H1050V177.563ZM1050 188.313H1049.48V193.688H1050V188.313ZM1050 199.063H1049.48V204.437H1050V199.063ZM1050 209.813H1049.48V215.187H1050V209.813ZM1050 220.563H1049.48V225.937H1050V220.563ZM1050 231.312H1049.48V233.484H1047.42V234H1050V231.312ZM1042.25 234V233.484H1037.09V234H1042.25ZM1031.92 234V233.484H1026.76V234H1031.92ZM1021.59 234V233.484H1016.43V234H1021.59ZM1011.26 234V233.484H1006.1V234H1011.26ZM1000.93 234V233.484H995.769V234H1000.93ZM990.604 234V233.484H985.44V234H990.604ZM980.275 234V233.484H975.11V234H980.275ZM969.945 234V233.484H964.78V234H969.945ZM959.615 234V233.484H954.451V234H959.615ZM949.286 234V233.484H944.121V234H949.286ZM938.956 234V233.484H933.791V234H938.956ZM928.626 234V233.484H923.462V234H928.626ZM918.297 234V233.484H913.132V234H918.297ZM907.967 234V233.484L902.802 233.484V234L907.967 234ZM897.637 234V233.484H892.473V234H897.637ZM887.308 234V233.484H882.143V234H887.308ZM876.978 234V233.484H871.813V234H876.978ZM866.648 234V233.484H861.484V234H866.648ZM856.319 234V233.484H851.154V234H856.319ZM845.989 234V233.484H840.824V234H845.989ZM835.659 234V233.484H830.495V234H835.659ZM825.33 234V233.484H820.165V234H825.33ZM815 234V233.484H809.835V234H815ZM804.67 234V233.484H799.506V234H804.67ZM794.341 234V233.484H789.176V234H794.341ZM784.011 234V233.484H778.846V234H784.011ZM773.681 234V233.484H768.516V234H773.681ZM763.352 234V233.484H758.187V234H763.352ZM753.022 234V233.484H747.857V234H753.022ZM742.692 234V233.484H737.528V234H742.692ZM732.363 234V233.484L727.198 233.484V234L732.363 234ZM722.033 234V233.484H716.868V234H722.033ZM711.703 234V233.484H706.539V234H711.703ZM701.374 234V233.484H696.209V234H701.374ZM691.044 234V233.484H685.879V234H691.044ZM680.714 234V233.484H675.549V234H680.714ZM670.385 234V233.484H665.22V234H670.385ZM660.055 234V233.484H654.89V234H660.055ZM649.725 234V233.484H644.56V234H649.725ZM639.396 234V233.484H634.231V234H639.396ZM629.066 234V233.484H623.901V234H629.066ZM618.736 234V233.484H613.571V234H618.736ZM608.407 234V233.484H603.242V234H608.407ZM598.077 234V233.484H592.912V234H598.077ZM587.747 234V233.484H582.582V234H587.747ZM577.418 234V233.484H572.253V234H577.418ZM567.088 234V233.484H561.923V234H567.088ZM556.758 234V233.484L551.593 233.484V234L556.758 234ZM546.429 234V233.484H541.264V234H546.429ZM536.099 234V233.484H530.934V234H536.099ZM525.769 234V233.484H520.604V234H525.769ZM515.44 234V233.484H510.275V234H515.44ZM505.11 234V233.484H499.945V234H505.11ZM494.78 234V233.484H489.615V234H494.78ZM484.451 234V233.484H479.286V234H484.451ZM474.121 234V233.484H468.956V234H474.121ZM463.791 234V233.484H458.626V234H463.791ZM453.462 234V233.484H448.297V234H453.462ZM443.132 234V233.484H437.967V234H443.132ZM432.802 234V233.484H427.637V234H432.802ZM422.473 234V233.484H417.308V234H422.473ZM412.143 234V233.484H406.978V234H412.143ZM401.813 234V233.484H396.648V234H401.813ZM391.484 234V233.484H386.319V234H391.484ZM381.154 234V233.484H375.989V234H381.154ZM370.824 234V233.484H365.659V234H370.824ZM360.495 234V233.484H355.33V234H360.495ZM350.165 234V233.484H345V234H350.165ZM339.835 234V233.484H334.67V234H339.835ZM329.506 234V233.484H324.341V234H329.506ZM319.176 234V233.484H314.011V234H319.176ZM308.846 234V233.484H303.681V234H308.846ZM298.516 234V233.484H293.352V234H298.516ZM288.187 234V233.484H283.022V234H288.187ZM277.857 234V233.484H272.692V234H277.857ZM267.527 234V233.484H262.363V234H267.527ZM257.198 234V233.484H252.033V234H257.198ZM246.868 234V233.484H241.703V234H246.868ZM236.538 234V233.484H231.374V234H236.538ZM226.209 234V233.484H221.044V234H226.209ZM215.879 234V233.484H210.714V234H215.879ZM205.549 234V233.484H200.385V234H205.549ZM195.22 234V233.484H190.055V234H195.22ZM184.89 234V233.484H179.725V234H184.89ZM174.56 234V233.484H169.396V234H174.56ZM164.231 234V233.484H159.066V234H164.231ZM153.901 234V233.484H148.736V234H153.901ZM143.571 234V233.484H138.407V234H143.571ZM133.242 234V233.484H128.077V234H133.242ZM122.912 234V233.484H117.747V234H122.912ZM112.582 234V233.484H110.517V231.313H110V234H112.582ZM110 225.938H110.517V220.563H110V225.938ZM110 215.188H110.517V209.813H110V215.188ZM110 204.438H110.517V199.063H110V204.438ZM110 193.688H110.517V188.313H110V193.688ZM110 182.938H110.517V177.563H110V182.938ZM110 172.188H110.517V166.812H110V172.188ZM110 161.437H110.517V156.062H110V161.437ZM110 150.687H110.517L110.517 145.312H110L110 150.687ZM110 139.938H110.517V134.562H110V139.938ZM110 129.188H110.517V123.812H110V129.188ZM110 118.438H110.517V113.062H110V118.438Z" fill="white" fill-opacity="0.5"/>
<path fill-rule="evenodd" clip-rule="evenodd" d="M1050 295.42L1050 298L1047.42 298L1047.42 297.484L1049.48 297.484L1049.48 295.42L1050 295.42ZM1037.11 298L1042.26 298L1042.26 297.484L1037.11 297.484L1037.11 298ZM1031.95 298L1031.95 297.484L1026.79 297.484L1026.79 298L1031.95 298ZM1021.63 298L1021.63 297.484L1016.47 297.484L1016.47 298L1021.63 298ZM1011.32 298L1011.32 297.484L1006.16 297.484L1006.16 298L1011.32 298ZM1001 298L1001 297.484L995.841 297.484L995.841 298L1001 298ZM990.682 298L990.682 297.484L985.524 297.484L985.524 298L990.682 298ZM980.366 298L980.366 297.484L975.208 297.484L975.208 298L980.366 298ZM970.05 298L970.05 297.484L964.892 297.484L964.892 298L970.05 298ZM959.733 298L959.733 297.484L954.575 297.484L954.575 298L959.733 298ZM949.417 298L949.417 297.484L944.259 297.484L944.259 298L949.417 298ZM939.101 298L939.101 297.484L933.943 297.484L933.943 298L939.101 298ZM928.784 298L928.784 297.484L923.626 297.484L923.626 298L928.784 298ZM918.468 298L918.468 297.484L913.31 297.484L913.31 298L918.468 298ZM908.152 298L908.152 297.484L902.993 297.484L902.993 298L908.152 298ZM897.835 298L897.835 297.484L892.677 297.484L892.677 298L897.835 298ZM887.519 298L887.519 297.484L882.361 297.484L882.361 298L887.519 298ZM877.203 298L877.203 297.484L872.044 297.484L872.044 298L877.203 298ZM866.886 298L866.886 297.484L861.728 297.484L861.728 298L866.886 298ZM856.57 298L856.57 297.484L851.412 297.484L851.412 298L856.57 298ZM846.254 298L846.254 297.484L841.095 297.484L841.095 298L846.254 298ZM835.937 298L835.937 297.484L830.779 297.484L830.779 298L835.937 298ZM825.621 298L825.621 297.484L820.463 297.484L820.463 298L825.621 298ZM815.305 298L815.305 297.484L810.146 297.484L810.146 298L815.305 298ZM804.988 298L804.988 297.484L799.83 297.484L799.83 298L804.988 298ZM794.672 298L794.672 297.484L789.514 297.484L789.514 298L794.672 298ZM784.356 298L784.356 297.484L779.197 297.484L779.197 298L784.356 298ZM774.039 298L774.039 297.484L768.881 297.484L768.881 298L774.039 298ZM763.723 298L763.723 297.484L758.565 297.484L758.565 298L763.723 298ZM753.406 298L753.406 297.484L748.248 297.484L748.248 298L753.406 298ZM743.09 298L743.09 297.484L737.932 297.484L737.932 298L743.09 298ZM732.774 298L732.774 297.484L727.616 297.484L727.616 298L732.774 298ZM722.457 298L722.457 297.484L717.299 297.484L717.299 298L722.457 298ZM712.141 298L712.141 297.484L706.983 297.484L706.983 298L712.141 298ZM701.825 298L701.825 297.484L696.667 297.484L696.667 298L701.825 298ZM691.508 298L691.508 297.484L686.35 297.484L686.35 298L691.508 298ZM681.192 298L681.192 297.484L676.034 297.484L676.034 298L681.192 298ZM670.876 298L670.876 297.484L665.717 297.484L665.717 298L670.876 298ZM660.559 298L660.559 297.484L655.401 297.484L655.401 298L660.559 298ZM650.243 298L650.243 297.484L645.085 297.484L645.085 298L650.243 298ZM639.927 298L639.927 297.484L634.768 297.484L634.768 298L639.927 298ZM629.61 298L629.61 297.484L624.452 297.484L624.452 298L629.61 298ZM619.294 298L619.294 297.484L614.136 297.484L614.136 298L619.294 298ZM608.978 298L608.978 297.484L603.819 297.484L603.819 298L608.978 298ZM598.661 298L598.661 297.484L593.503 297.484L593.503 298L598.661 298ZM588.345 298L588.345 297.484L583.187 297.484L583.187 298L588.345 298ZM578.028 298L578.028 297.484L572.87 297.484L572.87 298L578.028 298ZM567.712 298L567.712 297.484L562.554 297.484L562.554 298L567.712 298ZM557.396 298L557.396 297.484L552.238 297.484L552.238 298L557.396 298ZM547.079 298L547.079 297.484L541.921 297.484L541.921 298L547.079 298ZM536.763 298L536.763 297.484L531.605 297.484L531.605 298L536.763 298ZM526.447 298L526.447 297.484L521.289 297.484L521.289 298L526.447 298ZM516.13 298L516.13 297.484L510.972 297.484L510.972 298L516.13 298ZM505.814 298L505.814 297.484L500.656 297.484L500.656 298L505.814 298ZM495.498 298L495.498 297.484L490.34 297.484L490.34 298L495.498 298ZM485.181 298L485.181 297.484L480.023 297.484L480.023 298L485.181 298ZM474.865 298L474.865 297.484L469.707 297.484L469.707 298L474.865 298ZM464.549 298L464.549 297.484L459.391 297.484L459.391 298L464.549 298ZM454.232 298L454.232 297.484L449.074 297.484L449.074 298L454.232 298ZM443.916 298L443.916 297.484L438.758 297.484L438.758 298L443.916 298ZM433.6 298L433.6 297.484L428.441 297.484L428.441 298L433.6 298ZM423.283 298L423.283 297.484L418.125 297.484L418.125 298L423.283 298ZM412.967 298L412.967 297.484L407.809 297.484L407.809 298L412.967 298ZM402.651 298L402.651 297.484L397.492 297.484L397.492 298L402.651 298ZM392.334 298L392.334 297.484L387.176 297.484L387.176 298L392.334 298ZM382.018 298L382.018 297.484L376.86 297.484L376.86 298L382.018 298ZM371.701 298L371.701 297.484L366.543 297.484L366.543 298L371.701 298ZM361.385 298L361.385 297.484L356.227 297.484L356.227 298L361.385 298ZM351.069 298L351.069 297.484L345.911 297.484L345.911 298L351.069 298ZM340.752 298L340.752 297.484L335.594 297.484L335.594 298L340.752 298ZM330.436 298L330.436 297.484L325.278 297.484L325.278 298L330.436 298ZM320.12 298L320.12 297.484L314.962 297.484L314.962 298L320.12 298ZM309.803 298L309.803 297.484L304.645 297.484L304.645 298L309.803 298ZM299.487 298L299.487 297.484L294.329 297.484L294.329 298L299.487 298ZM289.171 298L289.171 297.484L284.013 297.484L284.013 298L289.171 298ZM278.854 298L278.854 297.484L273.696 297.484L273.696 298L278.854 298ZM268.538 298L268.538 297.484L263.38 297.484L263.38 298L268.538 298ZM258.222 298L258.222 297.484L253.064 297.484L253.064 298L258.222 298ZM247.906 298L247.906 297.484L242.747 297.484L242.747 298L247.906 298ZM237.589 298L237.589 297.484L232.431 297.484L232.431 298L237.589 298ZM227.273 298L227.273 297.484L222.115 297.484L222.115 298L227.273 298ZM216.957 298L216.957 297.484L211.798 297.484L211.798 298L216.957 298ZM206.64 298L206.64 297.484L201.482 297.484L201.482 298L206.64 298ZM196.324 298L196.324 297.484L191.166 297.484L191.166 298L196.324 298ZM186.008 298L186.008 297.484L180.849 297.484L180.849 298L186.008 298ZM175.691 298L175.691 297.484L170.533 297.484L170.533 298L175.691 298ZM165.375 298L165.375 297.484L160.217 297.484L160.217 298L165.375 298ZM155.059 298L155.059 297.484L149.901 297.484L149.901 298L155.059 298ZM144.742 298L144.742 297.484L139.584 297.484L139.584 298L144.742 298ZM134.426 298L134.426 297.484L129.268 297.484L129.268 298L134.426 298ZM124.11 298L124.11 297.484L118.952 297.484L118.952 298L124.11 298ZM113.793 298L113.793 297.484L108.635 297.484L108.635 298L113.793 298ZM103.477 298L103.477 297.484L98.3188 297.484L98.3188 298L103.477 298ZM93.1607 298L93.1607 297.484L88.0026 297.484L88.0026 298L93.1607 298ZM82.8444 298L82.8444 297.484L77.6862 297.484L77.6862 298L82.8444 298ZM72.5281 298L72.5281 297.484L67.3699 297.484L67.3699 298L72.5281 298ZM62.2118 298L62.2118 297.484L57.0536 297.484L57.0536 298L62.2118 298ZM51.8954 298L51.8954 297.484L46.7372 297.484L46.7372 298L51.8954 298ZM41.5791 298L41.5791 297.484L39.5169 297.484L39.5169 295.42L39 295.42L39 298L41.5791 298ZM39 290.26L39.5169 290.26L39.5169 285.1L39 285.1L39 290.26ZM39 279.94L39.5169 279.94L39.5169 274.78L39 274.78L39 279.94ZM39 269.62L39.5169 269.62L39.5169 264.46L39 264.46L39 269.62ZM39 259.3L39.5169 259.3L39.5169 254.14L39 254.14L39 259.3ZM39 248.98L39.5169 248.98L39.5169 243.82L39 243.82L39 248.98ZM39 238.66L39.5169 238.66L39.5169 233.5L39 233.5L39 238.66ZM39 228.34L39.5169 228.34L39.5169 223.18L39 223.18L39 228.34ZM39 218.02L39.5169 218.02L39.5169 212.86L39 212.86L39 218.02ZM39 207.7L39.5169 207.7L39.5169 202.54L39 202.54L39 207.7ZM39 197.38L39.5169 197.38L39.5169 192.22L39 192.22L39 197.38ZM39 187.06L39.5169 187.06L39.5169 181.9L39 181.9L39 187.06ZM39 176.74L39.5169 176.74L39.5169 171.58L39 171.58L39 176.74ZM39 166.42L39.5169 166.42L39.5169 161.26L39 161.26L39 166.42ZM39 156.1L39.5169 156.1L39.5169 150.94L39 150.94L39 156.1ZM39 145.78L39.5169 145.78L39.5169 140.62L39 140.62L39 145.78ZM39 135.46L39.5169 135.46L39.5169 130.3L39 130.3L39 135.46ZM39 125.14L39.5169 125.14L39.5169 119.98L39 119.98L39 125.14ZM39 114.82L39.5169 114.82L39.5169 109.66L39 109.66L39 114.82ZM39 104.5L39.5169 104.5L39.5169 99.34L39 99.34L39 104.5ZM39 94.18L39.5169 94.18L39.5169 89.02L39 89.02L39 94.18ZM39 83.86L39.5169 83.86L39.5169 78.7L39 78.7L39 83.86ZM39 73.54L39.5169 73.54L39.5169 68.38L39 68.38L39 73.54ZM39 63.22L39.5169 63.22L39.5169 58.06L39 58.06L39 63.22ZM39 52.9L39.5169 52.9L39.5169 47.74L39 47.74L39 52.9ZM39 42.58L39.5169 42.58L39.5169 40.516L41.5777 40.516L41.5777 40L39 40L39 42.58ZM46.7358 40L46.7358 40.516L51.894 40.516L51.894 40L46.7358 40ZM57.0521 40L57.0521 40.516L62.2103 40.516L62.2103 40L57.0521 40ZM67.3686 40L67.3686 40.516L72.5267 40.516L72.5267 40L67.3686 40ZM77.6849 40L77.6849 40.516L82.843 40.516L82.843 40L77.6849 40ZM88.0012 40L88.0012 40.516L93.1594 40.516L93.1594 40L88.0012 40ZM98.3176 40L98.3176 40.516L103.476 40.516L103.476 40L98.3176 40ZM108.634 40L108.634 40.516L113.792 40.516L113.792 40L108.634 40ZM118.95 40L118.95 40.516L124.108 40.516L124.108 40L118.95 40ZM129.267 40L129.267 40.516L134.425 40.516L134.425 40L129.267 40ZM139.583 40L139.583 40.516L144.741 40.516L144.741 40L139.583 40ZM149.899 40L149.899 40.516L155.058 40.516L155.058 40L149.899 40ZM160.216 40L160.216 40.516L165.374 40.516L165.374 40L160.216 40ZM170.532 40L170.532 40.516L175.69 40.516L175.69 40L170.532 40ZM180.848 40L180.848 40.516L186.007 40.516L186.007 40L180.848 40ZM191.165 40L191.165 40.516L196.323 40.516L196.323 40L191.165 40ZM201.481 40L201.481 40.516L206.639 40.516L206.639 40L201.481 40ZM211.797 40L211.797 40.516L216.956 40.516L216.956 40L211.797 40ZM222.114 40L222.114 40.516L227.272 40.516L227.272 40L222.114 40ZM232.43 40L232.43 40.516L237.588 40.516L237.588 40L232.43 40ZM242.746 40L242.746 40.516L247.905 40.516L247.905 40L242.746 40ZM253.063 40L253.063 40.516L258.221 40.516L258.221 40L253.063 40ZM263.379 40L263.379 40.516L268.537 40.516L268.537 40L263.379 40ZM273.696 40L273.696 40.516L278.854 40.516L278.854 40L273.696 40ZM284.012 40L284.012 40.516L289.17 40.516L289.17 40L284.012 40ZM294.328 40L294.328 40.516L299.486 40.516L299.486 40L294.328 40ZM304.645 40L304.645 40.516L309.803 40.516L309.803 40L304.645 40ZM314.961 40L314.961 40.516L320.119 40.516L320.119 40L314.961 40ZM325.277 40L325.277 40.516L330.435 40.516L330.435 40L325.277 40ZM335.594 40L335.594 40.516L340.752 40.516L340.752 40L335.594 40ZM345.91 40L345.91 40.516L351.068 40.516L351.068 40L345.91 40ZM356.226 40L356.226 40.516L361.384 40.516L361.384 40L356.226 40ZM366.543 40L366.543 40.516L371.701 40.516L371.701 40L366.543 40ZM376.859 40L376.859 40.516L382.017 40.516L382.017 40L376.859 40ZM387.175 40L387.175 40.516L392.334 40.516L392.334 40L387.175 40ZM397.492 40L397.492 40.516L402.65 40.516L402.65 40L397.492 40ZM407.808 40L407.808 40.516L412.966 40.516L412.966 40L407.808 40ZM418.124 40L418.124 40.516L423.283 40.516L423.283 40L418.124 40ZM428.441 40L428.441 40.516L433.599 40.516L433.599 40L428.441 40ZM438.757 40L438.757 40.516L443.915 40.516L443.915 40L438.757 40ZM449.073 40L449.073 40.516L454.232 40.516L454.232 40L449.073 40ZM459.39 40L459.39 40.516L464.548 40.516L464.548 40L459.39 40ZM469.706 40L469.706 40.516L474.864 40.516L474.864 40L469.706 40ZM480.022 40L480.022 40.516L485.181 40.516L485.181 40L480.022 40ZM490.339 40L490.339 40.516L495.497 40.516L495.497 40L490.339 40ZM500.655 40L500.655 40.516L505.813 40.516L505.813 40L500.655 40ZM510.972 40L510.972 40.516L516.13 40.516L516.13 40L510.972 40ZM521.288 40L521.288 40.516L526.446 40.516L526.446 40L521.288 40ZM531.604 40L531.604 40.516L536.762 40.516L536.762 40L531.604 40ZM541.921 40L541.921 40.516L547.079 40.516L547.079 40L541.921 40ZM552.237 40L552.237 40.516L557.395 40.516L557.395 40L552.237 40ZM562.553 40L562.553 40.516L567.711 40.516L567.711 40L562.553 40ZM572.87 40L572.87 40.516L578.028 40.516L578.028 40.0001L572.87 40ZM583.186 40.0001L583.186 40.516L588.344 40.516L588.344 40.0001L583.186 40.0001ZM593.502 40.0001L593.502 40.516L598.66 40.516L598.66 40.0001L593.502 40.0001ZM603.819 40.0001L603.819 40.516L608.977 40.516L608.977 40.0001L603.819 40.0001ZM614.135 40.0001L614.135 40.516L619.293 40.516L619.293 40.0001L614.135 40.0001ZM624.451 40.0001L624.451 40.516L629.61 40.516L629.61 40.0001L624.451 40.0001ZM634.768 40.0001L634.768 40.516L639.926 40.516L639.926 40.0001L634.768 40.0001ZM645.084 40.0001L645.084 40.516L650.242 40.516L650.242 40.0001L645.084 40.0001ZM655.4 40.0001L655.4 40.516L660.559 40.516L660.559 40.0001L655.4 40.0001ZM665.717 40.0001L665.717 40.516L670.875 40.516L670.875 40.0001L665.717 40.0001ZM676.033 40.0001L676.033 40.5161L681.191 40.5161L681.191 40.0001L676.033 40.0001ZM686.349 40.0001L686.349 40.5161L691.508 40.5161L691.508 40.0001L686.349 40.0001ZM696.666 40.0001L696.666 40.5161L701.824 40.5161L701.824 40.0001L696.666 40.0001ZM706.982 40.0001L706.982 40.5161L712.14 40.5161L712.14 40.0001L706.982 40.0001ZM717.299 40.0001L717.299 40.5161L722.457 40.5161L722.457 40.0001L717.299 40.0001ZM727.615 40.0001L727.615 40.5161L732.773 40.5161L732.773 40.0001L727.615 40.0001ZM737.931 40.0001L737.931 40.5161L743.089 40.5161L743.089 40.0001L737.931 40.0001ZM748.248 40.0001L748.248 40.5161L753.406 40.5161L753.406 40.0001L748.248 40.0001ZM758.564 40.0001L758.564 40.5161L763.722 40.5161L763.722 40.0001L758.564 40.0001ZM768.88 40.0001L768.88 40.5161L774.038 40.5161L774.038 40.0001L768.88 40.0001ZM779.197 40.0001L779.197 40.5161L784.355 40.5161L784.355 40.0001L779.197 40.0001ZM789.513 40.0001L789.513 40.5161L794.671 40.5161L794.671 40.0001L789.513 40.0001ZM799.829 40.0001L799.829 40.5161L804.987 40.5161L804.987 40.0001L799.829 40.0001ZM810.146 40.0001L810.146 40.5161L815.304 40.5161L815.304 40.0001L810.146 40.0001ZM820.462 40.0001L820.462 40.5161L825.62 40.5161L825.62 40.0001L820.462 40.0001ZM830.778 40.0001L830.778 40.5161L835.936 40.5161L835.936 40.0001L830.778 40.0001ZM841.095 40.0001L841.095 40.5161L846.253 40.5161L846.253 40.0001L841.095 40.0001ZM851.411 40.0001L851.411 40.5161L856.569 40.5161L856.569 40.0001L851.411 40.0001ZM861.727 40.0001L861.727 40.5161L866.885 40.5161L866.885 40.0001L861.727 40.0001ZM872.043 40.0001L872.043 40.5161L877.202 40.5161L877.202 40.0001L872.043 40.0001ZM882.36 40.0001L882.36 40.5161L887.518 40.5161L887.518 40.0001L882.36 40.0001ZM892.676 40.0001L892.676 40.5161L897.834 40.5161L897.834 40.0001L892.676 40.0001ZM902.992 40.0001L902.992 40.5161L908.151 40.5161L908.151 40.0001L902.992 40.0001ZM913.309 40.0001L913.309 40.5161L918.467 40.5161L918.467 40.0001L913.309 40.0001ZM923.625 40.0001L923.625 40.5161L928.783 40.5161L928.783 40.0001L923.625 40.0001ZM933.941 40.0001L933.941 40.5161L939.1 40.5161L939.1 40.0001L933.941 40.0001ZM944.258 40.0001L944.258 40.5161L949.416 40.5161L949.416 40.0001L944.258 40.0001ZM954.574 40.0001L954.574 40.5161L959.732 40.5161L959.732 40.0001L954.574 40.0001ZM964.89 40.0001L964.89 40.5161L970.048 40.5161L970.048 40.0001L964.89 40.0001ZM975.207 40.0001L975.207 40.5161L980.365 40.5161L980.365 40.0001L975.207 40.0001ZM985.523 40.0001L985.523 40.5161L990.681 40.5161L990.681 40.0001L985.523 40.0001ZM995.839 40.0001L995.839 40.5161L1001 40.5161L1001 40.0001L995.839 40.0001ZM1006.16 40.0001L1006.16 40.5161L1011.31 40.5161L1011.31 40.0001L1006.16 40.0001ZM1016.47 40.0001L1016.47 40.5161L1021.63 40.5161L1021.63 40.0001L1016.47 40.0001ZM1026.79 40.0001L1026.79 40.5161L1031.95 40.5161L1031.95 40.0001L1026.79 40.0001ZM1037.1 40.0001L1037.1 40.5161L1042.26 40.5161L1042.26 40.0001L1037.1 40.0001ZM1047.42 40.0001L1047.42 40.5161L1049.48 40.5161L1049.48 42.58L1050 42.58L1050 40.0001L1047.42 40.0001ZM1050 47.74L1049.48 47.74L1049.48 52.9L1050 52.9L1050 47.74ZM1050 58.06L1049.48 58.06L1049.48 63.22L1050 63.22L1050 58.06ZM1050 68.38L1049.48 68.38L1049.48 73.54L1050 73.54L1050 68.38ZM1050 78.7L1049.48 78.7L1049.48 83.86L1050 83.86L1050 78.7ZM1050 89.02L1049.48 89.02L1049.48 94.18L1050 94.18L1050 89.02ZM1050 99.34L1049.48 99.34L1049.48 104.5L1050 104.5L1050 99.34ZM1050 109.66L1049.48 109.66L1049.48 114.82L1050 114.82L1050 109.66ZM1050 119.98L1049.48 119.98L1049.48 125.14L1050 125.14L1050 119.98ZM1050 130.3L1049.48 130.3L1049.48 135.46L1050 135.46L1050 130.3ZM1050 140.62L1049.48 140.62L1049.48 145.78L1050 145.78L1050 140.62ZM1050 150.94L1049.48 150.94L1049.48 156.1L1050 156.1L1050 150.94ZM1050 161.26L1049.48 161.26L1049.48 166.42L1050 166.42L1050 161.26ZM1050 171.58L1049.48 171.58L1049.48 176.74L1050 176.74L1050 171.58ZM1050 181.9L1049.48 181.9L1049.48 187.06L1050 187.06L1050 181.9ZM1050 192.22L1049.48 192.22L1049.48 197.38L1050 197.38L1050 192.22ZM1050 202.54L1049.48 202.54L1049.48 207.7L1050 207.7L1050 202.54ZM1050 212.86L1049.48 212.86L1049.48 218.02L1050 218.02L1050 212.86ZM1050 223.18L1049.48 223.18L1049.48 228.34L1050 228.34L1050 223.18ZM1050 233.5L1049.48 233.5L1049.48 238.66L1050 238.66L1050 233.5ZM1050 243.82L1049.48 243.82L1049.48 248.98L1050 248.98L1050 243.82ZM1050 254.14L1049.48 254.14L1049.48 259.3L1050 259.3L1050 254.14ZM1050 264.46L1049.48 264.46L1049.48 269.62L1050 269.62L1050 264.46ZM1050 274.78L1049.48 274.78L1049.48 279.94L1050 279.94L1050 274.78ZM1050 285.1L1049.48 285.1L1049.48 290.26L1050 290.26L1050 285.1Z" fill="white" fill-opacity="0.5"/>
<path d="M98 115.32C98 109.62 102.477 105 108 105H110V234H108C102.477 234 98 229.38 98 223.68V115.32Z" fill="white"/>
<path d="M27 50.32C27 44.6204 31.4772 40 37 40H39V298H37C31.4772 298 27 293.38 27 287.68V50.32Z" fill="white"/>
<path d="M453.68 28C459.38 28 464 32.4772 464 38L464 40L421 40L421 38C421 32.4772 425.62 28 431.32 28L453.68 28Z" fill="white"/>
<path fill-rule="evenodd" clip-rule="evenodd" d="M411.002 120C397.681 88.1 372.027 62.6381 340 49.5779L371.373 41.354C400.662 33.6762 427.464 59.8963 419.616 88.5504L411.002 120Z" fill="#9A9A9A"/>
<path fill-rule="evenodd" clip-rule="evenodd" d="M292.5 298C364.021 298 422 240.245 422 169C422 97.7553 364.021 40 292.5 40C220.979 40 163 97.7553 163 169C163 240.245 220.979 298 292.5 298ZM292.5 248.385C336.513 248.385 372.192 212.843 372.192 169C372.192 125.157 336.513 89.6154 292.5 89.6154C248.487 89.6154 212.808 125.157 212.808 169C212.808 212.843 248.487 248.385 292.5 248.385Z" fill="white"/>
<path d="M681.447 264.68V248.271H676.621L672.712 258.185L668.802 248.271H664V264.68H667.427V253.191L671.963 264.68H673.46L677.996 253.191V264.68H681.447Z" fill="white"/>
<path d="M699.654 264.68L693.452 248.271H689.157L682.931 264.68H686.84L687.854 261.9H694.755L695.745 264.68H699.654ZM693.814 258.825H688.795L691.304 251.764L693.814 258.825Z" fill="white"/>
<path d="M714.171 264.68L710.552 258.431C712.289 258.013 714.075 256.463 714.075 253.56C714.075 250.509 712.024 248.271 708.669 248.271H701.14V264.68H704.567V258.849H707.077L710.238 264.68H714.171ZM708.163 255.774H704.567V251.346H708.163C709.538 251.346 710.576 252.182 710.576 253.56C710.576 254.938 709.538 255.774 708.163 255.774Z" fill="white"/>
<path d="M730.426 264.68L723.597 255.971L729.992 248.271H725.769L720.074 255.602V248.271H716.647V264.68H720.074V259.637L721.328 258.111L726.203 264.68H730.426Z" fill="white"/>
<path d="M743.379 264.68V261.605H735.415V257.89H743.21V254.815H735.415V251.346H743.379V248.271H731.988V264.68H743.379Z" fill="white"/>
<path d="M753.225 264.68V251.346H757.906V248.271H745.068V251.346H749.774V264.68H753.225Z" fill="white"/>
<path d="M763.53 264.68V248.271H760.103V264.68H763.53Z" fill="white"/>
<path d="M781.132 264.68V248.271H777.705V258.579L770.248 248.271H766.725V264.68H770.152V253.978L777.826 264.68H781.132Z" fill="white"/>
<path d="M792.1 265C795.02 265 797.312 263.77 798.953 261.9V255.602H791.28V258.653H795.527V260.621C794.875 261.236 793.524 261.876 792.1 261.876C789.18 261.876 787.056 259.588 787.056 256.488C787.056 253.388 789.18 251.1 792.1 251.1C793.813 251.1 795.189 252.084 795.913 253.24L798.76 251.666C797.554 249.722 795.454 248 792.1 248C787.394 248 783.533 251.297 783.533 256.488C783.533 261.654 787.394 265 792.1 265Z" fill="white"/>
<path d="M814.195 264.68C819.238 264.68 822.737 261.433 822.737 256.488C822.737 251.543 819.238 248.271 814.195 248.271H807.848V264.68H814.195ZM814.195 261.605H811.275V251.346H814.195C817.501 251.346 819.238 253.585 819.238 256.488C819.238 259.268 817.38 261.605 814.195 261.605Z" fill="white"/>
<path d="M828.596 264.68V248.271H825.169V264.68H828.596Z" fill="white"/>
<path d="M839.586 265C842.506 265 844.798 263.77 846.439 261.9V255.602H838.765V258.653H843.013V260.621C842.361 261.236 841.01 261.876 839.586 261.876C836.666 261.876 834.542 259.588 834.542 256.488C834.542 253.388 836.666 251.1 839.586 251.1C841.299 251.1 842.675 252.084 843.399 253.24L846.246 251.666C845.04 249.722 842.94 248 839.586 248C834.88 248 831.019 251.297 831.019 256.488C831.019 261.654 834.88 265 839.586 265Z" fill="white"/>
<path d="M852.586 264.68V248.271H849.16V264.68H852.586Z" fill="white"/>
<path d="M862.949 264.68V251.346H867.63V248.271H854.792V251.346H859.498V264.68H862.949Z" fill="white"/>
<path d="M883.282 264.68L877.08 248.271H872.784L866.558 264.68H870.468L871.481 261.9H878.383L879.372 264.68H883.282ZM877.442 258.825H872.422L874.932 251.764L877.442 258.825Z" fill="white"/>
<path d="M895 264.68V261.605H888.195V248.271H884.768V264.68H895Z" fill="white"/>
<path d="M83.8333 180.094C83.8333 180.198 83.8 180.285 83.7333 180.358C83.6556 180.42 83.5611 180.451 83.45 180.451L74.1167 180.451L76.25 183.024C76.3167 183.096 76.35 183.173 76.35 183.256C76.35 183.349 76.2944 183.437 76.1833 183.52L75.6333 183.923C75.5556 183.974 75.4778 184 75.4 184C75.2667 184 75.1611 183.948 75.0833 183.845L72.2833 180.466C72.2056 180.353 72.1667 180.218 72.1667 180.063L72.1667 179.273C72.1667 179.17 72.2056 179.087 72.2833 179.025C72.35 178.953 72.4389 178.916 72.55 178.916L83.45 178.916C83.5611 178.916 83.6556 178.953 83.7333 179.025C83.8 179.087 83.8333 179.17 83.8333 179.273L83.8333 180.094Z" fill="white"/>
<path d="M84 172.829C84 174.162 83.5833 175.139 82.75 175.759C81.9167 176.379 80.8222 176.709 79.4667 176.751C79.1667 176.761 78.6833 176.766 78.0167 176.766C77.3278 176.766 76.8278 176.761 76.5167 176.751C75.1833 176.72 74.1 176.389 73.2667 175.759C72.4222 175.128 72 174.152 72 172.829C72 171.497 72.4222 170.515 73.2667 169.885C74.1 169.254 75.1833 168.924 76.5167 168.893C77.1389 168.872 77.6389 168.862 78.0167 168.862C78.3833 168.862 78.8667 168.872 79.4667 168.893C80.8222 168.934 81.9167 169.265 82.75 169.885C83.5833 170.505 84 171.486 84 172.829ZM82.5667 172.829C82.5667 172.054 82.2889 171.471 81.7333 171.078C81.1778 170.675 80.3944 170.463 79.3833 170.443C78.7389 170.422 78.2722 170.412 77.9833 170.412C77.6722 170.412 77.2167 170.422 76.6167 170.443C75.6167 170.463 74.8333 170.67 74.2667 171.063C73.7 171.455 73.4167 172.044 73.4167 172.829C73.4167 173.604 73.7 174.193 74.2667 174.596C74.8333 174.989 75.6167 175.196 76.6167 175.216L77.9833 175.232L79.3833 175.216C80.3944 175.196 81.1778 174.989 81.7333 174.596C82.2889 174.193 82.5667 173.604 82.5667 172.829Z" fill="white"/>
<path d="M84 162.991C84 164.324 83.5833 165.301 82.75 165.921C81.9167 166.54 80.8222 166.871 79.4667 166.912C79.1667 166.923 78.6833 166.928 78.0167 166.928C77.3278 166.928 76.8278 166.923 76.5167 166.912C75.1833 166.881 74.1 166.551 73.2667 165.921C72.4222 165.29 72 164.314 72 162.991C72 161.658 72.4222 160.677 73.2667 160.046C74.1 159.416 75.1833 159.086 76.5167 159.055C77.1389 159.034 77.6389 159.024 78.0167 159.024C78.3833 159.024 78.8667 159.034 79.4667 159.055C80.8222 159.096 81.9167 159.426 82.75 160.046C83.5833 160.666 84 161.648 84 162.991ZM82.5667 162.991C82.5667 162.216 82.2889 161.632 81.7333 161.24C81.1778 160.837 80.3944 160.625 79.3833 160.604C78.7389 160.584 78.2722 160.573 77.9833 160.573C77.6722 160.573 77.2167 160.584 76.6167 160.604C75.6167 160.625 74.8333 160.832 74.2667 161.224C73.7 161.617 73.4167 162.206 73.4167 162.991C73.4167 163.766 73.7 164.355 74.2667 164.758C74.8333 165.151 75.6167 165.357 76.6167 165.378L77.9833 165.394L79.3833 165.378C80.3944 165.357 81.1778 165.151 81.7333 164.758C82.2889 164.355 82.5667 163.766 82.5667 162.991Z" fill="white"/>
<path d="M78.0167 155.075C78.0167 155.747 77.8278 156.279 77.45 156.671C77.0611 157.054 76.5278 157.265 75.85 157.307C75.6611 157.317 75.4167 157.322 75.1167 157.322C74.7944 157.322 74.5333 157.317 74.3333 157.307C73.6444 157.276 73.1 157.074 72.7 156.702C72.2889 156.32 72.0833 155.778 72.0833 155.075C72.0833 154.372 72.2889 153.835 72.7 153.463C73.1 153.081 73.6444 152.874 74.3333 152.843C74.7778 152.822 75.0611 152.812 75.1833 152.812C75.2944 152.812 75.5167 152.822 75.85 152.843C76.5278 152.874 77.0611 153.086 77.45 153.479C77.8278 153.871 78.0167 154.403 78.0167 155.075ZM83.8333 156.377C83.8333 156.47 83.8056 156.547 83.75 156.609C83.6833 156.671 83.6 156.702 83.5 156.702C83.4333 156.702 83.3722 156.682 83.3167 156.64L72.4833 148.984C72.3611 148.901 72.2778 148.829 72.2333 148.767C72.1889 148.695 72.1667 148.596 72.1667 148.472L72.1667 147.961C72.1667 147.858 72.2 147.78 72.2667 147.728C72.3222 147.666 72.4 147.635 72.5 147.635C72.5667 147.635 72.6278 147.656 72.6833 147.697L83.5167 155.338C83.6389 155.421 83.7222 155.499 83.7667 155.571C83.8111 155.633 83.8333 155.731 83.8333 155.865L83.8333 156.377ZM76.9833 155.075C76.9833 154.703 76.8667 154.434 76.6333 154.269C76.4 154.093 76.1167 153.99 75.7833 153.959C75.3833 153.938 75.15 153.928 75.0833 153.928C74.9833 153.928 74.7556 153.938 74.4 153.959C74.0556 153.98 73.7667 154.083 73.5333 154.269C73.3 154.445 73.1833 154.713 73.1833 155.075C73.1833 155.437 73.3 155.705 73.5333 155.881C73.7667 156.057 74.0556 156.155 74.4 156.175C74.5778 156.186 74.8056 156.191 75.0833 156.191C75.35 156.191 75.5833 156.186 75.7833 156.175C76.1278 156.144 76.4167 156.046 76.65 155.881C76.8722 155.705 76.9833 155.437 76.9833 155.075ZM83.9333 149.278C83.9333 149.95 83.7333 150.482 83.3333 150.875C82.9222 151.257 82.3778 151.469 81.7 151.51C81.5111 151.521 81.2667 151.526 80.9667 151.526C80.6444 151.526 80.3833 151.521 80.1833 151.51C79.4944 151.469 78.95 151.262 78.55 150.89C78.1389 150.508 77.9333 149.971 77.9333 149.278C77.9333 148.576 78.1389 148.038 78.55 147.666C78.95 147.284 79.4944 147.072 80.1833 147.031C80.5833 147.01 80.8444 147 80.9667 147C81.0778 147 81.3222 147.01 81.7 147.031C82.3778 147.072 82.9222 147.289 83.3333 147.682C83.7333 148.075 83.9333 148.607 83.9333 149.278ZM82.8333 149.278C82.8333 148.906 82.7167 148.638 82.4833 148.472C82.25 148.297 81.9667 148.193 81.6333 148.162C81.2333 148.142 81 148.131 80.9333 148.131C80.8333 148.131 80.6056 148.142 80.25 148.162C79.9056 148.183 79.6167 148.281 79.3833 148.457C79.15 148.633 79.0333 148.906 79.0333 149.278C79.0333 149.64 79.15 149.909 79.3833 150.084C79.6167 150.26 79.9056 150.358 80.25 150.379C80.4278 150.389 80.6556 150.394 80.9333 150.394C81.2 150.394 81.4333 150.389 81.6333 150.379C81.9667 150.348 82.25 150.25 82.4833 150.084C82.7167 149.909 82.8333 149.64 82.8333 149.278Z" fill="white"/>
<path d="M432.013 12C431.184 12 430.465 11.8611 429.857 11.5833C429.259 11.2944 428.803 10.9222 428.488 10.4667C428.184 10.0111 428.021 9.53333 428 9.03333C428 8.93333 428.031 8.85556 428.094 8.8C428.157 8.73333 428.236 8.7 428.33 8.7L429.102 8.7C429.322 8.7 429.469 8.82222 429.542 9.06667C429.679 9.62222 429.972 10.0167 430.423 10.25C430.875 10.4722 431.404 10.5833 432.013 10.5833C432.758 10.5833 433.351 10.4 433.791 10.0333C434.232 9.65556 434.452 9.11667 434.452 8.41667C434.452 7.07222 433.681 6.4 432.139 6.4L430.644 6.4C430.539 6.4 430.45 6.36667 430.376 6.3C430.313 6.22222 430.282 6.12778 430.282 6.01667V5.56667C430.282 5.41111 430.34 5.26111 430.455 5.11667L433.508 1.58333L428.866 1.58333C428.761 1.58333 428.671 1.55 428.598 1.48333C428.535 1.40556 428.504 1.31111 428.504 1.2V0.566666C428.504 0.455555 428.535 0.361111 428.598 0.283334C428.671 0.205556 428.761 0.166666 428.866 0.166666L435.145 0.166666C435.26 0.166666 435.349 0.205556 435.412 0.283334C435.486 0.35 435.522 0.444444 435.522 0.566666V1.16667C435.522 1.3 435.465 1.42778 435.349 1.55L432.312 5.13333L432.564 5.15C433.634 5.18333 434.478 5.47778 435.097 6.03333C435.716 6.58889 436.026 7.4 436.026 8.46667C436.026 9.18889 435.853 9.81667 435.506 10.35C435.16 10.8833 434.683 11.2944 434.074 11.5833C433.466 11.8611 432.779 12 432.013 12Z" fill="white"/>
<path d="M441.763 12C440.41 12 439.418 11.5833 438.789 10.75C438.159 9.91667 437.824 8.82222 437.782 7.46667C437.771 7.16667 437.766 6.68333 437.766 6.01667C437.766 5.32778 437.771 4.82778 437.782 4.51667C437.813 3.18333 438.149 2.1 438.789 1.26667C439.429 0.422222 440.42 0 441.763 0C443.117 0 444.113 0.422222 444.753 1.26667C445.393 2.1 445.729 3.18333 445.76 4.51667C445.781 5.13889 445.792 5.63889 445.792 6.01667C445.792 6.38333 445.781 6.86667 445.76 7.46667C445.718 8.82222 445.383 9.91667 444.753 10.75C444.124 11.5833 443.127 12 441.763 12ZM441.763 10.5667C442.55 10.5667 443.143 10.2889 443.542 9.73333C443.951 9.17778 444.166 8.39444 444.187 7.38333C444.208 6.73889 444.218 6.27222 444.218 5.98333C444.218 5.67222 444.208 5.21667 444.187 4.61667C444.166 3.61667 443.956 2.83333 443.557 2.26667C443.159 1.7 442.561 1.41667 441.763 1.41667C440.976 1.41667 440.378 1.7 439.969 2.26667C439.571 2.83333 439.361 3.61667 439.34 4.61667L439.324 5.98333L439.34 7.38333C439.361 8.39444 439.571 9.17778 439.969 9.73333C440.378 10.2889 440.976 10.5667 441.763 10.5667Z" fill="white"/>
<path d="M449.801 6.01667C449.119 6.01667 448.579 5.82778 448.18 5.45C447.792 5.06111 447.577 4.52778 447.535 3.85C447.524 3.66111 447.519 3.41667 447.519 3.11667C447.519 2.79444 447.524 2.53333 447.535 2.33333C447.566 1.64444 447.771 1.1 448.149 0.7C448.537 0.288889 449.088 0.0833331 449.801 0.0833331C450.514 0.0833331 451.06 0.288889 451.438 0.7C451.826 1.1 452.036 1.64444 452.067 2.33333C452.088 2.77778 452.099 3.06111 452.099 3.18333C452.099 3.29444 452.088 3.51667 452.067 3.85C452.036 4.52778 451.821 5.06111 451.422 5.45C451.023 5.82778 450.483 6.01667 449.801 6.01667ZM448.479 11.8333C448.385 11.8333 448.306 11.8056 448.243 11.75C448.18 11.6833 448.149 11.6 448.149 11.5C448.149 11.4333 448.17 11.3722 448.212 11.3167L455.986 0.483333C456.07 0.361111 456.143 0.277778 456.206 0.233333C456.279 0.188889 456.379 0.166666 456.505 0.166666L457.024 0.166666C457.129 0.166666 457.208 0.2 457.26 0.266667C457.323 0.322223 457.355 0.400001 457.355 0.500001C457.355 0.566667 457.334 0.627778 457.292 0.683334L449.534 11.5167C449.45 11.6389 449.371 11.7222 449.298 11.7667C449.235 11.8111 449.135 11.8333 448.999 11.8333H448.479ZM449.801 4.98333C450.179 4.98333 450.452 4.86667 450.619 4.63333C450.798 4.4 450.903 4.11667 450.934 3.78333C450.955 3.38333 450.966 3.15 450.966 3.08333C450.966 2.98333 450.955 2.75556 450.934 2.4C450.913 2.05556 450.808 1.76667 450.619 1.53333C450.441 1.3 450.168 1.18333 449.801 1.18333C449.434 1.18333 449.161 1.3 448.983 1.53333C448.804 1.76667 448.705 2.05556 448.684 2.4C448.673 2.57778 448.668 2.80556 448.668 3.08333C448.668 3.35 448.673 3.58333 448.684 3.78333C448.715 4.12778 448.815 4.41667 448.983 4.65C449.161 4.87222 449.434 4.98333 449.801 4.98333ZM455.687 11.9333C455.005 11.9333 454.464 11.7333 454.066 11.3333C453.678 10.9222 453.463 10.3778 453.421 9.7C453.41 9.51111 453.405 9.26667 453.405 8.96667C453.405 8.64444 453.41 8.38333 453.421 8.18333C453.463 7.49444 453.672 6.95 454.05 6.55C454.438 6.13889 454.984 5.93333 455.687 5.93333C456.4 5.93333 456.946 6.13889 457.323 6.55C457.711 6.95 457.927 7.49444 457.969 8.18333C457.99 8.58333 458 8.84444 458 8.96667C458 9.07778 457.99 9.32222 457.969 9.7C457.927 10.3778 457.706 10.9222 457.308 11.3333C456.909 11.7333 456.369 11.9333 455.687 11.9333ZM455.687 10.8333C456.064 10.8333 456.337 10.7167 456.505 10.4833C456.683 10.25 456.788 9.96667 456.82 9.63333C456.841 9.23333 456.851 9 456.851 8.93333C456.851 8.83333 456.841 8.60556 456.82 8.25C456.799 7.90556 456.699 7.61667 456.521 7.38333C456.342 7.15 456.064 7.03333 455.687 7.03333C455.319 7.03333 455.047 7.15 454.868 7.38333C454.69 7.61667 454.59 7.90556 454.569 8.25C454.559 8.42778 454.554 8.65555 454.554 8.93333C454.554 9.2 454.559 9.43333 454.569 9.63333C454.601 9.96667 454.701 10.25 454.868 10.4833C455.047 10.7167 455.319 10.8333 455.687 10.8333Z" fill="white"/>
<path d="M10.8474 183.644C10.8474 183.747 10.8169 183.835 10.7559 183.907C10.6847 183.969 10.5982 184 10.4965 184L10.0083 184C9.77439 184 9.55063 183.871 9.33703 183.613L6.10264 180.334C5.45169 179.54 4.92279 178.994 4.51595 178.695C4.09894 178.396 3.66158 178.246 3.20388 178.246C2.61396 178.246 2.15118 178.416 1.81553 178.757C1.47989 179.087 1.31207 179.571 1.31207 180.211C1.31207 180.809 1.49006 181.288 1.84605 181.649C2.19186 182.01 2.65465 182.232 3.2344 182.314C3.35645 182.335 3.44799 182.386 3.50902 182.469C3.55987 182.541 3.5853 182.623 3.5853 182.716L3.5853 183.521C3.5853 183.613 3.55987 183.691 3.50902 183.753C3.44799 183.814 3.37679 183.845 3.29542 183.845C2.74619 183.825 2.22238 183.675 1.72399 183.397C1.21544 183.118 0.803514 182.711 0.488211 182.175C0.162737 181.628 -1.3229e-07 180.974 -1.65644e-07 180.211C-2.16577e-07 179.045 0.300046 178.169 0.900139 177.581C1.49006 176.983 2.24272 176.684 3.15811 176.684C3.79889 176.684 4.37864 176.849 4.89737 177.179C5.40592 177.499 5.95516 177.999 6.54508 178.679L9.52011 181.649L9.52011 176.823C9.52011 176.71 9.55571 176.622 9.62691 176.56C9.68794 176.488 9.7693 176.452 9.87101 176.452L10.4965 176.452C10.5982 176.452 10.6847 176.488 10.7559 176.56C10.8169 176.632 10.8474 176.72 10.8474 176.823L10.8474 183.644Z" fill="white"/>
<path d="M11 170.777C11 172.107 10.6186 173.081 9.85576 173.7C9.09293 174.319 8.09108 174.649 6.85021 174.69C6.57559 174.7 6.13315 174.705 5.52289 174.705C4.89228 174.705 4.43458 174.7 4.14979 174.69C2.92927 174.659 1.93759 174.329 1.17476 173.7C0.401756 173.071 0.0152559 172.097 0.0152559 170.777C0.0152558 169.447 0.401756 168.467 1.17476 167.838C1.93759 167.209 2.92926 166.879 4.14979 166.848C4.71937 166.827 5.17707 166.817 5.52289 166.817C5.85853 166.817 6.30097 166.827 6.85021 166.848C8.09108 166.889 9.09293 167.219 9.85576 167.838C10.6186 168.457 11 169.436 11 170.777ZM9.68793 170.777C9.68793 170.003 9.43366 169.421 8.9251 169.029C8.41655 168.627 7.69949 168.415 6.77393 168.395C6.184 168.374 5.75682 168.364 5.49237 168.364C5.20758 168.364 4.79057 168.374 4.24133 168.395C3.32594 168.415 2.60888 168.622 2.09015 169.013C1.57143 169.405 1.31207 169.993 1.31207 170.777C1.31207 171.55 1.57143 172.138 2.09015 172.54C2.60888 172.932 3.32594 173.138 4.24133 173.159L5.49237 173.174L6.77393 173.159C7.69949 173.138 8.41655 172.932 8.9251 172.54C9.43366 172.138 9.68793 171.55 9.68793 170.777Z" fill="white"/>
<path d="M11 160.959C11 162.289 10.6186 163.263 9.85576 163.882C9.09293 164.501 8.09108 164.831 6.85021 164.872C6.57559 164.882 6.13315 164.887 5.52289 164.887C4.89228 164.887 4.43458 164.882 4.14979 164.872C2.92926 164.841 1.93759 164.511 1.17476 163.882C0.401756 163.253 0.0152555 162.279 0.0152554 160.959C0.0152554 159.628 0.401756 158.649 1.17476 158.02C1.93759 157.391 2.92926 157.061 4.14979 157.03C4.71937 157.009 5.17707 156.999 5.52289 156.999C5.85853 156.999 6.30097 157.009 6.85021 157.03C8.09108 157.071 9.09293 157.401 9.85576 158.02C10.6186 158.639 11 159.618 11 160.959ZM9.68793 160.959C9.68793 160.185 9.43366 159.603 8.9251 159.211C8.41655 158.809 7.69949 158.597 6.77393 158.577C6.184 158.556 5.75682 158.546 5.49237 158.546C5.20758 158.546 4.79057 158.556 4.24133 158.577C3.32594 158.597 2.60888 158.804 2.09015 159.195C1.57143 159.587 1.31207 160.175 1.31207 160.959C1.31207 161.732 1.57143 162.32 2.09015 162.722C2.60888 163.114 3.32594 163.32 4.24133 163.341L5.49237 163.356L6.77393 163.341C7.69949 163.32 8.41655 163.114 8.9251 162.722C9.43366 162.32 9.68793 161.732 9.68793 160.959Z" fill="white"/>
<path d="M5.52289 153.058C5.52289 153.729 5.34998 154.26 5.00416 154.652C4.64817 155.033 4.15996 155.245 3.53953 155.286C3.36662 155.296 3.14286 155.301 2.86824 155.301C2.57328 155.301 2.33426 155.296 2.15118 155.286C1.52057 155.255 1.02219 155.054 0.656032 154.683C0.279703 154.301 0.0915379 153.76 0.0915379 153.058C0.0915378 152.357 0.279702 151.821 0.656032 151.45C1.02219 151.068 1.52057 150.862 2.15118 150.831C2.55802 150.811 2.81738 150.8 2.92926 150.8C3.03097 150.8 3.2344 150.811 3.53953 150.831C4.15996 150.862 4.64817 151.074 5.00416 151.465C5.34998 151.857 5.52289 152.388 5.52289 153.058ZM10.8474 154.358C10.8474 154.451 10.822 154.528 10.7712 154.59C10.7101 154.652 10.6338 154.683 10.5423 154.683C10.4813 154.683 10.4253 154.662 10.3745 154.621L0.457696 146.98C0.345814 146.897 0.269531 146.825 0.228847 146.763C0.188163 146.691 0.167821 146.593 0.167821 146.469L0.167821 145.959C0.167821 145.856 0.198334 145.779 0.259361 145.727C0.310216 145.665 0.381413 145.634 0.472953 145.634C0.533979 145.634 0.58992 145.655 0.640775 145.696L10.5576 153.321C10.6694 153.404 10.7457 153.481 10.7864 153.553C10.8271 153.615 10.8474 153.713 10.8474 153.847L10.8474 154.358ZM4.57698 153.058C4.57698 152.687 4.47018 152.419 4.25659 152.254C4.043 152.079 3.78363 151.976 3.4785 151.945C3.11234 151.924 2.89875 151.914 2.83772 151.914C2.74618 151.914 2.53768 151.924 2.2122 151.945C1.8969 151.965 1.63245 152.069 1.41886 152.254C1.20527 152.429 1.09847 152.698 1.09847 153.058C1.09847 153.419 1.20527 153.687 1.41886 153.863C1.63245 154.038 1.8969 154.136 2.2122 154.157C2.37494 154.167 2.58345 154.172 2.83772 154.172C3.08183 154.172 3.29542 154.167 3.4785 154.157C3.7938 154.126 4.05825 154.028 4.27184 153.863C4.47527 153.687 4.57698 153.419 4.57698 153.058ZM10.939 147.274C10.939 147.944 10.7559 148.475 10.3897 148.867C10.0134 149.248 9.51503 149.46 8.89459 149.501C8.72168 149.511 8.49792 149.516 8.2233 149.516C7.92834 149.516 7.68932 149.511 7.50624 149.501C6.87564 149.46 6.37725 149.254 6.0111 148.882C5.63477 148.501 5.4466 147.965 5.4466 147.274C5.4466 146.573 5.63477 146.036 6.0111 145.665C6.37725 145.284 6.87564 145.072 7.50624 145.031C7.8724 145.01 8.11142 145 8.2233 145C8.32501 145 8.54878 145.01 8.89459 145.031C9.51503 145.072 10.0134 145.289 10.3897 145.681C10.7559 146.072 10.939 146.603 10.939 147.274ZM9.93204 147.274C9.93204 146.902 9.82524 146.634 9.61165 146.469C9.39806 146.294 9.1387 146.191 8.83357 146.16C8.46741 146.139 8.25381 146.129 8.19279 146.129C8.10125 146.129 7.89274 146.139 7.56727 146.16C7.25196 146.181 6.98752 146.279 6.77393 146.454C6.56033 146.629 6.45354 146.902 6.45354 147.274C6.45354 147.635 6.56033 147.903 6.77393 148.078C6.98752 148.253 7.25196 148.351 7.56727 148.372C7.73 148.382 7.93851 148.387 8.19279 148.387C8.43689 148.387 8.65049 148.382 8.83357 148.372C9.1387 148.341 9.39806 148.243 9.61165 148.078C9.82524 147.903 9.93204 147.635 9.93204 147.274Z" fill="white"/>
</svg>
