<svg width="79" height="79" viewBox="0 0 79 79" fill="none" xmlns="http://www.w3.org/2000/svg">
<rect width="78.6946" height="78.6946" rx="39.3473" fill="#1B2124"/>
<mask id="mask0" mask-type="alpha" maskUnits="userSpaceOnUse" x="17" y="21" width="46" height="41">
<path d="M56.6205 21L53.4263 24.1942C59.6001 30.368 59.6001 40.8046 53.4263 46.9784L56.6205 50.1726C64.527 42.2662 64.527 28.9065 56.6205 21ZM46.6493 30.9712C47.9279 32.2498 48.6349 33.8898 48.6349 35.5863C48.6349 37.2828 47.9279 38.9229 46.6493 40.2014L49.8435 43.3957C51.976 41.2654 53.1529 38.4891 53.1529 35.5863C53.1529 32.6835 51.976 29.9072 49.8435 27.777L46.6493 30.9712ZM26.1241 24.1942L22.9299 21C15.0234 28.9065 15.0234 42.2662 22.9299 50.1726L26.1241 46.9784C19.9502 40.8046 19.9502 30.368 26.1241 24.1942Z" fill="black"/>
<path d="M28.5775 27.7773C26.445 29.9076 25.2681 32.6839 25.2681 35.5867C25.2681 38.4895 26.445 41.2658 28.5775 43.396L31.7717 40.2018C30.4931 38.9232 29.7861 37.2832 29.7861 35.5867C29.7861 33.8902 30.4931 32.2502 31.7717 30.9716L28.5775 27.7773ZM43.7286 35.0219C43.7286 32.528 41.7045 30.5039 39.2106 30.5039C36.7166 30.5039 34.6926 32.528 34.6926 35.0219C34.6903 36.5919 35.4945 37.9767 36.7144 38.7854L34.6971 61.0004H43.724L41.7068 38.7832C42.9266 37.9744 43.7286 36.5919 43.7286 35.0219Z" fill="black"/>
</mask>
<g mask="url(#mask0)">
<rect x="15" y="16" width="51" height="37" fill="#F6C138"/>
<path d="M24.5 28.5L34 26.2266L32.5 36L34 44.9993L24.5 43.5V28.5Z" fill="white"/>
<path d="M53.5 27.5455L44.5 26L47 36L44 46L54 44.4995L53.5 27.5455Z" fill="white"/>
</g>
<mask id="mask1" mask-type="alpha" maskUnits="userSpaceOnUse" x="17" y="21" width="46" height="41">
<path d="M56.6205 21L53.4263 24.1942C59.6001 30.368 59.6001 40.8046 53.4263 46.9784L56.6205 50.1726C64.527 42.2662 64.527 28.9065 56.6205 21ZM46.6493 30.9712C47.9279 32.2498 48.6349 33.8898 48.6349 35.5863C48.6349 37.2828 47.9279 38.9229 46.6493 40.2014L49.8435 43.3957C51.976 41.2654 53.1529 38.4891 53.1529 35.5863C53.1529 32.6835 51.976 29.9072 49.8435 27.777L46.6493 30.9712ZM26.1241 24.1942L22.9299 21C15.0234 28.9065 15.0234 42.2662 22.9299 50.1726L26.1241 46.9784C19.9502 40.8046 19.9502 30.368 26.1241 24.1942Z" fill="black"/>
<path d="M28.5775 27.7773C26.445 29.9076 25.2681 32.6839 25.2681 35.5867C25.2681 38.4895 26.445 41.2658 28.5775 43.396L31.7717 40.2018C30.4931 38.9232 29.7861 37.2832 29.7861 35.5867C29.7861 33.8902 30.4931 32.2502 31.7717 30.9716L28.5775 27.7773ZM43.7286 35.0219C43.7286 32.528 41.7045 30.5039 39.2106 30.5039C36.7166 30.5039 34.6926 32.528 34.6926 35.0219C34.6903 36.5919 35.4945 37.9767 36.7144 38.7854L34.6971 61.0004H43.724L41.7068 38.7832C42.9266 37.9744 43.7286 36.5919 43.7286 35.0219Z" fill="black"/>
</mask>
<g mask="url(#mask1)">
<rect x="33" y="28" width="13" height="35" fill="white"/>
</g>
</svg>
