<svg width="79" height="79" viewBox="0 0 79 79" fill="none" xmlns="http://www.w3.org/2000/svg">
<rect width="78.6946" height="78.6946" rx="39.3473" fill="#1B2124"/>
<path d="M23.3 30.8C23.3 35.816 26.998 39.6 31.9 39.6C36.802 39.6 40.5 35.816 40.5 30.8C40.5 25.784 36.802 22 31.9 22C26.998 22 23.3 25.784 23.3 30.8ZM36.2 30.8C36.2 33.3916 34.4327 35.2 31.9 35.2C29.3673 35.2 27.6 33.3916 27.6 30.8C27.6 28.2084 29.3673 26.4 31.9 26.4C34.4327 26.4 36.2 28.2084 36.2 30.8ZM23.3 52.8C23.3 49.1612 26.1939 46.2 29.75 46.2H34.05C37.6061 46.2 40.5 49.1612 40.5 52.8C40.5 54.015 41.485 55 42.7 55H44.8V52.8C44.8 46.7346 39.9776 41.8 34.05 41.8H29.75C23.8225 41.8 19 46.7346 19 52.8V55H21.1C22.315 55 23.3 54.015 23.3 52.8Z" fill="white"/>
<rect x="51" y="31" width="4" height="16" fill="#F6C138"/>
<rect x="61" y="37" width="4" height="16" transform="rotate(90 61 37)" fill="#F6C138"/>
</svg>
