<svg width="76" height="20" viewBox="0 0 76 20" fill="none" xmlns="http://www.w3.org/2000/svg">
<rect x="0.564103" y="0.564103" width="74.4359" height="18.2714" rx="9.13571" fill="#FFEFD0"/>
<path d="M14.852 12.8156C16.8211 12.8156 17.7717 11.7195 17.7717 10.1094V6.22944H16.3652V10.0706C16.3652 10.9727 15.8511 11.5934 14.852 11.5934C13.853 11.5934 13.3292 10.9727 13.3292 10.0706V6.22944H11.9324V10.1191C11.9324 11.7098 12.883 12.8156 14.852 12.8156ZM19.6282 7.50982C20.0356 7.50982 20.3654 7.18003 20.3654 6.77263C20.3654 6.36524 20.0356 6.04515 19.6282 6.04515C19.2305 6.04515 18.891 6.36524 18.891 6.77263C18.891 7.18003 19.2305 7.50982 19.6282 7.50982ZM20.249 12.6992V8.01421H19.0171V12.6992H20.249ZM29.2193 12.6992L27.7643 10.2355C28.4627 10.0706 29.1805 9.45948 29.1805 8.3149C29.1805 7.11213 28.356 6.22944 27.0077 6.22944H23.9814V12.6992H25.3588V10.4004H26.3675L27.6382 12.6992H29.2193ZM26.804 9.18789H25.3588V7.44192H26.804C27.3569 7.44192 27.774 7.77171 27.774 8.3149C27.774 8.85809 27.3569 9.18789 26.804 9.18789ZM32.0934 12.8156C32.8209 12.8156 33.5581 12.5925 34.0236 12.1657L33.4805 11.3703C33.1798 11.6613 32.6269 11.8359 32.2292 11.8359C31.4338 11.8359 30.9585 11.3412 30.8809 10.7496H34.3631V10.478C34.3631 8.94539 33.4126 7.89781 32.0158 7.89781C30.5899 7.89781 29.5908 8.99389 29.5908 10.3519C29.5908 11.8553 30.6675 12.8156 32.0934 12.8156ZM33.1701 9.91537H30.8615C30.9197 9.44978 31.2495 8.87749 32.0158 8.87749C32.8306 8.87749 33.141 9.46918 33.1701 9.91537ZM36.9407 12.8156C38.2405 12.8156 38.968 12.1657 38.968 11.3121C38.968 9.42068 36.1938 10.0027 36.1938 9.30428C36.1938 9.04239 36.4848 8.83869 36.931 8.83869C37.5033 8.83869 38.0368 9.08119 38.3181 9.38188L38.8128 8.538C38.3472 8.16941 37.7167 7.89781 36.9213 7.89781C35.6894 7.89781 35.0008 8.5865 35.0008 9.37218C35.0008 11.2151 37.7846 10.5847 37.7846 11.3606C37.7846 11.6516 37.5324 11.865 36.9989 11.865C36.4169 11.865 35.7185 11.5449 35.379 11.2248L34.8456 12.0881C35.3402 12.544 36.1259 12.8156 36.9407 12.8156ZM42.0774 12.8156C42.8049 12.8156 43.542 12.5925 44.0076 12.1657L43.4644 11.3703C43.1637 11.6613 42.6109 11.8359 42.2132 11.8359C41.4178 11.8359 40.9425 11.3412 40.8649 10.7496H44.3471V10.478C44.3471 8.94539 43.3965 7.89781 41.9998 7.89781C40.5739 7.89781 39.5748 8.99389 39.5748 10.3519C39.5748 11.8553 40.6515 12.8156 42.0774 12.8156ZM43.154 9.91537H40.8455C40.9037 9.44978 41.2335 8.87749 41.9998 8.87749C42.8146 8.87749 43.1249 9.46918 43.154 9.91537ZM49.6988 12.6992V8.01421H48.4476V8.6156C48.079 8.14031 47.5649 7.89781 47.012 7.89781C45.8189 7.89781 44.9362 8.82899 44.9362 10.3616C44.9362 11.9232 45.8286 12.8156 47.012 12.8156C47.5746 12.8156 48.0887 12.5634 48.4573 12.0978V12.6992H49.6988ZM47.3903 11.7195C46.6919 11.7195 46.2069 11.1666 46.2069 10.3616C46.2069 9.54678 46.6919 9.00359 47.3903 9.00359C47.8074 9.00359 48.2536 9.22669 48.4573 9.53708V11.186C48.2536 11.4964 47.8074 11.7195 47.3903 11.7195ZM52.1523 12.6992V9.60498C52.356 9.30428 52.8992 9.07149 53.3066 9.07149C53.4424 9.07149 53.5588 9.08119 53.6461 9.10059V7.89781C53.0641 7.89781 52.4821 8.23731 52.1523 8.6544V8.01421H50.9204V12.6992H52.1523ZM56.5982 12.8156C57.5585 12.8156 58.1405 12.3985 58.4509 11.962L57.6458 11.2151C57.4227 11.5255 57.0832 11.7195 56.6564 11.7195C55.9095 11.7195 55.3857 11.1666 55.3857 10.3519C55.3857 9.53708 55.9095 8.99389 56.6564 8.99389C57.0832 8.99389 57.4227 9.16849 57.6458 9.49828L58.4509 8.7417C58.1405 8.3149 57.5585 7.89781 56.5982 7.89781C55.1529 7.89781 54.1151 8.91629 54.1151 10.3519C54.1151 11.7971 55.1529 12.8156 56.5982 12.8156ZM63.6599 12.6992V9.37218C63.6599 8.4604 63.1652 7.89781 62.137 7.89781C61.3708 7.89781 60.7888 8.2664 60.4881 8.6253V6.22944H59.2562V12.6992H60.4881V9.54678C60.7015 9.26549 61.0798 8.99389 61.555 8.99389C62.0885 8.99389 62.428 9.19759 62.428 9.84747V12.6992H63.6599Z" fill="#87591D"/>
<rect x="0.564103" y="0.564103" width="74.4359" height="18.2714" rx="9.13571" stroke="#FFD770" stroke-width="1.12821"/>
</svg>
