<svg width="196" height="195" viewBox="0 0 196 195" fill="none" xmlns="http://www.w3.org/2000/svg">
<path d="M73.6317 194.942C93.133 194.942 111.476 187.348 125.359 173.454L192.577 104.367C195.303 101.563 196.082 97.396 194.563 93.7937C193.045 90.1913 189.51 87.8449 185.596 87.8449H153.458L194.106 14.6881C196.219 10.8813 195.547 6.14959 192.48 3.073C189.403 0.00613584 184.662 -0.665653 180.874 1.44707L111.651 39.9045L117.259 11.8744C118.077 7.80473 116.227 3.6669 112.644 1.56391C109.071 -0.529348 104.544 -0.139905 101.399 2.55699L21.9916 70.2908C-6.47669 98.7591 -6.47669 145.083 21.9916 173.552C35.7876 187.348 54.1303 194.942 73.6317 194.942ZM35.1937 84.5834L92.656 35.6012L90.2414 47.6739L88.4305 56.7285V56.7382L84.3024 77.3689L160.536 35.017L128.407 92.8493C128.407 92.8493 128.407 92.859 128.397 92.859L120.375 107.317H136.916H162.541L111.495 159.785C101.379 169.901 87.934 175.47 73.6317 175.47C59.3294 175.47 45.8742 169.901 35.7584 159.785C14.894 138.911 14.894 104.932 35.1937 84.5834Z" fill="#FFD770" fill-opacity="0.5"/>
<path d="M73.623 156.006C92.4428 156.006 107.699 140.75 107.699 121.93C107.699 108.3 99.6378 96.6163 88.0713 91.1738C88.12 91.6898 88.2271 92.1961 88.2271 92.7219C88.2271 100.793 81.6845 107.326 73.623 107.326C65.5615 107.326 59.0189 100.793 59.0189 92.7219C59.0189 92.1961 59.126 91.6898 59.1747 91.1738C47.6082 96.6163 39.5468 108.3 39.5468 121.93C39.5468 140.75 54.8032 156.006 73.623 156.006Z" fill="#EDA41D" fill-opacity="0.1"/>
</svg>
