<svg width="3366" height="1483" viewBox="0 0 3366 1483" fill="none" xmlns="http://www.w3.org/2000/svg">
<g clip-path="url(#clip0)">
<rect width="3366" height="1483" fill="#1B2124"/>
<rect width="3366" height="1483" fill="url(#paint0_linear)" fill-opacity="0.05"/>
<path class="rightcloud" d="M1671 977.327C1742.3 1041.32 2296.19 1022.15 2874.04 856.081C3321.43 727.503 4800.65 -155.775 4782 -420.347C4776.56 -497.495 3976.11 -85.5944 3813.5 -128.246C3093.24 -317.166 3047.03 764.014 2147.92 877.699C2014.03 894.628 2021.2 1026.22 1671 977.327Z" fill="#293133"/>
<path class="rightcloud" d="M1509.88 884.845C1462.11 960.735 991.251 1031.24 471.805 957.94C69.6325 901.187 -1348.6 252.942 -1383.99 -16.0655C-1394.31 -94.5074 -639.62 189.857 -510.715 120.622C60.2551 -186.046 308.12 893.418 1088.39 861.984C1204.59 857.303 1223.97 990.758 1509.88 884.845Z" fill="#293133"/>
<path d="M3377 1268C2000.78 1368.9 1253.84 1368.22 -36 1268V1481H3377V1268Z" fill="#34424A"/>
<path class="leftcloud" d="M1116.49 261.685C855.293 359.942 604.241 512.013 944.016 574.982C1283.79 637.951 589.327 522.895 1000.93 437.794C1062.22 425.121 1697.19 336.054 1624.41 261.685C1589.15 234.239 1377.68 163.429 1116.49 261.685Z" fill="#293133"/>
<circle cx="1642" cy="1172" r="381" fill="#FFD770"/>
<path fill-rule="evenodd" clip-rule="evenodd" d="M3161.04 2096.88C2761.31 1685.43 2006.4 1462.84 1432.27 1456.04L1866.9 1138.22C2272.66 841.504 2938.04 1086.3 3041.04 1537.39C3144.04 1988.47 3161.04 2096.88 3161.04 2096.88Z" fill="#41555F"/>
<g opacity="0.8">
<path d="M2392.92 1347.02C2179.39 1515.82 1722.11 1521.97 1551.71 1485.5L2221.3 1662.07C2215.15 1624.69 2411.88 1510.66 2539.5 1359.53C2699.02 1170.62 2225.67 1188.5 2179.72 1162.62C2133.76 1136.73 2228.33 1097.36 2292 1054C2342.87 1019.35 2329.04 1010.54 2312.36 1008.51C2312.36 1008.51 2306.62 1008.58 2304.32 1008.49C2325.01 1010.25 2309.72 1037.33 2082.99 1131.59C2016.34 1159.3 2044.39 1187.43 2074.71 1196.78C2173.32 1227.22 2597.06 1185.64 2392.92 1347.02Z" fill="#ADBBC2"/>
</g>
<path fill-rule="evenodd" clip-rule="evenodd" d="M2134 1649.84H185C208.484 1621.91 233.248 1594.9 259.253 1568.89C498.013 1330.13 821.842 1196 1159.5 1196C1497.16 1196 1820.99 1330.13 2059.75 1568.89C2085.75 1594.9 2110.52 1621.91 2134 1649.84Z" fill="#273137"/>
<mask id="mask0" mask-type="alpha" maskUnits="userSpaceOnUse" x="185" y="1196" width="1949" height="454">
<path fill-rule="evenodd" clip-rule="evenodd" d="M2134 1649.84H185C208.484 1621.91 233.248 1594.9 259.253 1568.89C498.014 1330.13 821.842 1196 1159.5 1196C1497.16 1196 1820.99 1330.13 2059.75 1568.89C2085.75 1594.9 2110.52 1621.91 2134 1649.84Z" fill="#425761"/>
</mask>
<g mask="url(#mask0)">
<path d="M1088.84 1195.68C615.238 1258.56 1421.9 1565.62 1114.14 1688.47L1322.78 1685.63L1531.42 1682.78C1764.51 1462.46 769.527 1235.27 1217.46 1195.68C1217.46 1195.68 1186.32 1194.51 1158.93 1194.51C1124.72 1194.51 1088.84 1195.68 1088.84 1195.68Z" fill="#ADBBC2"/>
</g>
<path class="rightcloud" d="M2334 227.099C2275.82 277.194 2310.71 338.051 2257.06 391.957C2154.37 495.137 1983.01 530.216 1852.01 576.365C1852.01 576.365 2258.49 499.66 2452.16 396.181C2600.27 317.052 2726.82 158.807 2726.82 158.807C2726.82 158.807 2495.05 271.975 2561.29 174.297C2627.53 76.62 2404.04 166.799 2334 227.099Z" fill="#293133"/>
<path d="M1234.76 1454.68C1241.76 1454.68 1247.44 1452.67 1247.44 1450.18C1247.44 1447.7 1241.76 1445.68 1234.76 1445.68C1227.76 1445.68 1222.09 1447.7 1222.09 1450.18C1222.09 1452.67 1227.76 1454.68 1234.76 1454.68Z" fill="#292F33"/>
<path class="firstpin" d="M1234.76 1391.71C1248.99 1391.71 1260.52 1380.36 1260.52 1366.35C1260.52 1352.35 1248.99 1341 1234.76 1341C1220.53 1341 1209 1352.35 1209 1366.35C1209 1380.36 1220.53 1391.71 1234.76 1391.71Z" fill="#F6C138"/>
<path class="firstpin" fill-rule="evenodd" clip-rule="evenodd" d="M1244.91 1389.66C1241.8 1390.98 1238.37 1391.71 1234.76 1391.71C1231.16 1391.71 1227.73 1390.98 1224.62 1389.66C1227.23 1412.06 1232.2 1451.41 1234.77 1451.41C1237.33 1451.41 1242.29 1412.06 1244.91 1389.66Z" fill="#F1F1F1"/>
<path d="M2346.28 1444.68C2351.25 1444.68 2355.28 1443.25 2355.28 1441.49C2355.28 1439.72 2351.25 1438.29 2346.28 1438.29C2341.32 1438.29 2337.29 1439.72 2337.29 1441.49C2337.29 1443.25 2341.32 1444.68 2346.28 1444.68Z" fill="#292F33"/>
<path class="forthpin" d="M2346.28 1399.99C2356.38 1399.99 2364.57 1391.93 2364.57 1381.99C2364.57 1372.06 2356.38 1364 2346.28 1364C2336.19 1364 2328 1372.06 2328 1381.99C2328 1391.93 2336.19 1399.99 2346.28 1399.99Z" fill="#F6C138"/>
<path class="forthpin" fill-rule="evenodd" clip-rule="evenodd" d="M2353.49 1398.54C2351.28 1399.47 2348.84 1399.99 2346.28 1399.99C2343.73 1399.99 2341.29 1399.47 2339.08 1398.54C2340.94 1414.43 2344.47 1442.36 2346.29 1442.36C2348.1 1442.36 2351.63 1414.43 2353.49 1398.54Z" fill="#F1F1F1"/>
<path d="M2499.75 1281.68C2503.49 1281.68 2506.52 1280.6 2506.52 1279.28C2506.52 1277.95 2503.49 1276.88 2499.75 1276.88C2496.01 1276.88 2492.98 1277.95 2492.98 1279.28C2492.98 1280.6 2496.01 1281.68 2499.75 1281.68Z" fill="#292F33"/>
<path class="fifthpin" d="M2499.75 1248.07C2507.35 1248.07 2513.5 1242.01 2513.5 1234.53C2513.5 1227.06 2507.35 1221 2499.75 1221C2492.16 1221 2486 1227.06 2486 1234.53C2486 1242.01 2492.16 1248.07 2499.75 1248.07Z" fill="#F6C138"/>
<path class="fifthpin" fill-rule="evenodd" clip-rule="evenodd" d="M2505.17 1246.97C2503.5 1247.68 2501.67 1248.06 2499.75 1248.06C2497.83 1248.06 2496 1247.68 2494.33 1246.97C2495.73 1258.93 2498.38 1279.93 2499.75 1279.93C2501.12 1279.93 2503.77 1258.93 2505.17 1246.97Z" fill="#F1F1F1"/>
<path d="M2113.58 1165.68C2116.45 1165.68 2118.78 1164.85 2118.78 1163.83C2118.78 1162.81 2116.45 1161.98 2113.58 1161.98C2110.7 1161.98 2108.37 1162.81 2108.37 1163.83C2108.37 1164.85 2110.7 1165.68 2113.58 1165.68Z" fill="#292F33"/>
<path class="sixthpin" d="M2113.58 1139.82C2119.42 1139.82 2124.16 1135.16 2124.16 1129.41C2124.16 1123.66 2119.42 1119 2113.58 1119C2107.74 1119 2103 1123.66 2103 1129.41C2103 1135.16 2107.74 1139.82 2113.58 1139.82Z" fill="#F6C138"/>
<path class="sixthpin" fill-rule="evenodd" clip-rule="evenodd" d="M2117.75 1138.98C2116.47 1139.52 2115.06 1139.82 2113.58 1139.82C2112.1 1139.82 2110.69 1139.52 2109.41 1138.98C2110.49 1148.18 2112.53 1164.34 2113.58 1164.34C2114.63 1164.34 2116.67 1148.18 2117.75 1138.98Z" fill="#F1F1F1"/>
<path d="M1056.92 1310.68C1061.52 1310.68 1065.25 1309.36 1065.25 1307.73C1065.25 1306.09 1061.52 1304.77 1056.92 1304.77C1052.32 1304.77 1048.6 1306.09 1048.6 1307.73C1048.6 1309.36 1052.32 1310.68 1056.92 1310.68Z" fill="#292F33"/>
<path class="secondpin" d="M1056.92 1269.31C1066.27 1269.31 1073.85 1261.85 1073.85 1252.66C1073.85 1243.46 1066.27 1236 1056.92 1236C1047.58 1236 1040 1243.46 1040 1252.66C1040 1261.85 1047.58 1269.31 1056.92 1269.31Z" fill="#F6C138"/>
<path class="secondpin" fill-rule="evenodd" clip-rule="evenodd" d="M1063.59 1267.97C1061.54 1268.83 1059.29 1269.31 1056.92 1269.31C1054.56 1269.31 1052.3 1268.83 1050.26 1267.97C1051.98 1282.68 1055.24 1308.53 1056.93 1308.53C1058.61 1308.53 1061.87 1282.68 1063.59 1267.97Z" fill="#F1F1F1"/>
<path class="thirdpin" d="M1116.77 1184.02C1120.98 1184.02 1124.4 1180.66 1124.4 1176.51C1124.4 1172.36 1120.98 1169 1116.77 1169C1112.55 1169 1109.13 1172.36 1109.13 1176.51C1109.13 1180.66 1112.55 1184.02 1116.77 1184.02Z" fill="#F6C138"/>
<path class="thirdpin" fill-rule="evenodd" clip-rule="evenodd" d="M1119.77 1183.42C1118.85 1183.81 1117.83 1184.02 1116.76 1184.02C1115.7 1184.02 1114.68 1183.81 1113.76 1183.42C1114.21 1187.27 1114.89 1192.81 1115.54 1196.78H1118C1118.64 1192.81 1119.33 1187.23 1119.77 1183.42Z" fill="#F1F1F1"/>
<g filter="url(#filter0_d)">
<path class="lastpin" d="M2302.33 975.02C2313.56 975.02 2322.67 966.062 2322.67 955.01C2322.67 943.959 2313.56 935 2302.33 935C2291.1 935 2282 943.959 2282 955.01C2282 966.062 2291.1 975.02 2302.33 975.02Z" fill="#F6C138"/>
</g>
<path class="lastpin" fill-rule="evenodd" clip-rule="evenodd" d="M2310.34 973.408C2307.88 974.446 2305.17 975.02 2302.33 975.02C2299.49 975.02 2296.78 974.446 2294.32 973.408C2295.52 983.66 2297.34 998.415 2299.06 1009H2305.62C2307.32 998.44 2309.15 983.554 2310.34 973.408Z" fill="#F1F1F1"/>
</g>
<defs>
<filter id="filter0_d" x="2197" y="854" width="210.666" height="210.02" filterUnits="userSpaceOnUse" color-interpolation-filters="sRGB">
<feFlood flood-opacity="0" result="BackgroundImageFix"/>
<feColorMatrix in="SourceAlpha" type="matrix" values="0 0 0 0 0 0 0 0 0 0 0 0 0 0 0 0 0 0 127 0"/>
<feOffset dy="4"/>
<feGaussianBlur stdDeviation="42.5"/>
<feColorMatrix type="matrix" values="0 0 0 0 0.964706 0 0 0 0 0.756863 0 0 0 0 0.219608 0 0 0 0.3 0"/>
<feBlend mode="normal" in2="BackgroundImageFix" result="effect1_dropShadow"/>
<feBlend mode="normal" in="SourceGraphic" in2="effect1_dropShadow" result="shape"/>
</filter>
<linearGradient id="paint0_linear" x1="1683" y1="0" x2="1683" y2="1483" gradientUnits="userSpaceOnUse">
<stop stop-color="white" stop-opacity="0"/>
<stop offset="1" stop-color="white"/>
</linearGradient>
<clipPath id="clip0">
<rect width="3366" height="1483" fill="white"/>
</clipPath>
</defs>
</svg>
