<svg width="227" height="110" viewBox="0 0 227 110" fill="none" xmlns="http://www.w3.org/2000/svg">
<rect x="0.87234" y="0.87234" width="89.2553" height="28.2553" rx="14.1277" fill="#FFEFD0"/>
<path d="M26.7045 20C29.8395 20 32.0145 18.02 32.0145 15.005C32.0145 11.99 29.8395 9.995 26.7045 9.995H22.7595V20H26.7045ZM26.7045 18.125H24.8895V11.87H26.7045C28.7595 11.87 29.8395 13.235 29.8395 15.005C29.8395 16.7 28.6845 18.125 26.7045 18.125ZM36.8861 20.18C38.0111 20.18 39.1511 19.835 39.8711 19.175L39.0311 17.945C38.5661 18.395 37.7111 18.665 37.0961 18.665C35.8661 18.665 35.1311 17.9 35.0111 16.985H40.3961V16.565C40.3961 14.195 38.9261 12.575 36.7661 12.575C34.5611 12.575 33.0161 14.27 33.0161 16.37C33.0161 18.695 34.6811 20.18 36.8861 20.18ZM38.5511 15.695H34.9811C35.0711 14.975 35.5811 14.09 36.7661 14.09C38.0261 14.09 38.5061 15.005 38.5511 15.695ZM44.3821 20.18C46.3921 20.18 47.5171 19.175 47.5171 17.855C47.5171 14.93 43.2271 15.83 43.2271 14.75C43.2271 14.345 43.6771 14.03 44.3671 14.03C45.2521 14.03 46.0771 14.405 46.5121 14.87L47.2771 13.565C46.5571 12.995 45.5821 12.575 44.3521 12.575C42.4471 12.575 41.3821 13.64 41.3821 14.855C41.3821 17.705 45.6871 16.73 45.6871 17.93C45.6871 18.38 45.2971 18.71 44.4721 18.71C43.5721 18.71 42.4921 18.215 41.9671 17.72L41.1421 19.055C41.9071 19.76 43.1221 20.18 44.3821 20.18ZM49.8656 11.975C50.4956 11.975 51.0056 11.465 51.0056 10.835C51.0056 10.205 50.4956 9.71 49.8656 9.71C49.2506 9.71 48.7256 10.205 48.7256 10.835C48.7256 11.465 49.2506 11.975 49.8656 11.975ZM50.8256 20V12.755H48.9206V20H50.8256ZM55.6845 22.94C57.4695 22.94 59.5995 22.265 59.5995 19.505V12.755H57.6795V13.685C57.0945 12.95 56.3145 12.575 55.4445 12.575C53.6145 12.575 52.2495 13.895 52.2495 16.265C52.2495 18.68 53.6295 19.955 55.4445 19.955C56.3295 19.955 57.1095 19.535 57.6795 18.815V19.55C57.6795 20.975 56.5995 21.38 55.6845 21.38C54.7695 21.38 54.0045 21.125 53.4195 20.48L52.5645 21.86C53.4795 22.655 54.4395 22.94 55.6845 22.94ZM56.0445 18.26C54.9645 18.26 54.2145 17.51 54.2145 16.265C54.2145 15.02 54.9645 14.27 56.0445 14.27C56.6745 14.27 57.3645 14.615 57.6795 15.095V17.435C57.3645 17.9 56.6745 18.26 56.0445 18.26ZM68.2839 20V14.885C68.2839 13.475 67.5189 12.575 65.9289 12.575C64.7439 12.575 63.8589 13.145 63.3939 13.7V12.755H61.4889V20H63.3939V15.125C63.7089 14.69 64.2939 14.27 65.0439 14.27C65.8539 14.27 66.3789 14.615 66.3789 15.62V20H68.2839Z" fill="#87591D"/>
<rect x="0.87234" y="0.87234" width="89.2553" height="28.2553" rx="14.1277" stroke="#FFD770" stroke-width="1.74468"/>
<rect x="101.872" y="0.87234" width="123.872" height="28.2553" rx="14.1277" fill="#FFEFD0"/>
<path d="M136.942 20V18.125H131.992V15.86H136.837V13.985H131.992V11.87H136.942V9.995H129.862V20H136.942ZM141.172 20.18C143.182 20.18 144.307 19.175 144.307 17.855C144.307 14.93 140.017 15.83 140.017 14.75C140.017 14.345 140.467 14.03 141.157 14.03C142.042 14.03 142.867 14.405 143.302 14.87L144.067 13.565C143.347 12.995 142.372 12.575 141.142 12.575C139.237 12.575 138.172 13.64 138.172 14.855C138.172 17.705 142.477 16.73 142.477 17.93C142.477 18.38 142.087 18.71 141.262 18.71C140.362 18.71 139.282 18.215 138.757 17.72L137.932 19.055C138.697 19.76 139.912 20.18 141.172 20.18ZM148.141 20.18C148.936 20.18 149.446 19.97 149.731 19.715L149.326 18.275C149.221 18.38 148.951 18.485 148.666 18.485C148.246 18.485 148.006 18.14 148.006 17.69V14.42H149.476V12.755H148.006V10.775H146.086V12.755H144.886V14.42H146.086V18.2C146.086 19.49 146.806 20.18 148.141 20.18ZM152.684 20V15.215C152.999 14.75 153.839 14.39 154.469 14.39C154.679 14.39 154.859 14.405 154.994 14.435V12.575C154.094 12.575 153.194 13.1 152.684 13.745V12.755H150.779V20H152.684ZM163.084 20V12.755H161.149V13.685C160.579 12.95 159.784 12.575 158.929 12.575C157.084 12.575 155.719 14.015 155.719 16.385C155.719 18.8 157.099 20.18 158.929 20.18C159.799 20.18 160.594 19.79 161.164 19.07V20H163.084ZM159.514 18.485C158.434 18.485 157.684 17.63 157.684 16.385C157.684 15.125 158.434 14.285 159.514 14.285C160.159 14.285 160.849 14.63 161.164 15.11V17.66C160.849 18.14 160.159 18.485 159.514 18.485ZM167.403 20.18C168.198 20.18 168.708 19.97 168.993 19.715L168.588 18.275C168.483 18.38 168.213 18.485 167.928 18.485C167.508 18.485 167.268 18.14 167.268 17.69V14.42H168.738V12.755H167.268V10.775H165.348V12.755H164.148V14.42H165.348V18.2C165.348 19.49 166.068 20.18 167.403 20.18ZM176.147 9.5H174.392L172.382 11.66H173.717L176.147 9.5ZM173.447 20.18C174.572 20.18 175.712 19.835 176.432 19.175L175.592 17.945C175.127 18.395 174.272 18.665 173.657 18.665C172.427 18.665 171.692 17.9 171.572 16.985H176.957V16.565C176.957 14.195 175.487 12.575 173.327 12.575C171.122 12.575 169.577 14.27 169.577 16.37C169.577 18.695 171.242 20.18 173.447 20.18ZM175.112 15.695H171.542C171.632 14.975 172.142 14.09 173.327 14.09C174.587 14.09 175.067 15.005 175.112 15.695ZM181.303 22.94C183.088 22.94 185.218 22.265 185.218 19.505V12.755H183.298V13.685C182.713 12.95 181.933 12.575 181.063 12.575C179.233 12.575 177.868 13.895 177.868 16.265C177.868 18.68 179.248 19.955 181.063 19.955C181.948 19.955 182.728 19.535 183.298 18.815V19.55C183.298 20.975 182.218 21.38 181.303 21.38C180.388 21.38 179.623 21.125 179.038 20.48L178.183 21.86C179.098 22.655 180.058 22.94 181.303 22.94ZM181.663 18.26C180.583 18.26 179.833 17.51 179.833 16.265C179.833 15.02 180.583 14.27 181.663 14.27C182.293 14.27 182.983 14.615 183.298 15.095V17.435C182.983 17.9 182.293 18.26 181.663 18.26ZM188.052 11.975C188.682 11.975 189.192 11.465 189.192 10.835C189.192 10.205 188.682 9.71 188.052 9.71C187.437 9.71 186.912 10.205 186.912 10.835C186.912 11.465 187.437 11.975 188.052 11.975ZM189.012 20V12.755H187.107V20H189.012ZM197.801 20V12.755H195.866V13.685C195.296 12.95 194.501 12.575 193.646 12.575C191.801 12.575 190.436 14.015 190.436 16.385C190.436 18.8 191.816 20.18 193.646 20.18C194.516 20.18 195.311 19.79 195.881 19.07V20H197.801ZM194.231 18.485C193.151 18.485 192.401 17.63 192.401 16.385C192.401 15.125 193.151 14.285 194.231 14.285C194.876 14.285 195.566 14.63 195.881 15.11V17.66C195.566 18.14 194.876 18.485 194.231 18.485Z" fill="#87591D"/>
<rect x="101.872" y="0.87234" width="123.872" height="28.2553" rx="14.1277" stroke="#FFD770" stroke-width="1.74468"/>
<rect x="136.49" y="40.8723" width="89.2553" height="28.2553" rx="14.1277" fill="#FFEFD0"/>
<path d="M165.722 60L161.867 49.995H159.197L155.327 60H157.757L158.387 58.305H162.677L163.292 60H165.722ZM162.092 56.43H158.972L160.532 52.125L162.092 56.43ZM173.396 60V54.885C173.396 53.475 172.631 52.575 171.041 52.575C169.856 52.575 168.971 53.145 168.506 53.7V52.755H166.601V60H168.506V55.125C168.821 54.69 169.406 54.27 170.156 54.27C170.966 54.27 171.491 54.615 171.491 55.62V60H173.396ZM181.437 49.5H179.682L177.672 51.66H179.007L181.437 49.5ZM182.187 60V52.755H180.252V53.685C179.682 52.95 178.887 52.575 178.032 52.575C176.187 52.575 174.822 54.015 174.822 56.385C174.822 58.8 176.202 60.18 178.032 60.18C178.902 60.18 179.697 59.79 180.267 59.07V60H182.187ZM178.617 58.485C177.537 58.485 176.787 57.63 176.787 56.385C176.787 55.125 177.537 54.285 178.617 54.285C179.262 54.285 179.952 54.63 180.267 55.11V57.66C179.952 58.14 179.262 58.485 178.617 58.485ZM186.116 60.18C186.896 60.18 187.406 59.97 187.691 59.715L187.286 58.275C187.196 58.38 186.926 58.485 186.641 58.485C186.221 58.485 185.981 58.14 185.981 57.69V49.995H184.076V58.2C184.076 59.49 184.781 60.18 186.116 60.18ZM189.489 51.975C190.119 51.975 190.629 51.465 190.629 50.835C190.629 50.205 190.119 49.71 189.489 49.71C188.874 49.71 188.349 50.205 188.349 50.835C188.349 51.465 188.874 51.975 189.489 51.975ZM190.449 60V52.755H188.544V60H190.449ZM194.948 60.18C196.958 60.18 198.083 59.175 198.083 57.855C198.083 54.93 193.793 55.83 193.793 54.75C193.793 54.345 194.243 54.03 194.933 54.03C195.818 54.03 196.643 54.405 197.078 54.87L197.843 53.565C197.123 52.995 196.148 52.575 194.918 52.575C193.013 52.575 191.948 53.64 191.948 54.855C191.948 57.705 196.253 56.73 196.253 57.93C196.253 58.38 195.863 58.71 195.038 58.71C194.138 58.71 193.058 58.215 192.533 57.72L191.708 59.055C192.473 59.76 193.688 60.18 194.948 60.18ZM202.892 60.18C204.017 60.18 205.157 59.835 205.877 59.175L205.037 57.945C204.572 58.395 203.717 58.665 203.102 58.665C201.872 58.665 201.137 57.9 201.017 56.985H206.402V56.565C206.402 54.195 204.932 52.575 202.772 52.575C200.567 52.575 199.022 54.27 199.022 56.37C199.022 58.695 200.687 60.18 202.892 60.18ZM204.557 55.695H200.987C201.077 54.975 201.587 54.09 202.772 54.09C204.032 54.09 204.512 55.005 204.557 55.695Z" fill="#87591D"/>
<rect x="136.49" y="40.8723" width="89.2553" height="28.2553" rx="14.1277" stroke="#FFD770" stroke-width="1.74468"/>
<rect x="0.87234" y="40.8723" width="123.872" height="28.2553" rx="14.1277" fill="#FFEFD0"/>
<path d="M26.9468 60.18C29.1518 60.18 30.4118 58.965 31.1318 57.72L29.3018 56.835C28.8818 57.66 27.9818 58.29 26.9468 58.29C25.1318 58.29 23.8118 56.895 23.8118 55.005C23.8118 53.115 25.1318 51.72 26.9468 51.72C27.9818 51.72 28.8818 52.365 29.3018 53.175L31.1318 52.275C30.4268 51.03 29.1518 49.83 26.9468 49.83C23.9468 49.83 21.6218 51.93 21.6218 55.005C21.6218 58.08 23.9468 60.18 26.9468 60.18ZM35.7147 60.18C38.1147 60.18 39.5547 58.44 39.5547 56.37C39.5547 54.315 38.1147 52.575 35.7147 52.575C33.3297 52.575 31.8897 54.315 31.8897 56.37C31.8897 58.44 33.3297 60.18 35.7147 60.18ZM35.7147 58.485C34.5297 58.485 33.8697 57.51 33.8697 56.37C33.8697 55.245 34.5297 54.27 35.7147 54.27C36.8997 54.27 37.5747 55.245 37.5747 56.37C37.5747 57.51 36.8997 58.485 35.7147 58.485ZM45.1079 60.18C46.9679 60.18 48.3179 58.785 48.3179 56.37C48.3179 53.955 46.9679 52.575 45.1079 52.575C44.2229 52.575 43.4279 52.965 42.8729 53.67V52.755H40.9679V62.76H42.8729V59.07C43.4579 59.82 44.2529 60.18 45.1079 60.18ZM44.5079 58.485C43.8929 58.485 43.1879 58.11 42.8729 57.66V55.095C43.1879 54.63 43.8929 54.27 44.5079 54.27C45.6029 54.27 46.3379 55.125 46.3379 56.37C46.3379 57.63 45.6029 58.485 44.5079 58.485ZM52.6531 62.94C54.9631 62.94 56.5081 61.695 56.5081 59.43V52.755H54.6031V57.345C54.2731 57.765 53.6881 58.17 52.9531 58.17C52.1431 58.17 51.6181 57.855 51.6181 56.835V52.755H49.7131V57.585C49.7131 58.995 50.4631 59.865 52.0531 59.865C53.2381 59.865 54.1081 59.325 54.6031 58.77V59.52C54.6031 60.72 53.8831 61.38 52.6531 61.38C51.8881 61.38 51.0031 61.125 50.4781 60.48L49.6231 61.86C50.4631 62.595 51.4381 62.94 52.6531 62.94ZM66.7846 60L68.9896 52.755H67.0096L65.6596 57.63L64.0696 52.755H62.3746L60.7846 57.63L59.4346 52.755H57.4546L59.6596 60H61.6996L63.2296 55.065L64.7596 60H66.7846ZM71.8329 60V55.215C72.1479 54.75 72.9879 54.39 73.6179 54.39C73.8279 54.39 74.0079 54.405 74.1429 54.435V52.575C73.2429 52.575 72.3429 53.1 71.8329 53.745V52.755H69.9279V60H71.8329ZM76.2782 51.975C76.9082 51.975 77.4182 51.465 77.4182 50.835C77.4182 50.205 76.9082 49.71 76.2782 49.71C75.6632 49.71 75.1382 50.205 75.1382 50.835C75.1382 51.465 75.6632 51.975 76.2782 51.975ZM77.2382 60V52.755H75.3332V60H77.2382ZM81.5571 60.18C82.3521 60.18 82.8621 59.97 83.1471 59.715L82.7421 58.275C82.6371 58.38 82.3671 58.485 82.0821 58.485C81.6621 58.485 81.4221 58.14 81.4221 57.69V54.42H82.8921V52.755H81.4221V50.775H79.5021V52.755H78.3021V54.42H79.5021V58.2C79.5021 59.49 80.2221 60.18 81.5571 60.18ZM85.1405 51.975C85.7705 51.975 86.2805 51.465 86.2805 50.835C86.2805 50.205 85.7705 49.71 85.1405 49.71C84.5255 49.71 84.0005 50.205 84.0005 50.835C84.0005 51.465 84.5255 51.975 85.1405 51.975ZM86.1005 60V52.755H84.1955V60H86.1005ZM94.7844 60V54.885C94.7844 53.475 94.0194 52.575 92.4294 52.575C91.2444 52.575 90.3594 53.145 89.8944 53.7V52.755H87.9894V60H89.8944V55.125C90.2094 54.69 90.7944 54.27 91.5444 54.27C92.3544 54.27 92.8794 54.615 92.8794 55.62V60H94.7844ZM99.646 62.94C101.431 62.94 103.561 62.265 103.561 59.505V52.755H101.641V53.685C101.056 52.95 100.276 52.575 99.406 52.575C97.576 52.575 96.211 53.895 96.211 56.265C96.211 58.68 97.591 59.955 99.406 59.955C100.291 59.955 101.071 59.535 101.641 58.815V59.55C101.641 60.975 100.561 61.38 99.646 61.38C98.731 61.38 97.966 61.125 97.381 60.48L96.526 61.86C97.441 62.655 98.401 62.94 99.646 62.94ZM100.006 58.26C98.926 58.26 98.176 57.51 98.176 56.265C98.176 55.02 98.926 54.27 100.006 54.27C100.636 54.27 101.326 54.615 101.641 55.095V57.435C101.326 57.9 100.636 58.26 100.006 58.26Z" fill="#87591D"/>
<rect x="0.87234" y="40.8723" width="123.872" height="28.2553" rx="14.1277" stroke="#FFD770" stroke-width="1.74468"/>
<rect x="42.8723" y="80.8723" width="139.255" height="28.2553" rx="14.1277" fill="#FFEFD0"/>
<path d="M67.8148 100V96.445H70.3648C72.5248 96.445 73.7248 94.96 73.7248 93.22C73.7248 91.465 72.5398 89.995 70.3648 89.995H65.6848V100H67.8148ZM70.0798 94.57H67.8148V91.87H70.0798C70.9198 91.87 71.5498 92.38 71.5498 93.22C71.5498 94.045 70.9198 94.57 70.0798 94.57ZM77.0402 100.18C77.8202 100.18 78.3302 99.97 78.6152 99.715L78.2102 98.275C78.1202 98.38 77.8502 98.485 77.5652 98.485C77.1452 98.485 76.9052 98.14 76.9052 97.69V89.995H75.0002V98.2C75.0002 99.49 75.7052 100.18 77.0402 100.18ZM86.3679 100V92.755H84.4329V93.685C83.8629 92.95 83.0679 92.575 82.2129 92.575C80.3679 92.575 79.0029 94.015 79.0029 96.385C79.0029 98.8 80.3829 100.18 82.2129 100.18C83.0829 100.18 83.8779 99.79 84.4479 99.07V100H86.3679ZM82.7979 98.485C81.7179 98.485 80.9679 97.63 80.9679 96.385C80.9679 95.125 81.7179 94.285 82.7979 94.285C83.4429 94.285 84.1329 94.63 84.4479 95.11V97.66C84.1329 98.14 83.4429 98.485 82.7979 98.485ZM95.052 100V94.885C95.052 93.475 94.287 92.575 92.697 92.575C91.512 92.575 90.627 93.145 90.162 93.7V92.755H88.257V100H90.162V95.125C90.477 94.69 91.062 94.27 91.812 94.27C92.622 94.27 93.147 94.615 93.147 95.62V100H95.052ZM100.349 100.18C101.474 100.18 102.614 99.835 103.334 99.175L102.494 97.945C102.029 98.395 101.174 98.665 100.559 98.665C99.3285 98.665 98.5935 97.9 98.4735 96.985H103.859V96.565C103.859 94.195 102.389 92.575 100.229 92.575C98.0235 92.575 96.4785 94.27 96.4785 96.37C96.4785 98.695 98.1435 100.18 100.349 100.18ZM102.014 95.695H98.4435C98.5335 94.975 99.0435 94.09 100.229 94.09C101.489 94.09 101.969 95.005 102.014 95.695ZM106.18 91.975C106.81 91.975 107.32 91.465 107.32 90.835C107.32 90.205 106.81 89.71 106.18 89.71C105.565 89.71 105.04 90.205 105.04 90.835C105.04 91.465 105.565 91.975 106.18 91.975ZM104.56 102.94C106.3 102.94 107.14 101.845 107.14 100.195V92.755H105.235V100.195C105.235 101.005 104.83 101.38 104.245 101.38C103.81 101.38 103.555 101.245 103.27 101.005L102.745 102.43C103.27 102.79 103.645 102.94 104.56 102.94ZM115.928 100V92.755H113.993V93.685C113.423 92.95 112.628 92.575 111.773 92.575C109.928 92.575 108.563 94.015 108.563 96.385C108.563 98.8 109.943 100.18 111.773 100.18C112.643 100.18 113.438 99.79 114.008 99.07V100H115.928ZM112.358 98.485C111.278 98.485 110.528 97.63 110.528 96.385C110.528 95.125 111.278 94.285 112.358 94.285C113.003 94.285 113.693 94.63 114.008 95.11V97.66C113.693 98.14 113.003 98.485 112.358 98.485ZM128.723 100V94.765C128.723 93.28 127.928 92.575 126.593 92.575C125.483 92.575 124.523 93.235 124.103 93.895C123.833 93.07 123.158 92.575 122.093 92.575C120.983 92.575 120.023 93.265 119.723 93.7V92.755H117.818V100H119.723V95.125C120.008 94.72 120.563 94.27 121.223 94.27C122.003 94.27 122.303 94.75 122.303 95.425V100H124.223V95.11C124.493 94.72 125.048 94.27 125.723 94.27C126.503 94.27 126.803 94.75 126.803 95.425V100H128.723ZM133.996 100.18C135.121 100.18 136.261 99.835 136.981 99.175L136.141 97.945C135.676 98.395 134.821 98.665 134.206 98.665C132.976 98.665 132.241 97.9 132.121 96.985H137.506V96.565C137.506 94.195 136.036 92.575 133.876 92.575C131.671 92.575 130.126 94.27 130.126 96.37C130.126 98.695 131.791 100.18 133.996 100.18ZM135.661 95.695H132.091C132.181 94.975 132.691 94.09 133.876 94.09C135.136 94.09 135.616 95.005 135.661 95.695ZM145.677 100V94.885C145.677 93.475 144.912 92.575 143.322 92.575C142.137 92.575 141.252 93.145 140.787 93.7V92.755H138.882V100H140.787V95.125C141.102 94.69 141.687 94.27 142.437 94.27C143.247 94.27 143.772 94.615 143.772 95.62V100H145.677ZM149.999 100.18C150.794 100.18 151.304 99.97 151.589 99.715L151.184 98.275C151.079 98.38 150.809 98.485 150.524 98.485C150.104 98.485 149.864 98.14 149.864 97.69V94.42H151.334V92.755H149.864V90.775H147.944V92.755H146.744V94.42H147.944V98.2C147.944 99.49 148.664 100.18 149.999 100.18ZM155.997 100.18C158.397 100.18 159.837 98.44 159.837 96.37C159.837 94.315 158.397 92.575 155.997 92.575C153.612 92.575 152.172 94.315 152.172 96.37C152.172 98.44 153.612 100.18 155.997 100.18ZM155.997 98.485C154.812 98.485 154.152 97.51 154.152 96.37C154.152 95.245 154.812 94.27 155.997 94.27C157.182 94.27 157.857 95.245 157.857 96.37C157.857 97.51 157.182 98.485 155.997 98.485Z" fill="#87591D"/>
<rect x="42.8723" y="80.8723" width="139.255" height="28.2553" rx="14.1277" stroke="#FFD770" stroke-width="1.74468"/>
</svg>
