<svg width="195" height="195" viewBox="0 0 195 195" fill="none" xmlns="http://www.w3.org/2000/svg">
<path d="M25.6035 67.0605C29.523 57.759 35.139 49.4227 42.276 42.2857C49.452 35.1195 57.7883 29.5035 67.0605 25.6132C85.9268 17.6572 107.825 17.55 126.828 25.2135C127.286 38.3273 137.904 48.75 151.125 48.75C164.639 48.75 175.5 37.8885 175.5 24.375C175.5 10.8615 164.639 0 151.125 0C144.407 0 138.333 2.691 133.936 7.06875C110.234 -2.418 83.0115 -2.27175 59.4945 7.644C47.892 12.519 37.4595 19.539 28.4895 28.4992C19.5585 37.4205 12.5482 47.853 7.644 59.4847C2.574 71.5065 0 84.2985 0 97.5H19.5C19.5 86.9115 21.5572 76.674 25.6035 67.0605ZM169.387 127.939C165.477 137.221 159.861 145.568 152.714 152.714C145.568 159.861 137.221 165.477 127.93 169.387C109.054 177.343 87.1553 177.45 68.1623 169.786C67.7138 156.673 57.096 146.25 43.875 146.25C30.3615 146.25 19.5 157.111 19.5 170.625C19.5 184.139 30.3615 195 43.875 195C50.5928 195 56.667 192.309 61.0642 187.931C72.6375 192.582 84.8737 195 97.5 195C110.701 195 123.484 192.426 135.496 187.366C147.118 182.461 157.56 175.441 166.501 166.501C175.441 157.56 182.461 147.128 187.366 135.505C192.426 123.484 195 110.701 195 97.5H175.5C175.5 108.079 173.443 118.316 169.387 127.939Z" fill="#FFD25C"/>
<path d="M97.4984 53.2529C73.1039 53.2529 53.2529 73.1039 53.2529 97.4984C53.2529 121.893 73.1039 141.744 97.4984 141.744C121.893 141.744 141.744 121.893 141.744 97.4984C141.744 73.1039 121.893 53.2529 97.4984 53.2529Z" fill="#292F33"/>
</svg>
