<svg width="79" height="79" viewBox="0 0 79 79" fill="none" xmlns="http://www.w3.org/2000/svg">
<rect width="78.6946" height="78.6946" rx="39.3473" fill="#1B2124"/>
<path d="M41.2822 40.6383C42.1757 41.5307 43.62 41.5307 44.5135 40.6383L55.9399 29.2271C54.1546 27.4441 51.2625 27.4441 49.4772 29.2271L42.8979 35.7977L37.6577 30.5645C36.7642 29.6721 35.3199 29.6721 34.4264 30.5645L23 41.9757C24.7853 43.7587 27.6774 43.7587 29.4627 41.9757L36.042 35.4051L41.2822 40.6383Z" fill="#F6C138"/>
<path d="M23 53C23 50.7909 24.7909 49 27 49H55.875C55.944 49 56 49.056 56 49.125C56 51.2651 54.2651 53 52.125 53H23Z" fill="white"/>
</svg>
