<svg width="1920" height="474" viewBox="0 0 1920 474" fill="none" xmlns="http://www.w3.org/2000/svg">
<path fill-rule="evenodd" clip-rule="evenodd" d="M1966.69 1089.94C1355.58 916.865 1356.05 901.373 1013.42 350.41L1377.25 206.164C1716.93 71.4986 2076.24 346.311 2024.01 700.832L1966.69 1089.94Z" fill="#41555F"/>
<path fill-rule="evenodd" clip-rule="evenodd" d="M1968.48 850.135C1466.46 792.031 1464.85 779.802 1125.58 390.705L1392.97 231.076C1642.6 82.0476 1959.81 252.129 1963.94 537.225L1968.48 850.135Z" fill="#99AAB5"/>
<path fill-rule="evenodd" clip-rule="evenodd" d="M2054.31 769.884C1552.96 833.592 1548.48 822.103 1125.96 525.491L1347.39 306.517C1554.11 102.085 1902.8 191.324 1975.03 467.15L2054.31 769.884Z" fill="#292F33"/>
<path fill-rule="evenodd" clip-rule="evenodd" d="M2062.31 769.884C1560.96 833.592 1556.48 822.103 1133.96 525.491L1355.39 306.517C1562.11 102.085 1910.8 191.324 1983.03 467.15L2062.31 769.884Z" fill="#41555F"/>
<path d="M2079.59 1539.57C2058.21 1170.21 1890.98 824.469 1614.69 578.41C1338.4 332.351 975.674 206.127 606.315 227.506C236.956 248.885 -108.782 416.115 -354.841 692.408C-600.9 968.702 -727.124 1331.43 -705.745 1700.78L686.924 1620.17L2079.59 1539.57Z" fill="#99AAB5"/>
<path d="M1837.25 1173.89C1822.1 912.06 1696.88 667.363 1489.15 493.628C1281.41 319.892 1008.18 231.349 729.555 247.476C450.931 263.603 189.738 383.08 3.43721 579.622C-182.864 776.165 -279.013 1033.67 -263.858 1295.5L786.696 1234.69L1837.25 1173.89Z" fill="#4D5C65"/>
<path d="M1757.71 1071.82C1744.7 846.964 1642.89 636.488 1474.69 486.694C1306.49 336.9 1085.67 260.059 860.819 273.074C635.963 286.089 425.487 387.894 275.694 556.094C125.9 724.293 49.0579 945.11 62.0728 1169.97L909.892 1120.89L1757.71 1071.82Z" fill="#292F33"/>
<path d="M1772.71 1075.82C1759.7 850.964 1657.89 640.488 1489.69 490.694C1321.49 340.9 1100.67 264.059 875.819 277.074C650.963 290.089 440.487 391.894 290.694 560.094C140.9 728.293 64.0579 949.11 77.0728 1173.97L924.892 1124.89L1772.71 1075.82Z" fill="#99AAB5"/>
<path d="M329.012 418.06C336.926 417.636 343.219 415.015 343.068 412.207C342.918 409.399 336.38 407.467 328.467 407.892C320.553 408.316 314.26 410.937 314.411 413.745C314.562 416.553 321.099 418.485 329.012 418.06Z" fill="#292F33"/>
<path d="M310.749 328.184C310.749 328.184 324.765 414.571 328.818 414.361C332.868 414.147 337.557 326.746 337.557 326.746L310.749 328.184Z" fill="#F1F1F1"/>
<path d="M325.194 346.878C341.276 346.015 353.625 332.485 352.776 316.658C351.927 300.831 338.202 288.7 322.12 289.563C306.037 290.426 293.688 303.955 294.537 319.782C295.386 335.609 309.112 347.74 325.194 346.878Z" fill="#F6C138"/>
<path d="M1593.05 185.705C1596.42 185.913 1599.21 185.113 1599.28 183.918C1599.36 182.723 1596.68 181.586 1593.32 181.377C1589.95 181.169 1587.16 181.969 1587.08 183.164C1587.01 184.359 1589.68 185.497 1593.05 185.705Z" fill="#292F33"/>
<path d="M1586.54 111.07C1586.54 111.07 1589.82 183.23 1593.17 183.443C1596.51 183.653 1608.66 112.438 1608.66 112.438L1586.54 111.07Z" fill="#F1F1F1"/>
<g filter="url(#filter0_d)">
<path d="M1596.61 127.77C1609.87 128.591 1621.29 118.671 1622.09 105.614C1622.9 92.557 1612.8 81.3068 1599.53 80.4861C1586.26 79.6653 1574.85 89.5849 1574.05 102.642C1573.24 115.699 1583.34 126.949 1596.61 127.77Z" fill="#F6C138"/>
</g>
<path d="M625.5 288.285C631.615 288.285 636.572 286.526 636.572 284.356C636.572 282.187 631.615 280.428 625.5 280.428C619.386 280.428 614.429 282.187 614.429 284.356C614.429 286.526 619.386 288.285 625.5 288.285Z" fill="#292F33"/>
<path fill-rule="evenodd" clip-rule="evenodd" d="M634.364 231.5C631.644 232.648 628.647 233.284 625.5 233.284C622.354 233.284 619.358 232.649 616.639 231.501C618.926 251.059 623.263 285.423 625.503 285.427C627.742 285.429 632.078 251.06 634.364 231.5Z" fill="#F1F1F1"/>
<path d="M625.5 233.286C637.926 233.286 648 223.372 648 211.143C648 198.914 637.926 189 625.5 189C613.074 189 603 198.914 603 211.143C603 223.372 613.074 233.286 625.5 233.286Z" fill="#DBAE38" fill-opacity="0.9"/>
<path d="M905.43 263.85C908.808 263.85 911.547 262.879 911.547 261.68C911.547 260.481 908.808 259.51 905.43 259.51C902.052 259.51 899.314 260.481 899.314 261.68C899.314 262.879 902.052 263.85 905.43 263.85Z" fill="#292F33"/>
<path fill-rule="evenodd" clip-rule="evenodd" d="M910.327 232.479C908.824 233.113 907.169 233.464 905.43 233.464C903.692 233.464 902.037 233.113 900.534 232.479C901.798 243.284 904.194 262.269 905.432 262.271C906.669 262.272 909.064 243.284 910.327 232.479Z" fill="#F1F1F1"/>
<path d="M905.43 233.466C912.295 233.466 917.861 227.989 917.861 221.233C917.861 214.477 912.295 209 905.43 209C898.565 209 893 214.477 893 221.233C893 227.989 898.565 233.466 905.43 233.466Z" fill="#DBAE38" fill-opacity="0.8"/>
<path d="M1308.14 310.666C1312.2 310.159 1315.34 308.583 1315.16 307.145C1314.98 305.707 1311.55 304.952 1307.49 305.459C1303.44 305.966 1300.3 307.543 1300.48 308.981C1300.66 310.419 1304.09 311.173 1308.14 310.666Z" fill="#292F33"/>
<path fill-rule="evenodd" clip-rule="evenodd" d="M1309.31 272.298C1307.6 273.285 1305.67 273.954 1303.58 274.215C1301.5 274.476 1299.46 274.303 1297.56 273.768C1300.7 286.541 1306.42 308.955 1307.91 308.772C1309.39 308.588 1309.42 285.45 1309.31 272.298Z" fill="#F1F1F1"/>
<path d="M1303.58 274.215C1311.82 273.185 1317.67 265.779 1316.66 257.674C1315.65 249.569 1308.15 243.835 1299.91 244.865C1291.68 245.895 1285.82 253.301 1286.84 261.405C1287.85 269.51 1295.35 275.245 1303.58 274.215Z" fill="#DBAE38" fill-opacity="0.6"/>
<path d="M1453.99 217.924C1457.25 217.924 1459.9 216.987 1459.9 215.83C1459.9 214.674 1457.25 213.736 1453.99 213.736C1450.73 213.736 1448.09 214.674 1448.09 215.83C1448.09 216.987 1450.73 217.924 1453.99 217.924Z" fill="#292F33"/>
<path fill-rule="evenodd" clip-rule="evenodd" d="M1458.72 187.656C1457.27 188.268 1455.67 188.607 1453.99 188.607C1452.32 188.607 1450.72 188.269 1449.27 187.657C1450.49 198.082 1452.8 216.399 1453.99 216.401C1455.19 216.402 1457.5 198.082 1458.72 187.656Z" fill="#F1F1F1"/>
<path d="M1453.99 188.606C1460.62 188.606 1465.99 183.322 1465.99 176.803C1465.99 170.284 1460.62 165 1453.99 165C1447.37 165 1442 170.284 1442 176.803C1442 183.322 1447.37 188.606 1453.99 188.606Z" fill="#DBAE38" fill-opacity="0.5"/>
<defs>
<filter id="filter0_d" x="1490" y="0.439453" width="216.137" height="215.379" filterUnits="userSpaceOnUse" color-interpolation-filters="sRGB">
<feFlood flood-opacity="0" result="BackgroundImageFix"/>
<feColorMatrix in="SourceAlpha" type="matrix" values="0 0 0 0 0 0 0 0 0 0 0 0 0 0 0 0 0 0 127 0"/>
<feOffset dy="4"/>
<feGaussianBlur stdDeviation="42"/>
<feColorMatrix type="matrix" values="0 0 0 0 0.964706 0 0 0 0 0.756863 0 0 0 0 0.219608 0 0 0 0.3 0"/>
<feBlend mode="normal" in2="BackgroundImageFix" result="effect1_dropShadow"/>
<feBlend mode="normal" in="SourceGraphic" in2="effect1_dropShadow" result="shape"/>
</filter>
</defs>
</svg>
