<svg width="307" height="225" viewBox="0 0 307 225" fill="none" xmlns="http://www.w3.org/2000/svg">
<path d="M147.264 186.18C145.608 186.18 144.324 185.754 143.412 184.902C142.512 184.05 142.032 182.85 141.972 181.302C141.96 180.978 141.954 180.45 141.954 179.718C141.954 178.974 141.96 178.434 141.972 178.098C142.032 176.562 142.518 175.368 143.43 174.516C144.354 173.652 145.632 173.22 147.264 173.22C148.332 173.22 149.262 173.406 150.054 173.778C150.846 174.138 151.458 174.636 151.89 175.272C152.322 175.896 152.55 176.604 152.574 177.396V177.432C152.574 177.528 152.532 177.612 152.448 177.684C152.376 177.744 152.292 177.774 152.196 177.774H150.486C150.342 177.774 150.234 177.744 150.162 177.684C150.09 177.624 150.03 177.51 149.982 177.342C149.79 176.586 149.472 176.058 149.028 175.758C148.584 175.446 147.99 175.29 147.246 175.29C145.518 175.29 144.618 176.256 144.546 178.188C144.534 178.512 144.528 179.01 144.528 179.682C144.528 180.354 144.534 180.864 144.546 181.212C144.618 183.144 145.518 184.11 147.246 184.11C147.99 184.11 148.584 183.954 149.028 183.642C149.484 183.33 149.802 182.802 149.982 182.058C150.018 181.89 150.072 181.776 150.144 181.716C150.228 181.656 150.342 181.626 150.486 181.626H152.196C152.304 181.626 152.394 181.662 152.466 181.734C152.55 181.806 152.586 181.896 152.574 182.004C152.55 182.796 152.322 183.51 151.89 184.146C151.458 184.77 150.846 185.268 150.054 185.64C149.262 186 148.332 186.18 147.264 186.18ZM155.159 186C155.027 186 154.919 185.964 154.835 185.892C154.751 185.808 154.709 185.7 154.709 185.568V173.85C154.709 173.718 154.751 173.61 154.835 173.526C154.919 173.442 155.027 173.4 155.159 173.4H156.581C156.833 173.4 157.013 173.514 157.121 173.742L160.595 180.222L164.105 173.742C164.225 173.514 164.405 173.4 164.645 173.4H166.049C166.181 173.4 166.289 173.442 166.373 173.526C166.457 173.61 166.499 173.718 166.499 173.85V185.568C166.499 185.7 166.457 185.808 166.373 185.892C166.289 185.964 166.181 186 166.049 186H164.537C164.417 186 164.315 185.958 164.231 185.874C164.147 185.79 164.105 185.688 164.105 185.568V177.774L161.585 182.58C161.429 182.844 161.225 182.976 160.973 182.976H160.235C159.983 182.976 159.779 182.844 159.623 182.58L157.103 177.774V185.568C157.103 185.688 157.061 185.79 156.977 185.874C156.905 185.958 156.803 186 156.671 186H155.159ZM173.043 186C172.923 186 172.821 185.958 172.737 185.874C172.653 185.79 172.611 185.688 172.611 185.568V181.5L168.363 173.976C168.327 173.916 168.309 173.85 168.309 173.778C168.309 173.67 168.345 173.58 168.417 173.508C168.489 173.436 168.573 173.4 168.669 173.4H170.271C170.403 173.4 170.511 173.436 170.595 173.508C170.691 173.58 170.763 173.658 170.811 173.742L173.871 178.98L176.913 173.742C177.057 173.514 177.243 173.4 177.471 173.4H179.055C179.163 173.4 179.253 173.436 179.325 173.508C179.397 173.58 179.433 173.67 179.433 173.778C179.433 173.85 179.415 173.916 179.379 173.976L175.131 181.5V185.568C175.131 185.688 175.089 185.79 175.005 185.874C174.921 185.958 174.813 186 174.681 186H173.043ZM181.684 186C181.564 186 181.462 185.958 181.378 185.874C181.294 185.79 181.252 185.688 181.252 185.568V173.85C181.252 173.718 181.288 173.61 181.36 173.526C181.444 173.442 181.552 173.4 181.684 173.4H183.268C183.4 173.4 183.508 173.442 183.592 173.526C183.676 173.61 183.718 173.718 183.718 173.85V178.062L187.786 173.724C187.942 173.508 188.176 173.4 188.488 173.4H190.27C190.366 173.4 190.45 173.436 190.522 173.508C190.606 173.58 190.648 173.67 190.648 173.778C190.648 173.862 190.624 173.934 190.576 173.994L185.626 179.43L190.918 185.388C190.978 185.46 191.008 185.538 191.008 185.622C191.008 185.73 190.966 185.82 190.882 185.892C190.81 185.964 190.726 186 190.63 186H188.776C188.476 186 188.242 185.892 188.074 185.676L183.718 180.906V185.568C183.718 185.7 183.676 185.808 183.592 185.892C183.508 185.964 183.4 186 183.268 186H181.684ZM142.836 204C142.716 204 142.614 203.958 142.53 203.874C142.446 203.79 142.404 203.688 142.404 203.568V191.85C142.404 191.718 142.44 191.61 142.512 191.526C142.596 191.442 142.704 191.4 142.836 191.4H147.498C148.962 191.4 150.108 191.742 150.936 192.426C151.776 193.11 152.196 194.082 152.196 195.342C152.196 196.218 151.98 196.956 151.548 197.556C151.128 198.144 150.54 198.57 149.784 198.834L152.412 203.424C152.448 203.496 152.466 203.562 152.466 203.622C152.466 203.73 152.424 203.82 152.34 203.892C152.268 203.964 152.184 204 152.088 204H150.45C150.258 204 150.108 203.958 150 203.874C149.904 203.79 149.814 203.67 149.73 203.514L147.408 199.248H144.906V203.568C144.906 203.688 144.864 203.79 144.78 203.874C144.708 203.958 144.606 204 144.474 204H142.836ZM147.444 197.214C148.164 197.214 148.704 197.052 149.064 196.728C149.436 196.404 149.622 195.936 149.622 195.324C149.622 194.712 149.436 194.238 149.064 193.902C148.704 193.566 148.164 193.398 147.444 193.398H144.906V197.214H147.444ZM159.376 204.18C157.732 204.18 156.448 203.754 155.524 202.902C154.612 202.05 154.126 200.862 154.066 199.338C154.054 198.99 154.048 198.432 154.048 197.664C154.048 196.896 154.054 196.338 154.066 195.99C154.126 194.502 154.618 193.338 155.542 192.498C156.478 191.646 157.756 191.22 159.376 191.22C160.48 191.22 161.428 191.406 162.22 191.778C163.012 192.15 163.612 192.618 164.02 193.182C164.428 193.734 164.644 194.28 164.668 194.82V194.856C164.668 194.952 164.632 195.036 164.56 195.108C164.488 195.168 164.398 195.198 164.29 195.198H162.436C162.316 195.198 162.226 195.18 162.166 195.144C162.106 195.096 162.052 195.018 162.004 194.91C161.836 194.466 161.542 194.088 161.122 193.776C160.702 193.452 160.12 193.29 159.376 193.29C158.536 193.29 157.876 193.518 157.396 193.974C156.928 194.43 156.676 195.132 156.64 196.08C156.628 196.428 156.622 196.956 156.622 197.664C156.622 198.36 156.628 198.888 156.64 199.248C156.712 201.156 157.636 202.11 159.412 202.11C160.264 202.11 160.948 201.882 161.464 201.426C161.98 200.958 162.238 200.268 162.238 199.356V198.798H160.042C159.91 198.798 159.802 198.756 159.718 198.672C159.646 198.588 159.61 198.48 159.61 198.348V197.394C159.61 197.262 159.646 197.154 159.718 197.07C159.802 196.986 159.91 196.944 160.042 196.944H164.344C164.476 196.944 164.578 196.986 164.65 197.07C164.734 197.154 164.776 197.262 164.776 197.394V199.284C164.776 200.28 164.554 201.15 164.11 201.894C163.678 202.626 163.054 203.19 162.238 203.586C161.422 203.982 160.468 204.18 159.376 204.18ZM167.516 204C167.396 204 167.294 203.958 167.21 203.874C167.126 203.79 167.084 203.688 167.084 203.568V191.85C167.084 191.718 167.12 191.61 167.192 191.526C167.276 191.442 167.384 191.4 167.516 191.4H172.736C174.14 191.4 175.184 191.712 175.868 192.336C176.564 192.948 176.912 193.788 176.912 194.856C176.912 195.48 176.756 196.014 176.444 196.458C176.144 196.89 175.79 197.202 175.382 197.394C175.886 197.622 176.306 197.994 176.642 198.51C176.99 199.026 177.164 199.614 177.164 200.274C177.164 201.39 176.786 202.29 176.03 202.974C175.286 203.658 174.236 204 172.88 204H167.516ZM172.412 196.566C173.036 196.566 173.51 196.416 173.834 196.116C174.158 195.816 174.32 195.414 174.32 194.91C174.32 194.394 174.158 193.998 173.834 193.722C173.51 193.434 173.036 193.29 172.412 193.29H169.586V196.566H172.412ZM172.592 202.092C173.216 202.092 173.702 201.924 174.05 201.588C174.398 201.24 174.572 200.802 174.572 200.274C174.572 199.734 174.398 199.296 174.05 198.96C173.702 198.612 173.216 198.438 172.592 198.438H169.586V202.092H172.592ZM142.836 222C142.716 222 142.614 221.958 142.53 221.874C142.446 221.79 142.404 221.688 142.404 221.568V209.85C142.404 209.718 142.44 209.61 142.512 209.526C142.596 209.442 142.704 209.4 142.836 209.4H144.474C144.606 209.4 144.708 209.442 144.78 209.526C144.864 209.61 144.906 209.718 144.906 209.85V214.494H150.216V209.85C150.216 209.718 150.252 209.61 150.324 209.526C150.408 209.442 150.516 209.4 150.648 209.4H152.268C152.4 209.4 152.508 209.442 152.592 209.526C152.676 209.61 152.718 209.718 152.718 209.85V221.568C152.718 221.7 152.676 221.808 152.592 221.892C152.508 221.964 152.4 222 152.268 222H150.648C150.528 222 150.426 221.958 150.342 221.874C150.258 221.79 150.216 221.688 150.216 221.568V216.744H144.906V221.568C144.906 221.688 144.864 221.79 144.78 221.874C144.708 221.958 144.606 222 144.474 222H142.836ZM155.949 222C155.829 222 155.727 221.958 155.643 221.874C155.559 221.79 155.517 221.688 155.517 221.568V209.85C155.517 209.718 155.553 209.61 155.625 209.526C155.709 209.442 155.817 209.4 155.949 209.4H163.869C164.001 209.4 164.109 209.442 164.193 209.526C164.277 209.61 164.319 209.718 164.319 209.85V211.038C164.319 211.17 164.277 211.278 164.193 211.362C164.109 211.434 164.001 211.47 163.869 211.47H157.947V214.656H163.473C163.605 214.656 163.713 214.698 163.797 214.782C163.881 214.854 163.923 214.956 163.923 215.088V216.204C163.923 216.336 163.881 216.444 163.797 216.528C163.713 216.6 163.605 216.636 163.473 216.636H157.947V219.93H164.013C164.145 219.93 164.253 219.972 164.337 220.056C164.421 220.14 164.463 220.248 164.463 220.38V221.568C164.463 221.7 164.421 221.808 164.337 221.892C164.253 221.964 164.145 222 164.013 222H155.949ZM166.013 222C165.905 222 165.815 221.964 165.743 221.892C165.671 221.82 165.635 221.73 165.635 221.622C165.635 221.55 165.653 221.478 165.689 221.406L169.721 215.574L165.941 209.994C165.905 209.934 165.887 209.862 165.887 209.778C165.887 209.67 165.923 209.58 165.995 209.508C166.067 209.436 166.157 209.4 166.265 209.4H168.101C168.317 209.4 168.503 209.514 168.659 209.742L171.305 213.63L173.969 209.742C174.125 209.514 174.311 209.4 174.527 209.4H176.273C176.381 209.4 176.471 209.436 176.543 209.508C176.615 209.58 176.651 209.67 176.651 209.778C176.651 209.862 176.627 209.934 176.579 209.994L172.817 215.574L176.849 221.406C176.897 221.502 176.921 221.574 176.921 221.622C176.921 221.73 176.879 221.82 176.795 221.892C176.723 221.964 176.639 222 176.543 222H174.635C174.407 222 174.227 221.892 174.095 221.676L171.215 217.608L168.389 221.676C168.233 221.892 168.047 222 167.831 222H166.013Z" fill="#ECB21B"/>
<path d="M219.904 186.18C218.308 186.18 217.114 185.736 216.322 184.848C215.542 183.96 215.116 182.796 215.044 181.356C215.032 181.032 215.026 180.48 215.026 179.7C215.026 178.908 215.032 178.344 215.044 178.008C215.104 176.592 215.536 175.44 216.34 174.552C217.144 173.664 218.332 173.22 219.904 173.22C221.488 173.22 222.682 173.664 223.486 174.552C224.29 175.44 224.716 176.592 224.764 178.008C224.788 178.344 224.8 178.908 224.8 179.7C224.8 180.48 224.788 181.032 224.764 181.356C224.704 182.796 224.278 183.96 223.486 184.848C222.706 185.736 221.512 186.18 219.904 186.18ZM219.904 184.11C220.66 184.11 221.224 183.864 221.596 183.372C221.968 182.868 222.166 182.166 222.19 181.266C222.214 180.57 222.226 180.042 222.226 179.682C222.226 179.286 222.214 178.764 222.19 178.116C222.166 177.228 221.968 176.532 221.596 176.028C221.224 175.524 220.66 175.272 219.904 175.272C219.16 175.272 218.596 175.524 218.212 176.028C217.84 176.532 217.642 177.228 217.618 178.116C217.606 178.44 217.6 178.962 217.6 179.682C217.6 180.39 217.606 180.918 217.618 181.266C217.642 182.166 217.84 182.868 218.212 183.372C218.596 183.864 219.16 184.11 219.904 184.11ZM226.717 187.35C226.609 187.35 226.525 187.314 226.465 187.242C226.405 187.17 226.381 187.08 226.393 186.972L226.879 183.912C226.903 183.744 226.963 183.606 227.059 183.498C227.155 183.39 227.287 183.336 227.455 183.336H229.111C229.195 183.336 229.267 183.372 229.327 183.444C229.399 183.504 229.435 183.582 229.435 183.678C229.435 183.738 229.417 183.816 229.381 183.912L228.229 186.9C228.169 187.044 228.091 187.152 227.995 187.224C227.911 187.308 227.791 187.35 227.635 187.35H226.717ZM235.738 186C235.618 186 235.516 185.958 235.432 185.874C235.348 185.79 235.306 185.688 235.306 185.568V184.65C235.306 184.326 235.456 184.044 235.756 183.804L238.6 180.978C239.836 180.006 240.694 179.25 241.174 178.71C241.666 178.158 241.912 177.618 241.912 177.09C241.912 176.526 241.756 176.082 241.444 175.758C241.144 175.434 240.688 175.272 240.076 175.272C239.476 175.272 239.002 175.452 238.654 175.812C238.306 176.16 238.09 176.616 238.006 177.18C237.97 177.324 237.904 177.432 237.808 177.504C237.712 177.564 237.604 177.594 237.484 177.594H235.882C235.774 177.594 235.684 177.558 235.612 177.486C235.54 177.414 235.504 177.33 235.504 177.234C235.528 176.526 235.72 175.866 236.08 175.254C236.44 174.63 236.962 174.132 237.646 173.76C238.33 173.376 239.134 173.184 240.058 173.184C241.018 173.184 241.828 173.352 242.488 173.688C243.16 174.012 243.664 174.462 244 175.038C244.336 175.614 244.504 176.268 244.504 177C244.504 177.804 244.276 178.53 243.82 179.178C243.376 179.826 242.692 180.522 241.768 181.266L239.212 183.858H244.342C244.474 183.858 244.576 183.9 244.648 183.984C244.732 184.056 244.774 184.158 244.774 184.29V185.568C244.774 185.688 244.732 185.79 244.648 185.874C244.576 185.958 244.474 186 244.342 186H235.738ZM251.149 186.198C250.153 186.198 249.295 186.03 248.575 185.694C247.867 185.358 247.321 184.914 246.937 184.362C246.565 183.81 246.367 183.216 246.343 182.58V182.544C246.343 182.448 246.379 182.37 246.451 182.31C246.523 182.25 246.613 182.22 246.721 182.22H248.395C248.671 182.22 248.851 182.34 248.935 182.58C249.103 183.108 249.379 183.498 249.763 183.75C250.159 184.002 250.621 184.128 251.149 184.128C251.821 184.128 252.379 183.924 252.823 183.516C253.279 183.108 253.507 182.538 253.507 181.806C253.507 181.158 253.279 180.63 252.823 180.222C252.379 179.814 251.821 179.61 251.149 179.61C250.789 179.61 250.495 179.658 250.267 179.754C250.039 179.85 249.817 179.982 249.601 180.15C249.457 180.258 249.343 180.336 249.259 180.384C249.187 180.42 249.097 180.438 248.989 180.438H247.333C247.225 180.438 247.129 180.402 247.045 180.33C246.973 180.246 246.937 180.15 246.937 180.042L247.567 173.886C247.579 173.742 247.627 173.628 247.711 173.544C247.807 173.448 247.927 173.4 248.071 173.4H254.839C254.959 173.4 255.061 173.442 255.145 173.526C255.229 173.61 255.271 173.712 255.271 173.832V175.038C255.271 175.158 255.229 175.26 255.145 175.344C255.061 175.428 254.959 175.47 254.839 175.47H249.637L249.349 178.404C249.937 177.996 250.723 177.792 251.707 177.792C252.487 177.792 253.207 177.96 253.867 178.296C254.539 178.62 255.073 179.094 255.469 179.718C255.865 180.33 256.063 181.044 256.063 181.86C256.063 182.736 255.859 183.504 255.451 184.164C255.043 184.812 254.467 185.316 253.723 185.676C252.991 186.024 252.133 186.198 251.149 186.198ZM257.76 187.35C257.652 187.35 257.568 187.314 257.508 187.242C257.448 187.17 257.424 187.08 257.436 186.972L257.922 183.912C257.946 183.744 258.006 183.606 258.102 183.498C258.198 183.39 258.33 183.336 258.498 183.336H260.154C260.238 183.336 260.31 183.372 260.37 183.444C260.442 183.504 260.478 183.582 260.478 183.678C260.478 183.738 260.46 183.816 260.424 183.912L259.272 186.9C259.212 187.044 259.134 187.152 259.038 187.224C258.954 187.308 258.834 187.35 258.678 187.35H257.76ZM271.443 186.18C270.399 186.18 269.499 186.018 268.743 185.694C267.999 185.358 267.429 184.896 267.033 184.308C266.637 183.72 266.439 183.048 266.439 182.292C266.439 181.62 266.607 181.026 266.943 180.51C267.279 179.982 267.729 179.58 268.293 179.304C267.849 179.028 267.501 178.674 267.249 178.242C267.009 177.798 266.889 177.294 266.889 176.73C266.889 175.674 267.285 174.828 268.077 174.192C268.881 173.544 270.003 173.22 271.443 173.22C272.871 173.22 273.981 173.538 274.773 174.174C275.565 174.81 275.961 175.656 275.961 176.712C275.961 177.276 275.841 177.78 275.601 178.224C275.373 178.656 275.037 179.016 274.593 179.304C275.169 179.58 275.619 179.982 275.943 180.51C276.279 181.026 276.447 181.626 276.447 182.31C276.447 183.066 276.249 183.738 275.853 184.326C275.457 184.914 274.881 185.37 274.125 185.694C273.369 186.018 272.475 186.18 271.443 186.18ZM271.443 178.53C272.067 178.518 272.583 178.356 272.991 178.044C273.411 177.732 273.621 177.324 273.621 176.82C273.621 176.292 273.417 175.872 273.009 175.56C272.601 175.248 272.079 175.092 271.443 175.092C270.807 175.092 270.285 175.248 269.877 175.56C269.469 175.872 269.265 176.292 269.265 176.82C269.265 177.336 269.469 177.75 269.877 178.062C270.285 178.374 270.807 178.53 271.443 178.53ZM271.443 184.308C272.151 184.308 272.745 184.128 273.225 183.768C273.705 183.396 273.945 182.91 273.945 182.31C273.945 181.71 273.705 181.23 273.225 180.87C272.745 180.498 272.151 180.312 271.443 180.312C270.723 180.312 270.123 180.492 269.643 180.852C269.175 181.212 268.941 181.698 268.941 182.31C268.941 182.922 269.175 183.408 269.643 183.768C270.123 184.128 270.723 184.308 271.443 184.308ZM280.664 186C280.556 186 280.466 185.964 280.394 185.892C280.322 185.808 280.286 185.712 280.286 185.604C280.286 185.52 280.31 185.442 280.358 185.37L283.004 181.716C282.74 181.776 282.494 181.8 282.266 181.788C281.462 181.764 280.73 181.566 280.07 181.194C279.41 180.822 278.888 180.318 278.504 179.682C278.132 179.046 277.946 178.35 277.946 177.594C277.946 176.838 278.132 176.13 278.504 175.47C278.876 174.798 279.428 174.258 280.16 173.85C280.892 173.43 281.774 173.22 282.806 173.22C283.838 173.22 284.726 173.418 285.47 173.814C286.214 174.198 286.772 174.72 287.144 175.38C287.528 176.028 287.72 176.742 287.72 177.522C287.72 178.002 287.642 178.458 287.486 178.89C287.33 179.322 287.15 179.7 286.946 180.024C286.754 180.336 286.478 180.744 286.118 181.248L282.95 185.64C282.878 185.748 282.794 185.838 282.698 185.91C282.614 185.97 282.494 186 282.338 186H280.664ZM282.824 179.88C283.484 179.88 284.036 179.676 284.48 179.268C284.936 178.848 285.164 178.29 285.164 177.594C285.164 176.898 284.936 176.34 284.48 175.92C284.036 175.5 283.484 175.29 282.824 175.29C282.164 175.29 281.606 175.5 281.15 175.92C280.706 176.34 280.484 176.898 280.484 177.594C280.484 178.29 280.706 178.848 281.15 179.268C281.594 179.676 282.152 179.88 282.824 179.88ZM288.504 187.35C288.396 187.35 288.312 187.314 288.252 187.242C288.192 187.17 288.168 187.08 288.18 186.972L288.666 183.912C288.69 183.744 288.75 183.606 288.846 183.498C288.942 183.39 289.074 183.336 289.242 183.336H290.898C290.982 183.336 291.054 183.372 291.114 183.444C291.186 183.504 291.222 183.582 291.222 183.678C291.222 183.738 291.204 183.816 291.168 183.912L290.016 186.9C289.956 187.044 289.878 187.152 289.782 187.224C289.698 187.308 289.578 187.35 289.422 187.35H288.504ZM298.893 186C298.785 186 298.695 185.964 298.623 185.892C298.551 185.808 298.515 185.712 298.515 185.604C298.515 185.568 298.527 185.514 298.551 185.442L302.889 175.542H297.237C297.117 175.542 297.015 175.5 296.931 175.416C296.847 175.332 296.805 175.23 296.805 175.11V173.85C296.805 173.718 296.841 173.61 296.913 173.526C296.997 173.442 297.105 173.4 297.237 173.4H305.139C305.271 173.4 305.373 173.442 305.445 173.526C305.529 173.61 305.571 173.718 305.571 173.85V174.966C305.571 175.206 305.517 175.464 305.409 175.74L301.107 185.568C300.975 185.856 300.783 186 300.531 186H298.893ZM217.312 204C217.204 204 217.114 203.964 217.042 203.892C216.97 203.808 216.934 203.712 216.934 203.604C216.934 203.52 216.958 203.442 217.006 203.37L219.652 199.716C219.388 199.776 219.142 199.8 218.914 199.788C218.11 199.764 217.378 199.566 216.718 199.194C216.058 198.822 215.536 198.318 215.152 197.682C214.78 197.046 214.594 196.35 214.594 195.594C214.594 194.838 214.78 194.13 215.152 193.47C215.524 192.798 216.076 192.258 216.808 191.85C217.54 191.43 218.422 191.22 219.454 191.22C220.486 191.22 221.374 191.418 222.118 191.814C222.862 192.198 223.42 192.72 223.792 193.38C224.176 194.028 224.368 194.742 224.368 195.522C224.368 196.002 224.29 196.458 224.134 196.89C223.978 197.322 223.798 197.7 223.594 198.024C223.402 198.336 223.126 198.744 222.766 199.248L219.598 203.64C219.526 203.748 219.442 203.838 219.346 203.91C219.262 203.97 219.142 204 218.986 204H217.312ZM219.472 197.88C220.132 197.88 220.684 197.676 221.128 197.268C221.584 196.848 221.812 196.29 221.812 195.594C221.812 194.898 221.584 194.34 221.128 193.92C220.684 193.5 220.132 193.29 219.472 193.29C218.812 193.29 218.254 193.5 217.798 193.92C217.354 194.34 217.132 194.898 217.132 195.594C217.132 196.29 217.354 196.848 217.798 197.268C218.242 197.676 218.8 197.88 219.472 197.88ZM230.514 204.18C229.458 204.18 228.558 204.012 227.814 203.676C227.082 203.34 226.53 202.92 226.158 202.416C225.798 201.9 225.606 201.372 225.582 200.832C225.582 200.724 225.618 200.64 225.69 200.58C225.774 200.508 225.87 200.472 225.978 200.472H227.598C227.862 200.472 228.036 200.592 228.12 200.832C228.384 201.696 229.188 202.128 230.532 202.128C231.264 202.128 231.84 201.96 232.26 201.624C232.68 201.276 232.89 200.784 232.89 200.148C232.89 198.948 232.14 198.348 230.64 198.348H228.786C228.654 198.348 228.546 198.306 228.462 198.222C228.378 198.138 228.336 198.036 228.336 197.916V197.16C228.336 196.968 228.42 196.788 228.588 196.62L231.81 193.47H226.662C226.542 193.47 226.44 193.428 226.356 193.344C226.272 193.26 226.23 193.158 226.23 193.038V191.85C226.23 191.718 226.266 191.61 226.338 191.526C226.422 191.442 226.53 191.4 226.662 191.4H234.384C234.516 191.4 234.624 191.442 234.708 191.526C234.792 191.61 234.834 191.718 234.834 191.85V192.93C234.834 193.11 234.756 193.278 234.6 193.434L231.486 196.638L231.702 196.656C232.854 196.752 233.766 197.1 234.438 197.7C235.122 198.3 235.464 199.158 235.464 200.274C235.464 201.066 235.248 201.756 234.816 202.344C234.396 202.932 233.808 203.388 233.052 203.712C232.308 204.024 231.462 204.18 230.514 204.18ZM237.334 205.35C237.226 205.35 237.142 205.314 237.082 205.242C237.022 205.17 236.998 205.08 237.01 204.972L237.496 201.912C237.52 201.744 237.58 201.606 237.676 201.498C237.772 201.39 237.904 201.336 238.072 201.336H239.728C239.812 201.336 239.884 201.372 239.944 201.444C240.016 201.504 240.052 201.582 240.052 201.678C240.052 201.738 240.034 201.816 239.998 201.912L238.846 204.9C238.786 205.044 238.708 205.152 238.612 205.224C238.528 205.308 238.408 205.35 238.252 205.35H237.334ZM247.723 204C247.615 204 247.525 203.964 247.453 203.892C247.381 203.808 247.345 203.712 247.345 203.604C247.345 203.568 247.357 203.514 247.381 203.442L251.719 193.542H246.067C245.947 193.542 245.845 193.5 245.761 193.416C245.677 193.332 245.635 193.23 245.635 193.11V191.85C245.635 191.718 245.671 191.61 245.743 191.526C245.827 191.442 245.935 191.4 246.067 191.4H253.969C254.101 191.4 254.203 191.442 254.275 191.526C254.359 191.61 254.401 191.718 254.401 191.85V192.966C254.401 193.206 254.347 193.464 254.239 193.74L249.937 203.568C249.805 203.856 249.613 204 249.361 204H247.723ZM260.791 204.18C259.195 204.18 258.001 203.736 257.209 202.848C256.429 201.96 256.003 200.796 255.931 199.356C255.919 199.032 255.913 198.48 255.913 197.7C255.913 196.908 255.919 196.344 255.931 196.008C255.991 194.592 256.423 193.44 257.227 192.552C258.031 191.664 259.219 191.22 260.791 191.22C262.375 191.22 263.569 191.664 264.373 192.552C265.177 193.44 265.603 194.592 265.651 196.008C265.675 196.344 265.687 196.908 265.687 197.7C265.687 198.48 265.675 199.032 265.651 199.356C265.591 200.796 265.165 201.96 264.373 202.848C263.593 203.736 262.399 204.18 260.791 204.18ZM260.791 202.11C261.547 202.11 262.111 201.864 262.483 201.372C262.855 200.868 263.053 200.166 263.077 199.266C263.101 198.57 263.113 198.042 263.113 197.682C263.113 197.286 263.101 196.764 263.077 196.116C263.053 195.228 262.855 194.532 262.483 194.028C262.111 193.524 261.547 193.272 260.791 193.272C260.047 193.272 259.483 193.524 259.099 194.028C258.727 194.532 258.529 195.228 258.505 196.116C258.493 196.44 258.487 196.962 258.487 197.682C258.487 198.39 258.493 198.918 258.505 199.266C258.529 200.166 258.727 200.868 259.099 201.372C259.483 201.864 260.047 202.11 260.791 202.11ZM267.603 205.35C267.495 205.35 267.411 205.314 267.351 205.242C267.291 205.17 267.267 205.08 267.279 204.972L267.765 201.912C267.789 201.744 267.849 201.606 267.945 201.498C268.041 201.39 268.173 201.336 268.341 201.336H269.997C270.081 201.336 270.153 201.372 270.213 201.444C270.285 201.504 270.321 201.582 270.321 201.678C270.321 201.738 270.303 201.816 270.267 201.912L269.115 204.9C269.055 205.044 268.977 205.152 268.881 205.224C268.797 205.308 268.677 205.35 268.521 205.35H267.603ZM280.369 204C280.249 204 280.147 203.958 280.063 203.874C279.979 203.79 279.937 203.688 279.937 203.568V194.244L277.201 196.35C277.129 196.41 277.045 196.44 276.949 196.44C276.805 196.44 276.685 196.374 276.589 196.242L275.833 195.27C275.773 195.174 275.743 195.084 275.743 195C275.743 194.856 275.809 194.736 275.941 194.64L279.973 191.526C280.081 191.442 280.231 191.4 280.423 191.4H282.007C282.139 191.4 282.241 191.442 282.313 191.526C282.397 191.598 282.439 191.7 282.439 191.832V203.568C282.439 203.688 282.397 203.79 282.313 203.874C282.241 203.958 282.139 204 282.007 204H280.369ZM288.701 204C288.581 204 288.479 203.958 288.395 203.874C288.311 203.79 288.269 203.688 288.269 203.568V194.244L285.533 196.35C285.461 196.41 285.377 196.44 285.281 196.44C285.137 196.44 285.017 196.374 284.921 196.242L284.165 195.27C284.105 195.174 284.075 195.084 284.075 195C284.075 194.856 284.141 194.736 284.273 194.64L288.305 191.526C288.413 191.442 288.563 191.4 288.755 191.4H290.339C290.471 191.4 290.573 191.442 290.645 191.526C290.729 191.598 290.771 191.7 290.771 191.832V203.568C290.771 203.688 290.729 203.79 290.645 203.874C290.573 203.958 290.471 204 290.339 204H288.701ZM219.22 222.18C217.888 222.18 216.826 221.796 216.034 221.028C215.254 220.248 214.84 219.156 214.792 217.752L214.774 217.302L214.792 216.852C214.852 215.484 215.272 214.41 216.052 213.63C216.844 212.85 217.9 212.46 219.22 212.46C220.636 212.46 221.728 212.892 222.496 213.756C223.276 214.62 223.666 215.772 223.666 217.212V217.59C223.666 217.71 223.624 217.812 223.54 217.896C223.456 217.98 223.348 218.022 223.216 218.022H217.24V218.166C217.264 218.826 217.444 219.384 217.78 219.84C218.128 220.284 218.602 220.506 219.202 220.506C219.91 220.506 220.48 220.23 220.912 219.678C221.02 219.546 221.104 219.462 221.164 219.426C221.236 219.39 221.338 219.372 221.47 219.372H223.018C223.126 219.372 223.216 219.408 223.288 219.48C223.372 219.54 223.414 219.618 223.414 219.714C223.414 220.002 223.24 220.344 222.892 220.74C222.556 221.124 222.07 221.46 221.434 221.748C220.798 222.036 220.06 222.18 219.22 222.18ZM221.218 216.51V216.456C221.218 215.748 221.038 215.178 220.678 214.746C220.33 214.314 219.844 214.098 219.22 214.098C218.596 214.098 218.11 214.314 217.762 214.746C217.414 215.178 217.24 215.748 217.24 216.456V216.51H221.218ZM229.627 222.18C228.307 222.18 227.251 221.814 226.459 221.082C225.679 220.35 225.265 219.336 225.217 218.04L225.199 217.32L225.217 216.6C225.265 215.304 225.679 214.29 226.459 213.558C227.251 212.826 228.307 212.46 229.627 212.46C230.563 212.46 231.355 212.628 232.003 212.964C232.663 213.3 233.149 213.714 233.461 214.206C233.785 214.686 233.959 215.142 233.983 215.574C233.995 215.694 233.953 215.796 233.857 215.88C233.773 215.964 233.671 216.006 233.551 216.006H231.967C231.847 216.006 231.751 215.982 231.679 215.934C231.619 215.874 231.559 215.778 231.499 215.646C231.319 215.178 231.079 214.842 230.779 214.638C230.491 214.434 230.119 214.332 229.663 214.332C229.051 214.332 228.571 214.53 228.223 214.926C227.875 215.31 227.689 215.898 227.665 216.69L227.647 217.356L227.665 217.95C227.713 219.522 228.379 220.308 229.663 220.308C230.131 220.308 230.509 220.206 230.797 220.002C231.085 219.798 231.319 219.462 231.499 218.994C231.559 218.862 231.619 218.772 231.679 218.724C231.751 218.664 231.847 218.634 231.967 218.634H233.551C233.671 218.634 233.773 218.676 233.857 218.76C233.953 218.844 233.995 218.946 233.983 219.066C233.959 219.486 233.791 219.936 233.479 220.416C233.167 220.896 232.687 221.31 232.039 221.658C231.391 222.006 230.587 222.18 229.627 222.18ZM241.044 222.18C239.808 222.18 238.848 221.754 238.164 220.902V221.568C238.164 221.688 238.122 221.79 238.038 221.874C237.966 221.958 237.864 222 237.732 222H236.31C236.19 222 236.088 221.958 236.004 221.874C235.92 221.79 235.878 221.688 235.878 221.568V209.652C235.878 209.52 235.92 209.418 236.004 209.346C236.088 209.262 236.19 209.22 236.31 209.22H237.84C237.972 209.22 238.074 209.262 238.146 209.346C238.23 209.418 238.272 209.52 238.272 209.652V213.648C238.956 212.856 239.88 212.46 241.044 212.46C242.256 212.46 243.186 212.856 243.834 213.648C244.482 214.44 244.83 215.466 244.878 216.726C244.89 216.87 244.896 217.062 244.896 217.302C244.896 217.554 244.89 217.752 244.878 217.896C244.83 219.192 244.482 220.23 243.834 221.01C243.186 221.79 242.256 222.18 241.044 222.18ZM240.378 220.254C241.674 220.254 242.364 219.456 242.448 217.86C242.46 217.74 242.466 217.56 242.466 217.32C242.466 217.08 242.46 216.9 242.448 216.78C242.364 215.184 241.674 214.386 240.378 214.386C239.706 214.386 239.19 214.602 238.83 215.034C238.482 215.454 238.296 215.964 238.272 216.564L238.254 217.248L238.272 217.95C238.308 218.598 238.494 219.144 238.83 219.588C239.166 220.032 239.682 220.254 240.378 220.254ZM246.953 222C246.833 222 246.731 221.958 246.647 221.874C246.563 221.79 246.521 221.688 246.521 221.568V220.65C246.521 220.326 246.671 220.044 246.971 219.804L249.815 216.978C251.051 216.006 251.909 215.25 252.389 214.71C252.881 214.158 253.127 213.618 253.127 213.09C253.127 212.526 252.971 212.082 252.659 211.758C252.359 211.434 251.903 211.272 251.291 211.272C250.691 211.272 250.217 211.452 249.869 211.812C249.521 212.16 249.305 212.616 249.221 213.18C249.185 213.324 249.119 213.432 249.023 213.504C248.927 213.564 248.819 213.594 248.699 213.594H247.097C246.989 213.594 246.899 213.558 246.827 213.486C246.755 213.414 246.719 213.33 246.719 213.234C246.743 212.526 246.935 211.866 247.295 211.254C247.655 210.63 248.177 210.132 248.861 209.76C249.545 209.376 250.349 209.184 251.273 209.184C252.233 209.184 253.043 209.352 253.703 209.688C254.375 210.012 254.879 210.462 255.215 211.038C255.551 211.614 255.719 212.268 255.719 213C255.719 213.804 255.491 214.53 255.035 215.178C254.591 215.826 253.907 216.522 252.983 217.266L250.427 219.858H255.557C255.689 219.858 255.791 219.9 255.863 219.984C255.947 220.056 255.989 220.158 255.989 220.29V221.568C255.989 221.688 255.947 221.79 255.863 221.874C255.791 221.958 255.689 222 255.557 222H246.953ZM261.841 222C261.721 222 261.619 221.958 261.535 221.874C261.451 221.79 261.409 221.688 261.409 221.568V212.244L258.673 214.35C258.601 214.41 258.517 214.44 258.421 214.44C258.277 214.44 258.157 214.374 258.061 214.242L257.305 213.27C257.245 213.174 257.215 213.084 257.215 213C257.215 212.856 257.281 212.736 257.413 212.64L261.445 209.526C261.553 209.442 261.703 209.4 261.895 209.4H263.479C263.611 209.4 263.713 209.442 263.785 209.526C263.869 209.598 263.911 209.7 263.911 209.832V221.568C263.911 221.688 263.869 221.79 263.785 221.874C263.713 221.958 263.611 222 263.479 222H261.841ZM271.56 222.18C270.324 222.18 269.364 221.754 268.68 220.902V221.568C268.68 221.688 268.638 221.79 268.554 221.874C268.482 221.958 268.38 222 268.248 222H266.826C266.706 222 266.604 221.958 266.52 221.874C266.436 221.79 266.394 221.688 266.394 221.568V209.652C266.394 209.52 266.436 209.418 266.52 209.346C266.604 209.262 266.706 209.22 266.826 209.22H268.356C268.488 209.22 268.59 209.262 268.662 209.346C268.746 209.418 268.788 209.52 268.788 209.652V213.648C269.472 212.856 270.396 212.46 271.56 212.46C272.772 212.46 273.702 212.856 274.35 213.648C274.998 214.44 275.346 215.466 275.394 216.726C275.406 216.87 275.412 217.062 275.412 217.302C275.412 217.554 275.406 217.752 275.394 217.896C275.346 219.192 274.998 220.23 274.35 221.01C273.702 221.79 272.772 222.18 271.56 222.18ZM270.894 220.254C272.19 220.254 272.88 219.456 272.964 217.86C272.976 217.74 272.982 217.56 272.982 217.32C272.982 217.08 272.976 216.9 272.964 216.78C272.88 215.184 272.19 214.386 270.894 214.386C270.222 214.386 269.706 214.602 269.346 215.034C268.998 215.454 268.812 215.964 268.788 216.564L268.77 217.248L268.788 217.95C268.824 218.598 269.01 219.144 269.346 219.588C269.682 220.032 270.198 220.254 270.894 220.254Z" fill="#ECB21B"/>
<path fill-rule="evenodd" clip-rule="evenodd" d="M193.758 10.2789L227.401 1.46468C259.103 -6.8408 288.113 21.5229 279.618 52.5198L270.507 85.7678C277.701 102.685 281.681 121.298 281.681 140.841C281.681 140.894 281.681 140.947 281.681 141H227.512C227.512 140.947 227.512 140.894 227.512 140.841C227.512 92.9735 188.708 54.1695 140.841 54.1695C92.9735 54.1695 54.1694 92.9735 54.1694 140.841C54.1694 140.894 54.1696 140.947 54.1696 141H0.00012207C0.00012207 140.947 0 140.894 0 140.841C0 63.0565 63.0565 3.37676e-08 140.841 3.37676e-08C159.557 3.37676e-08 177.42 3.65072 193.758 10.2789Z" fill="#ECB21B"/>
</svg>
